<?xml version="1.0" encoding="UTF-8"?>
<svg width="62px" height="202px" viewBox="0 0 62 202" version="1.1" xmlns="http://www.w3.org/2000/svg" xmlns:xlink="http://www.w3.org/1999/xlink">
    <title>520CC84E-2040-431C-8169-98CB63316DE4</title>
    <g id="Home" stroke="none" stroke-width="1" fill="none" fill-rule="evenodd" opacity="0.402064732">
        <g transform="translate(-1364.000000, -5410.000000)" fill="#F18F01" id="bgPattern">
            <g transform="translate(1364.000000, 5410.000000)">
                <path d="M2.34883721,197.302326 C3.64606418,197.302326 4.69767442,198.353936 4.69767442,199.651163 C4.69767442,200.94839 3.64606418,202 2.34883721,202 C1.05161024,202 0,200.94839 0,199.651163 C0,198.353936 1.05161024,197.302326 2.34883721,197.302326 Z M115.093023,197.302326 C116.39025,197.302326 117.44186,198.353936 117.44186,199.651163 C117.44186,200.94839 116.39025,202 115.093023,202 C113.795796,202 112.744186,200.94839 112.744186,199.651163 C112.744186,198.353936 113.795796,197.302326 115.093023,197.302326 Z M30.5348837,197.302326 C31.8321107,197.302326 32.8837209,198.353936 32.8837209,199.651163 C32.8837209,200.94839 31.8321107,202 30.5348837,202 C29.2376568,202 28.1860465,200.94839 28.1860465,199.651163 C28.1860465,198.353936 29.2376568,197.302326 30.5348837,197.302326 Z M143.27907,197.302326 C144.576297,197.302326 145.627907,198.353936 145.627907,199.651163 C145.627907,200.94839 144.576297,202 143.27907,202 C141.981843,202 140.930233,200.94839 140.930233,199.651163 C140.930233,198.353936 141.981843,197.302326 143.27907,197.302326 Z M58.7209302,197.302326 C60.0181572,197.302326 61.0697674,198.353936 61.0697674,199.651163 C61.0697674,200.94839 60.0181572,202 58.7209302,202 C57.4237033,202 56.372093,200.94839 56.372093,199.651163 C56.372093,198.353936 57.4237033,197.302326 58.7209302,197.302326 Z M171.465116,197.302326 C172.762343,197.302326 173.813953,198.353936 173.813953,199.651163 C173.813953,200.94839 172.762343,202 171.465116,202 C170.167889,202 169.116279,200.94839 169.116279,199.651163 C169.116279,198.353936 170.167889,197.302326 171.465116,197.302326 Z M86.9069767,197.302326 C88.2042037,197.302326 89.255814,198.353936 89.255814,199.651163 C89.255814,200.94839 88.2042037,202 86.9069767,202 C85.6097498,202 84.5581395,200.94839 84.5581395,199.651163 C84.5581395,198.353936 85.6097498,197.302326 86.9069767,197.302326 Z M199.651163,197.302326 C200.94839,197.302326 202,198.353936 202,199.651163 C202,200.94839 200.94839,202 199.651163,202 C198.353936,202 197.302326,200.94839 197.302326,199.651163 C197.302326,198.353936 198.353936,197.302326 199.651163,197.302326 Z M58.7209302,169.116279 C60.0181572,169.116279 61.0697674,170.167889 61.0697674,171.465116 C61.0697674,172.762343 60.0181572,173.813953 58.7209302,173.813953 C57.4237033,173.813953 56.372093,172.762343 56.372093,171.465116 C56.372093,170.167889 57.4237033,169.116279 58.7209302,169.116279 Z M171.465116,169.116279 C172.762343,169.116279 173.813953,170.167889 173.813953,171.465116 C173.813953,172.762343 172.762343,173.813953 171.465116,173.813953 C170.167889,173.813953 169.116279,172.762343 169.116279,171.465116 C169.116279,170.167889 170.167889,169.116279 171.465116,169.116279 Z M115.093023,169.116279 C116.39025,169.116279 117.44186,170.167889 117.44186,171.465116 C117.44186,172.762343 116.39025,173.813953 115.093023,173.813953 C113.795796,173.813953 112.744186,172.762343 112.744186,171.465116 C112.744186,170.167889 113.795796,169.116279 115.093023,169.116279 Z M30.5348837,169.116279 C31.8321107,169.116279 32.8837209,170.167889 32.8837209,171.465116 C32.8837209,172.762343 31.8321107,173.813953 30.5348837,173.813953 C29.2376568,173.813953 28.1860465,172.762343 28.1860465,171.465116 C28.1860465,170.167889 29.2376568,169.116279 30.5348837,169.116279 Z M86.9069767,169.116279 C88.2042037,169.116279 89.255814,170.167889 89.255814,171.465116 C89.255814,172.762343 88.2042037,173.813953 86.9069767,173.813953 C85.6097498,173.813953 84.5581395,172.762343 84.5581395,171.465116 C84.5581395,170.167889 85.6097498,169.116279 86.9069767,169.116279 Z M199.651163,169.116279 C200.94839,169.116279 202,170.167889 202,171.465116 C202,172.762343 200.94839,173.813953 199.651163,173.813953 C198.353936,173.813953 197.302326,172.762343 197.302326,171.465116 C197.302326,170.167889 198.353936,169.116279 199.651163,169.116279 Z M143.27907,169.116279 C144.576297,169.116279 145.627907,170.167889 145.627907,171.465116 C145.627907,172.762343 144.576297,173.813953 143.27907,173.813953 C141.981843,173.813953 140.930233,172.762343 140.930233,171.465116 C140.930233,170.167889 141.981843,169.116279 143.27907,169.116279 Z M2.34883721,169.116279 C3.64606418,169.116279 4.69767442,170.167889 4.69767442,171.465116 C4.69767442,172.762343 3.64606418,173.813953 2.34883721,173.813953 C1.05161024,173.813953 0,172.762343 0,171.465116 C0,170.167889 1.05161024,169.116279 2.34883721,169.116279 Z M2.34883721,140.930233 C3.64606418,140.930233 4.69767442,141.981843 4.69767442,143.27907 C4.69767442,144.576297 3.64606418,145.627907 2.34883721,145.627907 C1.05161024,145.627907 0,144.576297 0,143.27907 C0,141.981843 1.05161024,140.930233 2.34883721,140.930233 Z M115.093023,140.930233 C116.39025,140.930233 117.44186,141.981843 117.44186,143.27907 C117.44186,144.576297 116.39025,145.627907 115.093023,145.627907 C113.795796,145.627907 112.744186,144.576297 112.744186,143.27907 C112.744186,141.981843 113.795796,140.930233 115.093023,140.930233 Z M30.5348837,140.930233 C31.8321107,140.930233 32.8837209,141.981843 32.8837209,143.27907 C32.8837209,144.576297 31.8321107,145.627907 30.5348837,145.627907 C29.2376568,145.627907 28.1860465,144.576297 28.1860465,143.27907 C28.1860465,141.981843 29.2376568,140.930233 30.5348837,140.930233 Z M143.27907,140.930233 C144.576297,140.930233 145.627907,141.981843 145.627907,143.27907 C145.627907,144.576297 144.576297,145.627907 143.27907,145.627907 C141.981843,145.627907 140.930233,144.576297 140.930233,143.27907 C140.930233,141.981843 141.981843,140.930233 143.27907,140.930233 Z M58.7209302,140.930233 C60.0181572,140.930233 61.0697674,141.981843 61.0697674,143.27907 C61.0697674,144.576297 60.0181572,145.627907 58.7209302,145.627907 C57.4237033,145.627907 56.372093,144.576297 56.372093,143.27907 C56.372093,141.981843 57.4237033,140.930233 58.7209302,140.930233 Z M171.465116,140.930233 C172.762343,140.930233 173.813953,141.981843 173.813953,143.27907 C173.813953,144.576297 172.762343,145.627907 171.465116,145.627907 C170.167889,145.627907 169.116279,144.576297 169.116279,143.27907 C169.116279,141.981843 170.167889,140.930233 171.465116,140.930233 Z M86.9069767,140.930233 C88.2042037,140.930233 89.255814,141.981843 89.255814,143.27907 C89.255814,144.576297 88.2042037,145.627907 86.9069767,145.627907 C85.6097498,145.627907 84.5581395,144.576297 84.5581395,143.27907 C84.5581395,141.981843 85.6097498,140.930233 86.9069767,140.930233 Z M199.651163,140.930233 C200.94839,140.930233 202,141.981843 202,143.27907 C202,144.576297 200.94839,145.627907 199.651163,145.627907 C198.353936,145.627907 197.302326,144.576297 197.302326,143.27907 C197.302326,141.981843 198.353936,140.930233 199.651163,140.930233 Z M2.34883721,112.744186 C3.64606418,112.744186 4.69767442,113.795796 4.69767442,115.093023 C4.69767442,116.39025 3.64606418,117.44186 2.34883721,117.44186 C1.05161024,117.44186 0,116.39025 0,115.093023 C0,113.795796 1.05161024,112.744186 2.34883721,112.744186 Z M115.093023,112.744186 C116.39025,112.744186 117.44186,113.795796 117.44186,115.093023 C117.44186,116.39025 116.39025,117.44186 115.093023,117.44186 C113.795796,117.44186 112.744186,116.39025 112.744186,115.093023 C112.744186,113.795796 113.795796,112.744186 115.093023,112.744186 Z M30.5348837,112.744186 C31.8321107,112.744186 32.8837209,113.795796 32.8837209,115.093023 C32.8837209,116.39025 31.8321107,117.44186 30.5348837,117.44186 C29.2376568,117.44186 28.1860465,116.39025 28.1860465,115.093023 C28.1860465,113.795796 29.2376568,112.744186 30.5348837,112.744186 Z M143.27907,112.744186 C144.576297,112.744186 145.627907,113.795796 145.627907,115.093023 C145.627907,116.39025 144.576297,117.44186 143.27907,117.44186 C141.981843,117.44186 140.930233,116.39025 140.930233,115.093023 C140.930233,113.795796 141.981843,112.744186 143.27907,112.744186 Z M58.7209302,112.744186 C60.0181572,112.744186 61.0697674,113.795796 61.0697674,115.093023 C61.0697674,116.39025 60.0181572,117.44186 58.7209302,117.44186 C57.4237033,117.44186 56.372093,116.39025 56.372093,115.093023 C56.372093,113.795796 57.4237033,112.744186 58.7209302,112.744186 Z M171.465116,112.744186 C172.762343,112.744186 173.813953,113.795796 173.813953,115.093023 C173.813953,116.39025 172.762343,117.44186 171.465116,117.44186 C170.167889,117.44186 169.116279,116.39025 169.116279,115.093023 C169.116279,113.795796 170.167889,112.744186 171.465116,112.744186 Z M86.9069767,112.744186 C88.2042037,112.744186 89.255814,113.795796 89.255814,115.093023 C89.255814,116.39025 88.2042037,117.44186 86.9069767,117.44186 C85.6097498,117.44186 84.5581395,116.39025 84.5581395,115.093023 C84.5581395,113.795796 85.6097498,112.744186 86.9069767,112.744186 Z M199.651163,112.744186 C200.94839,112.744186 202,113.795796 202,115.093023 C202,116.39025 200.94839,117.44186 199.651163,117.44186 C198.353936,117.44186 197.302326,116.39025 197.302326,115.093023 C197.302326,113.795796 198.353936,112.744186 199.651163,112.744186 Z M2.34883721,84.5581395 C3.64606418,84.5581395 4.69767442,85.6097498 4.69767442,86.9069767 C4.69767442,88.2042037 3.64606418,89.255814 2.34883721,89.255814 C1.05161024,89.255814 0,88.2042037 0,86.9069767 C0,85.6097498 1.05161024,84.5581395 2.34883721,84.5581395 Z M171.465116,84.5581395 C172.762343,84.5581395 173.813953,85.6097498 173.813953,86.9069767 C173.813953,88.2042037 172.762343,89.255814 171.465116,89.255814 C170.167889,89.255814 169.116279,88.2042037 169.116279,86.9069767 C169.116279,85.6097498 170.167889,84.5581395 171.465116,84.5581395 Z M143.27907,84.5581395 C144.576297,84.5581395 145.627907,85.6097498 145.627907,86.9069767 C145.627907,88.2042037 144.576297,89.255814 143.27907,89.255814 C141.981843,89.255814 140.930233,88.2042037 140.930233,86.9069767 C140.930233,85.6097498 141.981843,84.5581395 143.27907,84.5581395 Z M115.093023,84.5581395 C116.39025,84.5581395 117.44186,85.6097498 117.44186,86.9069767 C117.44186,88.2042037 116.39025,89.255814 115.093023,89.255814 C113.795796,89.255814 112.744186,88.2042037 112.744186,86.9069767 C112.744186,85.6097498 113.795796,84.5581395 115.093023,84.5581395 Z M86.9069767,84.5581395 C88.2042037,84.5581395 89.255814,85.6097498 89.255814,86.9069767 C89.255814,88.2042037 88.2042037,89.255814 86.9069767,89.255814 C85.6097498,89.255814 84.5581395,88.2042037 84.5581395,86.9069767 C84.5581395,85.6097498 85.6097498,84.5581395 86.9069767,84.5581395 Z M58.7209302,84.5581395 C60.0181572,84.5581395 61.0697674,85.6097498 61.0697674,86.9069767 C61.0697674,88.2042037 60.0181572,89.255814 58.7209302,89.255814 C57.4237033,89.255814 56.372093,88.2042037 56.372093,86.9069767 C56.372093,85.6097498 57.4237033,84.5581395 58.7209302,84.5581395 Z M199.651163,84.5581395 C200.94839,84.5581395 202,85.6097498 202,86.9069767 C202,88.2042037 200.94839,89.255814 199.651163,89.255814 C198.353936,89.255814 197.302326,88.2042037 197.302326,86.9069767 C197.302326,85.6097498 198.353936,84.5581395 199.651163,84.5581395 Z M30.5348837,84.5581395 C31.8321107,84.5581395 32.8837209,85.6097498 32.8837209,86.9069767 C32.8837209,88.2042037 31.8321107,89.255814 30.5348837,89.255814 C29.2376568,89.255814 28.1860465,88.2042037 28.1860465,86.9069767 C28.1860465,85.6097498 29.2376568,84.5581395 30.5348837,84.5581395 Z M115.093023,56.372093 C116.39025,56.372093 117.44186,57.4237033 117.44186,58.7209302 C117.44186,60.0181572 116.39025,61.0697674 115.093023,61.0697674 C113.795796,61.0697674 112.744186,60.0181572 112.744186,58.7209302 C112.744186,57.4237033 113.795796,56.372093 115.093023,56.372093 Z M30.5348837,56.372093 C31.8321107,56.372093 32.8837209,57.4237033 32.8837209,58.7209302 C32.8837209,60.0181572 31.8321107,61.0697674 30.5348837,61.0697674 C29.2376568,61.0697674 28.1860465,60.0181572 28.1860465,58.7209302 C28.1860465,57.4237033 29.2376568,56.372093 30.5348837,56.372093 Z M143.27907,56.372093 C144.576297,56.372093 145.627907,57.4237033 145.627907,58.7209302 C145.627907,60.0181572 144.576297,61.0697674 143.27907,61.0697674 C141.981843,61.0697674 140.930233,60.0181572 140.930233,58.7209302 C140.930233,57.4237033 141.981843,56.372093 143.27907,56.372093 Z M86.9069767,56.372093 C88.2042037,56.372093 89.255814,57.4237033 89.255814,58.7209302 C89.255814,60.0181572 88.2042037,61.0697674 86.9069767,61.0697674 C85.6097498,61.0697674 84.5581395,60.0181572 84.5581395,58.7209302 C84.5581395,57.4237033 85.6097498,56.372093 86.9069767,56.372093 Z M199.651163,56.372093 C200.94839,56.372093 202,57.4237033 202,58.7209302 C202,60.0181572 200.94839,61.0697674 199.651163,61.0697674 C198.353936,61.0697674 197.302326,60.0181572 197.302326,58.7209302 C197.302326,57.4237033 198.353936,56.372093 199.651163,56.372093 Z M58.7209302,56.372093 C60.0181572,56.372093 61.0697674,57.4237033 61.0697674,58.7209302 C61.0697674,60.0181572 60.0181572,61.0697674 58.7209302,61.0697674 C57.4237033,61.0697674 56.372093,60.0181572 56.372093,58.7209302 C56.372093,57.4237033 57.4237033,56.372093 58.7209302,56.372093 Z M171.465116,56.372093 C172.762343,56.372093 173.813953,57.4237033 173.813953,58.7209302 C173.813953,60.0181572 172.762343,61.0697674 171.465116,61.0697674 C170.167889,61.0697674 169.116279,60.0181572 169.116279,58.7209302 C169.116279,57.4237033 170.167889,56.372093 171.465116,56.372093 Z M2.34883721,56.372093 C3.64606418,56.372093 4.69767442,57.4237033 4.69767442,58.7209302 C4.69767442,60.0181572 3.64606418,61.0697674 2.34883721,61.0697674 C1.05161024,61.0697674 0,60.0181572 0,58.7209302 C0,57.4237033 1.05161024,56.372093 2.34883721,56.372093 Z M2.34883721,28.1860465 C3.64606418,28.1860465 4.69767442,29.2376568 4.69767442,30.5348837 C4.69767442,31.8321107 3.64606418,32.8837209 2.34883721,32.8837209 C1.05161024,32.8837209 0,31.8321107 0,30.5348837 C0,29.2376568 1.05161024,28.1860465 2.34883721,28.1860465 Z M30.5348837,28.1860465 C31.8321107,28.1860465 32.8837209,29.2376568 32.8837209,30.5348837 C32.8837209,31.8321107 31.8321107,32.8837209 30.5348837,32.8837209 C29.2376568,32.8837209 28.1860465,31.8321107 28.1860465,30.5348837 C28.1860465,29.2376568 29.2376568,28.1860465 30.5348837,28.1860465 Z M143.27907,28.1860465 C144.576297,28.1860465 145.627907,29.2376568 145.627907,30.5348837 C145.627907,31.8321107 144.576297,32.8837209 143.27907,32.8837209 C141.981843,32.8837209 140.930233,31.8321107 140.930233,30.5348837 C140.930233,29.2376568 141.981843,28.1860465 143.27907,28.1860465 Z M58.7209302,28.1860465 C60.0181572,28.1860465 61.0697674,29.2376568 61.0697674,30.5348837 C61.0697674,31.8321107 60.0181572,32.8837209 58.7209302,32.8837209 C57.4237033,32.8837209 56.372093,31.8321107 56.372093,30.5348837 C56.372093,29.2376568 57.4237033,28.1860465 58.7209302,28.1860465 Z M171.465116,28.1860465 C172.762343,28.1860465 173.813953,29.2376568 173.813953,30.5348837 C173.813953,31.8321107 172.762343,32.8837209 171.465116,32.8837209 C170.167889,32.8837209 169.116279,31.8321107 169.116279,30.5348837 C169.116279,29.2376568 170.167889,28.1860465 171.465116,28.1860465 Z M86.9069767,28.1860465 C88.2042037,28.1860465 89.255814,29.2376568 89.255814,30.5348837 C89.255814,31.8321107 88.2042037,32.8837209 86.9069767,32.8837209 C85.6097498,32.8837209 84.5581395,31.8321107 84.5581395,30.5348837 C84.5581395,29.2376568 85.6097498,28.1860465 86.9069767,28.1860465 Z M199.651163,28.1860465 C200.94839,28.1860465 202,29.2376568 202,30.5348837 C202,31.8321107 200.94839,32.8837209 199.651163,32.8837209 C198.353936,32.8837209 197.302326,31.8321107 197.302326,30.5348837 C197.302326,29.2376568 198.353936,28.1860465 199.651163,28.1860465 Z M115.093023,28.1860465 C116.39025,28.1860465 117.44186,29.2376568 117.44186,30.5348837 C117.44186,31.8321107 116.39025,32.8837209 115.093023,32.8837209 C113.795796,32.8837209 112.744186,31.8321107 112.744186,30.5348837 C112.744186,29.2376568 113.795796,28.1860465 115.093023,28.1860465 Z M2.34883721,0 C3.64606418,0 4.69767442,1.05161024 4.69767442,2.34883721 C4.69767442,3.64606418 3.64606418,4.69767442 2.34883721,4.69767442 C1.05161024,4.69767442 0,3.64606418 0,2.34883721 C0,1.05161024 1.05161024,0 2.34883721,0 Z M115.093023,0 C116.39025,0 117.44186,1.05161024 117.44186,2.34883721 C117.44186,3.64606418 116.39025,4.69767442 115.093023,4.69767442 C113.795796,4.69767442 112.744186,3.64606418 112.744186,2.34883721 C112.744186,1.05161024 113.795796,0 115.093023,0 Z M30.5348837,0 C31.8321107,0 32.8837209,1.05161024 32.8837209,2.34883721 C32.8837209,3.64606418 31.8321107,4.69767442 30.5348837,4.69767442 C29.2376568,4.69767442 28.1860465,3.64606418 28.1860465,2.34883721 C28.1860465,1.05161024 29.2376568,0 30.5348837,0 Z M143.27907,0 C144.576297,0 145.627907,1.05161024 145.627907,2.34883721 C145.627907,3.64606418 144.576297,4.69767442 143.27907,4.69767442 C141.981843,4.69767442 140.930233,3.64606418 140.930233,2.34883721 C140.930233,1.05161024 141.981843,0 143.27907,0 Z M58.7209302,0 C60.0181572,0 61.0697674,1.05161024 61.0697674,2.34883721 C61.0697674,3.64606418 60.0181572,4.69767442 58.7209302,4.69767442 C57.4237033,4.69767442 56.372093,3.64606418 56.372093,2.34883721 C56.372093,1.05161024 57.4237033,0 58.7209302,0 Z M171.465116,0 C172.762343,0 173.813953,1.05161024 173.813953,2.34883721 C173.813953,3.64606418 172.762343,4.69767442 171.465116,4.69767442 C170.167889,4.69767442 169.116279,3.64606418 169.116279,2.34883721 C169.116279,1.05161024 170.167889,0 171.465116,0 Z M86.9069767,0 C88.2042037,0 89.255814,1.05161024 89.255814,2.34883721 C89.255814,3.64606418 88.2042037,4.69767442 86.9069767,4.69767442 C85.6097498,4.69767442 84.5581395,3.64606418 84.5581395,2.34883721 C84.5581395,1.05161024 85.6097498,0 86.9069767,0 Z M199.651163,0 C200.94839,0 202,1.05161024 202,2.34883721 C202,3.64606418 200.94839,4.69767442 199.651163,4.69767442 C198.353936,4.69767442 197.302326,3.64606418 197.302326,2.34883721 C197.302326,1.05161024 198.353936,0 199.651163,0 Z"></path>
            </g>
        </g>
    </g>
</svg>