<?xml version="1.0" encoding="UTF-8"?>
<svg width="14px" height="14px" viewBox="0 0 14 14" version="1.1" xmlns="http://www.w3.org/2000/svg" xmlns:xlink="http://www.w3.org/1999/xlink">
    <title>DFC7968A-2C3D-4BC3-A17B-47F74765BC3E</title>
    <defs>
        <filter id="filter-1">
            <feColorMatrix in="SourceGraphic" type="matrix" values="0 0 0 0 0.611765 0 0 0 0 0.650980 0 0 0 0 0.694118 0 0 0 1.000000 0"></feColorMatrix>
        </filter>
    </defs>
    <g id="Home" stroke="none" stroke-width="1" fill="none" fill-rule="evenodd">
        <g transform="translate(-1185.000000, -7205.000000)" id="footer/desktop">
            <g transform="translate(0.000000, 6822.000000)" filter="url(#filter-1)" id="icon/socialMedia/google">
                <g transform="translate(1185.000000, 383.000000)" id="icon_Google" fill="#FFFFFF" fill-rule="nonzero">
                    <path d="M6.99100917,0.00047111599 C8.72752294,-0.0200793427 10.4049541,0.632397721 11.6688073,1.81918671 L11.6688073,1.81918671 L9.67284404,3.81515002 L9.50207506,3.66187745 C8.80261115,3.07132069 7.9110374,2.75284938 6.99100917,2.76707662 C5.16715596,2.76707662 3.61816514,3.99753534 3.06587156,5.65441607 C2.77302752,6.52267295 2.77302752,7.46285644 3.06587156,8.33111332 L3.06587156,8.33111332 C3.62330275,9.98542524 5.16972477,11.215884 6.99357798,11.215884 C7.93633028,11.215884 8.74550459,10.9744161 9.37229358,10.5479941 L9.369,10.549 C10.0502611,10.0974648 10.5316161,9.4083556 10.7248905,8.6220971 L10.767156,8.42359038 L6.99100917,8.42359038 L6.99100917,5.73148029 L13.5851376,5.73148029 C13.6673394,6.19900323 13.7058716,6.67680139 13.7058716,7.15203075 C13.7058716,9.27900323 12.9455046,11.0771684 11.6225688,12.294783 L11.623,12.293 C10.5347545,13.3005467 9.06209009,13.9081007 7.320651,13.9760975 L6.99100917,13.9824895 C4.34770642,13.9824895 1.93045872,12.4925812 0.743669725,10.1318473 L0.743669725,10.1318473 L0.619959071,9.87224676 C-0.246015504,7.95472234 -0.20477862,5.74320745 0.743669725,3.85368213 L0.743669725,3.85368213 L0.870789087,3.61234337 C2.09743425,1.38939867 4.43885479,0.00047111599 6.99100917,0.00047111599 Z" id="Combined-Shape"></path>
                </g>
            </g>
        </g>
    </g>
</svg>