<?xml version="1.0" encoding="UTF-8"?>
<svg width="16px" height="16px" viewBox="0 0 16 16" version="1.1" xmlns="http://www.w3.org/2000/svg" xmlns:xlink="http://www.w3.org/1999/xlink">
    <title>F233875D-E6FA-4C3B-907B-54A91A5D5297</title>
    <defs>
        <filter id="filter-1">
            <feColorMatrix in="SourceGraphic" type="matrix" values="0 0 0 0 0.611765 0 0 0 0 0.650980 0 0 0 0 0.694118 0 0 0 1.000000 0"></feColorMatrix>
        </filter>
    </defs>
    <g id="Home" stroke="none" stroke-width="1" fill="none" fill-rule="evenodd">
        <g transform="translate(-1112.000000, -7204.000000)" id="footer/desktop">
            <g transform="translate(0.000000, 6822.000000)" filter="url(#filter-1)" id="icon/socialMedia/instagram">
                <g transform="translate(1112.000000, 382.000000)" id="icon_Instagram" fill="#FFFFFF" fill-rule="nonzero">
                    <path d="M8.9388978,0.000677814724 C9.87663375,0.0028595376 10.3087368,0.00947888146 10.7283681,0.024873088 L10.9088843,0.0320204866 C11.0306365,0.0371604367 11.1571216,0.0430672822 11.2998422,0.0498421832 C12.1498178,0.087317777 12.7311166,0.224768964 13.240394,0.421668371 C13.771644,0.621619558 14.256019,0.937293371 14.6560434,1.34354337 C15.0654672,1.74356778 15.3779672,2.22476896 15.5810922,2.76224456 C15.7779916,3.26859218 15.9154428,3.85294278 15.9529184,4.70291837 C15.984148,5.41387621 15.991557,5.72115432 15.9931592,7.06070363 L15.9930907,8.73002919 C15.9916598,9.67016729 15.9867861,10.1438363 15.9755014,10.5453844 L15.969827,10.7270292 C15.9636758,10.9064248 15.9560617,11.083381 15.9466928,11.2966684 C15.9092172,12.146644 15.771644,12.7279428 15.5748666,13.2373422 C15.1592172,14.3122934 14.3092416,15.162269 13.2341684,15.5779184 C12.7279428,15.7748178 12.1435922,15.912269 11.2936166,15.9497446 C11.151425,15.9560108 11.0253806,15.9614904 10.9039958,15.9662715 L10.6338968,15.9758874 C10.2108966,15.9891276 9.73943382,15.994621 8.7269774,15.9961475 L7.26650077,15.9961475 C6.25402989,15.994621 5.78252675,15.9891276 5.35953284,15.9758874 L5.08944496,15.9662715 C4.96806864,15.9614904 4.84203782,15.9560108 4.69986659,15.9497446 C3.84976896,15.912269 3.26859218,15.7748178 2.75919278,15.5779184 C2.22794278,15.3779672 1.74356778,15.0622934 1.34354337,14.6560434 C0.937293371,14.256019 0.621741589,13.7748178 0.418616589,13.2373422 C0.221717183,12.7309946 0.0841439645,12.146644 0.0466683707,11.2966684 C0.0372994723,11.083381 0.0296853356,10.9064248 0.0235341359,10.7270292 L0.0178597735,10.5453844 C0.00744310683,10.1747247 0.0024890886,9.7426127 0.000663121148,8.93888311 L0.000677814724,7.06068894 C0.00379456169,5.72106616 0.015967678,5.41334724 0.0498421832,4.69974456 C0.087317777,3.84976896 0.224768964,3.26859218 0.421668371,2.75919278 C0.621741589,2.22794278 0.937293371,1.74356778 1.34354337,1.34354337 C1.74356778,0.934119558 2.22476896,0.621619558 2.76236659,0.418494558 C3.26859218,0.221717183 3.85294278,0.0841439645 4.70291837,0.0466683707 C4.88065783,0.0388609553 5.03316731,0.0322721245 5.18288353,0.0267329982 L5.3626382,0.0205790964 C5.75542411,0.0082904991 6.18999658,0.00264125255 7.06070363,0.000663121148 Z M8.26357923,1.45296868 L7.74885291,1.45296868 C7.6662775,1.45300266 7.5867891,1.45305432 7.51020891,1.453125 L7.08419595,1.45378812 C6.23058311,1.45576625 5.80802499,1.4614155 5.42370619,1.4737041 L5.24761312,1.479858 C5.10074763,1.48539712 4.95059903,1.49198596 4.77481778,1.49979337 C3.99674159,1.53421718 3.57169278,1.66544278 3.29044278,1.77481778 C2.94351896,1.90286956 2.63101896,2.10599456 2.37174159,2.37161956 C2.10294278,2.62796718 1.89981778,2.94351896 1.77164396,3.29044278 C1.66226896,3.57169278 1.53104337,3.99356778 1.49674159,4.77481778 C1.48890875,4.94993782 1.48230509,5.09969542 1.47675842,5.24635733 L1.47059874,5.42229076 C1.45830429,5.80643567 1.45268947,6.229863 1.45072787,7.08393317 L1.45007089,7.51012266 C1.44993102,7.6633286 1.44986659,7.82815235 1.44986659,8.00601896 L1.44991629,8.26319965 C1.44994988,8.34577973 1.45000095,8.42527259 1.45007089,8.50185706 L1.45072787,8.92789339 C1.45268947,9.78155214 1.45830429,10.2041263 1.47059874,10.5884507 L1.47675842,10.7645457 C1.48230509,10.9114123 1.48890875,11.0615609 1.49674159,11.2373422 C1.53104337,12.0154184 1.66226896,12.4404672 1.77164396,12.7217172 C1.89981778,13.068519 2.10294278,13.381019 2.36856778,13.6404184 C2.62479337,13.9060434 2.94046718,14.1091684 3.28726896,14.2373422 C3.56851896,14.3467172 3.99039396,14.4779428 4.77164396,14.5122446 C4.94678943,14.5200774 5.09656715,14.5266811 5.243245,14.5322277 L5.41919561,14.5383874 C5.80337368,14.5506819 6.22680882,14.5562967 7.08088082,14.5582583 L7.50707081,14.5589153 C7.66027682,14.5590551 7.82510057,14.5591196 8.00296718,14.5591196 L8.26014725,14.5590699 C8.34272692,14.5590363 8.42221919,14.5589852 8.49880287,14.5589153 L8.92483257,14.5582583 C9.77847295,14.5562967 10.2010049,14.5506819 10.585302,14.5383874 L10.7613856,14.5322277 C10.9082438,14.5266811 11.0583871,14.5200774 11.2341684,14.5122446 C12.0123666,14.4779428 12.4372934,14.3467172 12.7185434,14.2373422 C13.4154428,13.9685434 13.9685434,13.4154428 14.2373422,12.7185434 C14.3467172,12.4372934 14.4779428,12.0154184 14.5123666,11.2341684 C14.520174,11.0583871 14.5267628,10.9083763 14.532302,10.7617278 L14.5384559,10.5859294 C14.552635,10.1432978 14.5579748,9.65025849 14.559035,8.50179461 L14.559035,7.51018327 C14.5579748,6.36142799 14.552635,5.86710388 14.5384559,5.42368413 L14.532302,5.24760054 C14.5267628,5.10074233 14.520174,4.95059903 14.5123666,4.77481778 C14.4779428,3.99661956 14.3467172,3.57169278 14.2373422,3.29044278 C14.1091684,2.94351896 13.9060434,2.63101896 13.6404184,2.37161956 C13.3841928,2.10599456 13.068519,1.90286956 12.7217172,1.77481778 C12.4404672,1.66544278 12.0185922,1.53421718 11.2373422,1.49979337 C11.0621967,1.49198596 10.9125567,1.48539712 10.7660683,1.479858 L10.5903643,1.4737041 C10.2067503,1.4614155 9.78399566,1.45576625 8.92920734,1.45378812 L8.50258206,1.453125 C8.34919421,1.45298364 8.18415007,1.45291837 8.00601896,1.45291837 Z M7.99979337,3.89041837 C10.2685922,3.89041837 12.1091684,5.73099456 12.1091684,7.99979337 C12.1091684,10.2685922 10.2685922,12.1091684 7.99979337,12.1091684 C5.73111659,12.1091684 3.89041837,10.2685922 3.89041837,7.99979337 C3.89041837,5.73099456 5.73111659,3.89041837 7.99979337,3.89041837 Z M7.99979337,5.33414396 C6.52799159,5.33414396 5.33414396,6.52786956 5.33414396,7.99979337 C5.33414396,9.47171718 6.52799159,10.6654428 7.99979337,10.6654428 C9.47171718,10.6654428 10.6654428,9.47171718 10.6654428,7.99979337 C10.6654428,6.52786956 9.47171718,5.33414396 7.99979337,5.33414396 Z M12.271644,2.76859218 C12.8015512,2.76859218 13.2311166,3.19803556 13.2311166,3.72794278 C13.2311166,4.25772793 12.8015512,4.68729337 12.271644,4.68729337 C11.7418588,4.68729337 11.3122934,4.25772793 11.3122934,3.72794278 C11.3122934,3.19803556 11.7418588,2.76859218 12.271644,2.76859218 Z" id="Combined-Shape"></path>
                </g>
            </g>
        </g>
    </g>
</svg>