<?xml version="1.0" encoding="UTF-8"?>
<svg width="318px" height="90px" viewBox="0 0 318 90" version="1.1" xmlns="http://www.w3.org/2000/svg" xmlns:xlink="http://www.w3.org/1999/xlink">
    <title>4C32BB23-8CF8-46B3-8D4C-559ABE63C5A8</title>
    <g id="Company" stroke="none" stroke-width="1" fill="none" fill-rule="evenodd">
        <g id="About-Us" transform="translate(-136.000000, -641.000000)">
            <g id="UH-logo-largeB" transform="translate(136.000000, 641.000000)">
                <rect id="Rectangle" fill="#FFFFFF" x="15.8823529" y="13.2352941" width="288.529412" height="63.5294118"></rect>
                <path d="M312.800485,15.2819891 C312.713262,15.275994 312.625731,15.275994 312.538508,15.2819891 L312.538508,12.5093996 C312.532486,8.20322967 309.039952,4.71558099 304.733778,4.7155852 L53.4214676,4.7155852 C53.4995778,4.42357966 53.539931,4.12276514 53.5415403,3.82049727 L53.5415403,3.82049727 C53.5415403,1.71049489 51.8310454,0 49.7210431,0 L21.6240146,0 C19.5165007,0.00599580831 17.8095131,1.71298343 17.8035173,3.82049727 L17.8035173,3.82049727 C17.8104941,4.12236839 17.8507621,4.42254778 17.9235901,4.7155852 L12.8041237,4.7155852 C8.49794953,4.71558099 5.00541619,8.20322967 4.99939357,12.5093996 L4.99939357,37.3317162 C4.62177366,37.1921745 4.22304458,37.1183358 3.82049727,37.1134021 C2.80534429,37.1133979 1.83192795,37.5174115 1.11513112,38.2362563 C0.398334291,38.9551012 -1.56162024e-05,39.9296662 -1.56162024e-05,40.944815 L-1.56162024e-05,69.0418435 C0.00599580831,71.1493574 1.71298343,72.856345 3.82049727,72.8623408 C4.22191902,72.8555799 4.61976638,72.7855882 4.99939357,72.6549424 L4.99939357,77.6106731 C5.00540606,81.9186137 8.49618319,85.4093908 12.8041237,85.4154033 L264.694967,85.4154033 C264.642033,85.6592242 264.616405,85.9081799 264.618557,86.1576713 C264.618557,88.2676737 266.329052,89.9781686 268.439054,89.9781686 L296.525167,89.9781686 C298.635169,89.9781686 300.345664,88.2676737 300.345664,86.1576713 C300.347815,85.9081799 300.322187,85.6592242 300.269254,85.4154033 L304.733778,85.4154033 C309.041719,85.4093908 312.532496,81.9186137 312.538508,77.6106731 L312.538508,51.3038205 L312.800485,51.3038205 C314.907999,51.2978247 316.614987,49.5908371 316.620982,47.4833232 L316.620982,19.1024864 C316.609056,16.997444 314.905527,15.293916 312.800485,15.2819891 L312.800485,15.2819891 Z M40.388114,47.788963 L48.5967253,47.788963 L48.5967253,53.6506974 L46.7519709,53.6506974 C46.6673161,53.9992387 46.3574295,54.2462498 45.9987871,54.2510612 L42.953305,54.2510612 C42.5946627,54.2462498 42.2847761,53.9992387 42.2001213,53.6506974 L40.388114,53.6506974 L40.388114,47.788963 Z M35.8690115,59.3814433 C35.8647877,59.7869638 35.5527087,60.1226852 35.1485749,60.1564585 L35.1485749,61.029715 L30.978775,61.029715 L30.978775,68.2995755 L22.7701637,68.2995755 L22.7701637,53.2359005 L22.6937538,53.2359005 C22.2536676,53.2359005 21.8969072,52.8791402 21.8969072,52.439054 L21.8969072,49.4154033 C21.8969072,48.9753171 22.2536676,48.6185567 22.6937538,48.6185567 L22.7701637,48.6185567 L22.7701637,47.7780473 L30.978775,47.7780473 L30.978775,54.7531837 L35.1485749,54.7531837 L35.1485749,55.5391146 C35.5527087,55.5728878 35.8647877,55.9086092 35.8690115,56.3141298 L35.8690115,59.3814433 Z M49.3171619,62.4160097 C49.3177983,62.8395935 48.9869261,63.1896467 48.5639782,63.2128563 L48.5639782,68.2995755 L40.388114,68.2995755 L40.388114,61.029715 L36.2401455,61.029715 L36.2401455,54.7640995 L40.388114,54.7640995 L40.388114,54.7640995 L48.5967253,54.7640995 L48.5967253,58.6064281 C49.0179435,58.623994 49.3502751,58.9707748 49.3499093,59.392359 L49.3171619,62.4160097 Z M262.27168,47.788963 L267.434809,47.788963 L267.434809,53.4869618 L262.315343,53.4869618 L262.27168,47.788963 Z M204.953305,29.5269861 C204.953305,29.0868998 205.310065,28.7301395 205.750152,28.7301395 L205.750152,28.7301395 L205.750152,27.8459673 L213.947847,27.8459673 L213.947847,35.0394178 L217.440873,35.0394178 C220.944815,35.0394178 222.986052,33.5221346 222.986052,30.8914494 C222.986052,28.2607641 220.944815,26.7543966 217.440873,26.7543966 L212.28866,26.7543966 C212.234487,27.1352117 211.909206,27.418671 211.52456,27.4202547 L208.489994,27.4202547 C208.102939,27.4194226 207.774111,27.136909 207.714979,26.7543966 L205.793814,26.7543966 L205.793814,20.7398423 L218.150394,20.7398423 C225.267435,20.7398423 230.092177,23.6325045 231.118253,28.8065494 L231.260158,28.8065494 C231.471495,28.8065494 231.674176,28.8905027 231.823613,29.0399404 C231.973051,29.1893781 232.057004,29.3920591 232.057004,29.603396 L232.057004,32.6488781 C232.057004,33.0889643 231.700244,33.4457247 231.260158,33.4457247 C231.195063,33.4559495 231.12877,33.4559495 231.063675,33.4457247 C229.972104,38.4232868 225.136446,41.2177077 218.150394,41.2177077 L205.750152,41.2177077 L205.750152,33.3693147 L205.750152,33.3693147 C205.310065,33.3693147 204.953305,33.0125544 204.953305,32.5724682 L204.953305,29.5269861 Z M197.432383,20.7398423 L202.540934,20.7398423 L202.540934,26.3941783 L197.432383,26.3941783 L197.432383,20.7398423 Z M202.890237,35.4869618 L202.890237,41.1412978 L188.929048,41.1412978 L188.929048,35.443299 L202.890237,35.4869618 Z M179.017586,29.5269861 C179.017586,29.0868998 179.374347,28.7301395 179.814433,28.7301395 L179.814433,28.7301395 L179.814433,20.7398423 L196.318981,20.7398423 L196.318981,21.3620376 C196.716188,21.4113773 197.015156,21.7477161 197.017586,22.1479685 L197.017586,25.1061249 C197.014522,25.5040773 196.714483,25.8369336 196.318981,25.8811401 L196.318981,26.3068526 L187.793814,26.3068526 L187.793814,28.1952699 L196.362644,28.1952699 L196.362644,28.413584 C196.739125,28.4726241 197.01682,28.7966023 197.017586,29.1776834 L197.017586,32.2231656 C197.017586,32.6067052 196.740819,32.9342574 196.362644,32.9981807 L196.362644,33.2710734 L187.793814,33.2710734 L187.793814,35.3996361 L187.793814,35.3996361 L187.793814,35.8580958 C188.186959,35.9068595 188.484579,36.2370314 188.49242,36.633111 L188.49242,39.6785931 C188.489355,40.0765455 188.189316,40.4094018 187.793814,40.4536082 L187.793814,41.0539721 L179.792602,41.0539721 L179.792602,33.358399 L179.792602,33.358399 C179.352515,33.358399 178.995755,33.0016387 178.995755,32.5615525 L179.017586,29.5269861 Z M186.080049,54.1309885 L183.383869,55.5500303 C183.083283,55.7056483 182.716476,55.6481968 182.477865,55.4081261 L181.211643,56.0848999 C180.080726,54.3128995 178.094472,53.2740637 175.993936,53.3559733 C173.134021,53.3559733 171.136446,54.8623408 170.841722,57.383869 L169.062462,57.383869 C168.959727,57.7092023 168.66128,57.9330379 168.320194,57.94057 L165.274712,57.94057 C164.929581,57.937701 164.625532,57.7129687 164.521528,57.383869 L162.480291,57.383869 C162.829594,50.7471195 168.276531,47.0794421 176.114008,47.0794421 C181.62644,47.0794421 186.047301,49.4808975 187.80473,52.5372953 L186.48393,53.2359005 C186.571763,53.5974157 186.394087,53.9709907 186.058217,54.1309885 L186.080049,54.1309885 Z M171.049121,20.7398423 L177.598545,20.7398423 L177.598545,21.3620376 C178.015463,21.3852351 178.341457,21.7304058 178.340814,22.1479685 L178.340814,25.1061249 C178.335708,25.5194674 178.011282,25.8582064 177.598545,25.8811401 L177.598545,26.6234081 L171.049121,26.6234081 L171.049121,20.7398423 Z M143.683445,20.7398423 L151.848393,20.7398423 L151.848393,26.3068526 L150.090964,26.3068526 C150.042201,26.6999972 149.712029,26.9976169 149.315949,27.0054579 L146.270467,27.0054579 C145.874387,26.9976169 145.544215,26.6999972 145.495452,26.3068526 L143.683445,26.3068526 L143.683445,20.7398423 Z M143.683445,27.4420861 L151.848393,27.4420861 L151.848393,32.2886598 C152.256833,32.3170652 152.575045,32.6542758 152.579745,33.063675 L152.579745,36.1200728 C152.575045,36.529472 152.256833,36.8666825 151.848393,36.8950879 L151.848393,41.1412978 L143.683445,41.1412978 L143.683445,27.4420861 Z M147.449363,54.5457853 L147.449363,55.2334748 C147.857803,55.2618802 148.176016,55.5990908 148.180716,56.00849 L148.180716,59.0539721 C148.176469,59.465504 147.859526,59.8060985 147.449363,59.839903 L147.449363,61.0078836 C141.402062,60.3856883 136.315343,58.8247423 136.315343,54.2510612 C136.315343,49.6773802 141.325652,47.1231049 148.126137,47.1231049 C152.233365,47.0282147 156.291578,48.0305216 159.882353,50.0266828 L156.160097,54.5785324 C153.728572,53.1878656 150.958499,52.5000711 148.158884,52.5918739 C146.368708,52.5918739 144.371134,52.7665252 144.371134,53.552456 C144.371134,54.0654942 145.386295,54.3056398 147.449363,54.5021225 L147.449363,54.5457853 Z M114.40752,20.7398423 L123.041844,20.7398423 L132.189206,30.5639782 L132.189206,20.7398423 L140.05943,20.7398423 L140.05943,28.6755609 C140.450606,28.7248372 140.744735,29.0563156 140.747119,29.4505761 L140.747119,32.4960582 C140.740057,32.8885103 140.448254,33.2173677 140.05943,33.2710734 L140.05943,41.1412978 L132.887811,41.1412978 L122.255913,29.9963614 L122.255913,30.05094 L114.40752,21.831413 L114.40752,20.7398423 Z M114.40752,23.4578532 L116.863554,26.0230443 C117.18155,25.8154983 117.60182,25.8611798 117.867799,26.1322013 L119.930867,28.3808369 C120.174348,28.6398938 120.210347,29.031388 120.018193,29.3305033 L122.255913,31.6555488 L122.255913,41.130382 L114.385688,41.130382 L114.40752,23.4578532 Z M99.0163736,35.4651304 C101.82171,35.2795634 102.978775,33.2819891 102.978775,30.8368708 L102.978775,20.7398423 L111.143723,20.7398423 L111.143723,25.400849 C111.564942,25.4184149 111.897273,25.7651957 111.896908,26.1867799 L111.896908,29.232262 C111.897273,29.6538461 111.564942,30.000627 111.143723,30.0181928 L111.143723,31.5245603 C111.143723,37.7901759 106.777441,41.6870831 99.0163736,41.8289873 L99.0163736,35.4651304 Z M85.3389933,22.464524 C85.3432404,22.052992 85.6601825,21.7123975 86.0703457,21.6785931 L86.0703457,20.7398423 L94.2352941,20.7398423 L94.2352941,30.8805337 C94.2352941,33.2710734 95.3268648,35.2468163 97.9248029,35.4869618 L97.9248029,36.5785324 C98.2707112,36.6717686 98.5118735,36.9843863 98.5142511,37.3426319 L98.5142511,40.388114 C98.5070296,40.7422879 98.266861,41.04917 97.9248029,41.1412978 L97.9248029,41.8617344 C90.371134,41.6434203 86.0703457,37.7574287 86.0703457,31.5682232 L86.0703457,26.2959369 C85.6625492,26.2572931 85.3482373,25.9195251 85.3389933,25.5100061 L85.3389933,22.464524 Z M64.599151,63.3656762 C64.5948819,63.7416367 64.3249341,64.0619137 63.9551243,64.1297756 L63.9551243,65.0794421 L59.8726501,65.0794421 L58.4426925,68.354154 L49.9393572,68.354154 L56.2813827,55.6046089 L56.0521528,55.5391146 C55.8583895,55.4434713 55.7117763,55.2732382 55.6459195,55.0674355 C55.5800626,54.8616329 55.6006094,54.6379086 55.7028502,54.447544 L57.0782292,51.7295331 C57.1738725,51.5357697 57.3441056,51.3891566 57.5499083,51.3232997 C57.755711,51.2574429 57.9794353,51.2779897 58.1697999,51.3802304 C58.2287051,51.4139932 58.2836284,51.4542703 58.3335355,51.5003032 L60.1564585,47.8217101 L60.2219527,47.8217101 L61.0624621,49.6664645 C61.4391149,49.5309351 61.8574543,49.7001511 62.03396,50.05943 L63.3110976,52.7665252 C63.5080115,53.1705698 63.3423488,53.6578129 62.9399636,53.8580958 L62.9399636,53.8580958 L63.9223772,56.0412371 L62.1103699,60.0909642 L63.9442086,60.0909642 L63.9442086,60.6476653 C64.3140184,60.7155272 64.5839662,61.0358042 64.5882353,61.4117647 L64.599151,63.3656762 Z M70.6573681,68.2995755 L69.2164948,65.0248636 L65.0248636,65.0248636 L65.0248636,60.0909642 L66.9678593,60.0909642 L64.5336568,54.633111 L64.5336568,54.633111 L61.4226804,47.7234688 L69.063675,47.7234688 L72.5021225,54.6440267 L72.5021225,54.6440267 C72.6938425,54.5425336 72.9186541,54.5235904 73.1246544,54.5915705 C73.3306546,54.6595506 73.5000361,54.8085775 73.5936931,55.004245 L74.8926622,57.8532444 C74.9988706,58.041611 75.0227737,58.2654163 74.9587437,58.4719649 C74.8947136,58.6785136 74.7484082,58.8495542 74.5542753,58.944815 L79.2480291,68.3869012 L70.6573681,68.2995755 Z M89.5087932,51.8932686 C89.5064557,52.2815382 89.2171648,52.608157 88.8320194,52.6573681 L88.8320194,53.4105518 L88.8320194,53.4105518 L88.8320194,57.5148575 L88.8320194,57.5148575 L88.8320194,58.1588842 C89.2205635,58.2181071 89.5078968,58.5517844 89.5087932,58.944815 L89.5087932,60.8987265 C89.5025708,61.2876094 89.2165187,61.6151852 88.8320194,61.6737417 L88.8320194,62.6889024 L88.8320194,62.6889024 L88.8320194,68.3104912 L80.6234081,68.3104912 L80.6234081,59.6325045 C80.5653532,59.6386497 80.5068118,59.6386497 80.4487568,59.6325045 C80.0128985,59.6325454 79.6578809,59.2823912 79.6519102,58.8465737 L79.6519102,55.7901759 C79.6578809,55.3543584 80.0128985,55.0042041 80.4487568,55.004245 C80.5068118,54.9980998 80.5653532,54.9980998 80.6234081,55.004245 L80.6234081,47.788963 L88.7774409,47.788963 L88.7774409,48.0291086 C89.1619402,48.0876651 89.4479923,48.4152409 89.4542147,48.8041237 L89.5087932,51.8932686 Z M97.1497878,68.2668284 L92.5433596,62.6452395 L89.8690115,62.6452395 L89.8690115,57.5148575 L94.6719224,57.5148575 C96.2546998,57.5148575 97.3681019,56.9909036 97.3681019,55.4627047 C97.3681019,53.9345058 96.2765312,53.4105518 94.6719224,53.4105518 L89.8690115,53.4105518 L89.8690115,47.788963 L95.3268648,47.788963 C100.11886,47.788963 104.13584,49.4590661 105.281989,53.0394178 L105.347483,53.0394178 C105.78757,53.0394178 106.14433,53.3961782 106.14433,53.8362644 L106.14433,56.8708308 C106.14433,57.310917 105.78757,57.6676774 105.347483,57.6676774 L105.347483,57.6676774 C105.304046,57.6739471 105.259933,57.6739471 105.216495,57.6676774 C104.425082,59.6828474 102.756908,61.2264108 100.686477,61.8593087 L106.264403,68.3323226 L97.1497878,68.2668284 Z M134.907216,59.130382 C134.899376,59.5264616 134.601756,59.8566335 134.208611,59.9053972 C133.280776,65.2540934 128.39054,68.2668284 121.109763,68.2668284 L108.589448,68.2668284 L108.589448,55.0151607 L116.798059,55.0151607 L116.798059,62.219527 L120.312917,62.219527 C123.827774,62.219527 125.879927,60.6913281 125.879927,58.0497271 C125.879927,55.4081261 123.827774,53.8908429 120.312917,53.8908429 L114.778654,53.8908429 C114.67465,54.2199426 114.370601,54.4446749 114.02547,54.447544 L110.979988,54.447544 C110.637739,54.4434032 110.337525,54.218242 110.23772,53.8908429 L108.589448,53.8908429 L108.589448,47.788963 L121.011522,47.788963 C127.910249,47.788963 132.658581,50.4960582 133.924803,55.3317162 L134.001213,55.3317162 C134.21255,55.3317162 134.415231,55.4156694 134.564668,55.5651071 C134.714106,55.7145449 134.798059,55.9172259 134.798059,56.1285628 L134.907216,59.130382 Z M161.46513,62.7543966 C161.45916,63.1902141 161.104142,63.5403684 160.668284,63.5403275 L160.52638,63.5403275 C159.434809,66.9132808 155.603396,68.9981807 149.119466,68.9981807 C144.248634,69.1873234 139.439164,67.8600468 135.35476,65.1995149 L139.284415,60.6804124 C142.220761,62.5393968 145.633475,63.5063322 149.108551,63.4639175 C151.520922,63.4639175 152.656155,63.1146149 152.656155,62.3723469 C152.656155,61.6300788 151.88114,61.3462705 148.530018,61.0624621 L148.530018,54.5785324 L148.737417,54.5785324 C154.402668,55.0588235 158.758035,55.9975743 160.198908,58.944815 C160.306571,58.8878951 160.426429,58.8579304 160.548211,58.8574894 C160.984069,58.8574485 161.339087,59.2076028 161.345058,59.6434203 L161.46513,62.7543966 Z M161.552456,36.8732565 C161.11237,36.8732565 160.755609,36.5164962 160.755609,36.0764099 L160.755609,33.0200121 C160.76158,32.5841947 161.116598,32.2340404 161.552456,32.2340813 L161.748939,32.2340813 L161.748939,26.667071 L154.053366,26.667071 L154.053366,20.7398423 L169.95755,20.7398423 L169.95755,21.383869 C170.307787,21.4729601 170.554216,21.7865966 170.557914,22.1479685 L170.557914,25.1061249 C170.553102,25.4647673 170.306091,25.7746539 169.95755,25.8593087 L169.95755,26.6234081 L169.95755,26.6234081 L169.95755,41.0976349 L161.803517,41.0976349 L161.803517,36.8295937 C161.721511,36.8525535 161.637398,36.8671818 161.552456,36.8732565 L161.552456,36.8732565 Z M175.742874,69.0090964 C168.10188,69.0090964 162.644027,65.2650091 162.392965,58.4754397 L170.743481,58.4754397 C170.939964,61.138872 172.926622,62.7325652 175.917526,62.7325652 C178.067024,62.8282607 180.103381,61.7663567 181.255306,59.94906 L187.80473,63.4420861 C186.090964,66.6622195 181.604609,69.0090964 175.797453,69.0090964 L175.742874,69.0090964 Z M201.296543,63.3656762 C201.290501,63.7275341 201.038135,64.0384863 200.685264,64.1188599 L200.685264,65.0794421 L196.635537,65.0794421 L195.205579,68.354154 L186.702244,68.354154 L193.055185,55.5827774 L192.902365,55.5827774 C192.708602,55.4871342 192.561989,55.316901 192.496132,55.1110984 C192.430275,54.9052957 192.450822,54.6815714 192.553062,54.4912068 L193.928441,51.7731959 C194.024085,51.5794326 194.194318,51.4328194 194.400121,51.3669625 C194.605923,51.3011057 194.829648,51.3216525 195.020012,51.4238933 C195.020012,51.4238933 195.085506,51.4784718 195.118253,51.5003032 L196.919345,47.865373 L196.919345,47.865373 L197.792602,49.797453 C198.162622,49.6795204 198.563768,49.8455117 198.742268,50.1904184 L200.063069,52.9411765 C200.167829,53.1322813 200.188535,53.358306 200.120239,53.5652639 C200.051942,53.7722218 199.900778,53.9415294 199.70285,54.0327471 L199.70285,54.0327471 L200.663432,56.2158884 L198.851425,60.2546998 L200.674348,60.2546998 L200.674348,60.8114008 C201.028915,60.8962697 201.28066,61.2109518 201.285628,61.5755003 L201.296543,63.3656762 Z M207.398423,68.2995755 L205.95755,65.0248636 L201.831413,65.0248636 L201.831413,60.0909642 L203.785324,60.0909642 L201.351122,54.633111 L201.351122,54.6986052 L198.240146,47.7780473 L205.88114,47.7780473 L209.352335,54.7531837 L209.417829,54.6986052 C209.608934,54.5938443 209.834959,54.5731391 210.041916,54.6414352 C210.248874,54.7097313 210.418182,54.8608961 210.5094,55.0588235 L211.764706,57.8532444 C211.872261,58.045066 211.893259,58.2735494 211.822467,58.4817612 C211.751675,58.6899729 211.595759,58.858306 211.393572,58.944815 L211.393572,58.944815 L216.065494,68.354154 L207.398423,68.2995755 Z M226.293511,51.9260158 C226.288189,52.3113866 226.007824,52.637713 225.627653,52.7010309 L225.627653,53.3887204 L225.627653,53.3887204 L225.627653,57.755003 L225.627653,57.755003 L225.627653,58.1043056 C226.007824,58.1676236 226.288189,58.49395 226.293511,58.8793208 L226.293511,60.8332323 C226.288189,61.2186031 226.007824,61.5449295 225.627653,61.6082474 L225.627653,62.9181322 L225.627653,62.9181322 L225.627653,68.244997 L217.440873,68.244997 L217.440873,59.654336 L217.353548,59.654336 C216.917689,59.6543769 216.562672,59.3042226 216.556701,58.8684051 L216.556701,55.8120073 C216.562672,55.3761898 216.917689,55.0260355 217.353548,55.0260764 L217.440873,55.0260764 L217.440873,47.788963 L225.682232,47.788963 L225.682232,48.1382656 C226.063047,48.1924383 226.346506,48.5177194 226.34809,48.9023651 L226.293511,51.9260158 Z M242.787221,56.8489994 C242.787221,57.2890856 242.430383,57.645846 241.990297,57.645846 C241.950423,57.6507562 241.910098,57.6507562 241.870224,57.645846 C240.778654,61.2589448 237.121892,62.9836264 231.926016,62.9836264 L226.719224,62.9836264 L226.719224,57.8532444 L231.249242,57.8532444 C232.777441,57.8532444 233.92359,57.2419648 233.92359,55.6701031 C233.92359,54.0982414 232.832019,53.4869618 231.249242,53.4869618 L226.719224,53.4869618 L226.719224,47.788963 L231.926016,47.788963 C237.089145,47.788963 240.778654,49.4918132 241.859309,53.0503335 L241.990297,53.0503335 C242.20253,53.0473648 242.406941,53.1303644 242.557027,53.2804505 C242.707113,53.4305366 242.790112,53.6349471 242.787221,53.8471801 L242.787221,56.8489994 Z M253.277138,66.7713766 C253.271815,67.1567474 252.99145,67.4830738 252.61128,67.5463918 L252.61128,68.2777441 L244.511825,68.2777441 L244.511825,47.788963 L261.136446,47.788963 L261.136446,48.160097 C261.514621,48.2240203 261.791426,48.5515726 261.791389,48.9351122 L261.791389,51.9805943 C261.78615,52.3600007 261.510588,52.6814895 261.136446,52.7446938 L261.136446,53.4869618 L252.589448,53.4869618 L252.589448,55.3862947 L261.212856,55.3862947 L261.212856,55.3862947 C261.635804,55.4095043 261.966676,55.7595575 261.966041,56.1831413 L261.966041,59.2286234 C261.966406,59.6502076 261.634074,59.9969884 261.212856,60.0145543 L261.212856,60.4620982 L252.589448,60.4620982 L252.589448,62.6452395 L252.665858,62.6452395 L252.665858,63.0163736 C253.044328,63.0748317 253.325567,63.3975639 253.331716,63.780473 L253.277138,66.7713766 Z M267.653123,68.2777441 L253.757429,68.2777441 L253.757429,62.6124924 L267.707702,62.6124924 L267.653123,68.2777441 Z M281.930867,47.0576107 C286.037921,46.9643046 290.095725,47.9665106 293.687083,49.9611886 L290.019406,54.5785324 C287.587881,53.1878656 284.817807,52.5000711 282.018193,52.5918739 C280.228017,52.5918739 278.230443,52.7665252 278.230443,53.552456 C278.230443,54.3383869 279.442086,54.4038811 281.941783,54.6440267 L281.941783,55.2771377 C282.350223,55.3055431 282.668435,55.6427536 282.673135,56.0521528 L282.673135,59.0976349 C282.668888,59.5091669 282.351946,59.8497614 281.941783,59.8835658 L281.941783,61.1170406 C275.621589,60.5385082 270.174651,59.0103093 270.174651,54.2947241 C270.174651,49.5791389 275.184961,47.0794421 281.985446,47.0794421 L281.930867,47.0576107 Z M295.302608,62.7653123 C295.302608,63.1993699 294.950734,63.5512432 294.516677,63.5512432 C294.419489,63.5510063 294.323212,63.5324916 294.232868,63.4966646 C293.141298,66.8914494 289.309885,68.9545179 282.804124,68.9545179 C277.979971,69.1116732 273.224156,67.7817216 269.181322,65.1449363 L273.110976,60.6258338 C276.047323,62.4848182 279.460036,63.4517537 282.935112,63.409339 C285.336568,63.409339 286.482717,63.0600364 286.482717,62.3177683 C286.482717,61.5755003 285.784112,61.3462705 282.989691,61.0624621 L282.989691,54.6549424 C288.447544,55.1461492 292.682838,56.1176471 294.058217,59.1085506 C294.293308,58.9228363 294.614383,58.8892539 294.882815,59.0223028 C295.151247,59.1553517 295.318953,59.4311991 295.313651,59.7307459 L295.302608,62.7653123 Z" id="Shape" fill="#00ADA4" fill-rule="nonzero"></path>
            </g>
        </g>
    </g>
</svg>