<?xml version="1.0" encoding="UTF-8"?>
<svg width="120px" height="34px" viewBox="0 0 120 34" version="1.1" xmlns="http://www.w3.org/2000/svg" xmlns:xlink="http://www.w3.org/1999/xlink">
    <title>9F781F1A-DD8F-4BB6-99DF-1B33BCA2D3C1</title>
    <g id="Home" stroke="none" stroke-width="1" fill="none" fill-rule="evenodd">
        <g transform="translate(-235.000000, -7148.000000)" id="footer/desktop">
            <g transform="translate(0.000000, 6822.000000)">
                <g id="UH-logo-largeB" transform="translate(235.000000, 326.000000)">
                    <rect id="Rectangle" fill="#FFFFFF" x="6" y="5" width="109" height="24"></rect>
                    <path d="M118.169072,5.77319588 C118.136121,5.77093106 118.103054,5.77093106 118.070103,5.77319588 L118.070103,4.7257732 C118.067828,3.09899787 116.748426,1.78144171 115.121649,1.7814433 L20.1814433,1.7814433 C20.2109516,1.67113009 20.2261962,1.55748905 20.2268041,1.44329897 L20.2268041,1.44329897 C20.2268041,0.646186959 19.5806172,0 18.7835052,0 L8.16907216,0 C7.37290027,0.00226508314 6.72803828,0.647127075 6.7257732,1.44329897 L6.7257732,1.44329897 C6.72840888,1.55733917 6.74362122,1.67074027 6.77113402,1.7814433 L4.8371134,1.7814433 C3.21033649,1.78144171 1.89093501,3.09899787 1.88865979,4.7257732 L1.88865979,14.1030928 C1.74600338,14.050377 1.5953724,14.0224824 1.44329897,14.0206186 C1.05979673,14.020617 0.692061671,14.1732443 0.421271757,14.4448079 C0.150481843,14.7163715 -5.89945425e-06,15.0845406 -5.89945425e-06,15.4680412 L-5.89945425e-06,26.0824742 C0.00226508314,26.8786461 0.647127075,27.5235081 1.44329897,27.5257732 C1.59494718,27.5232191 1.74524508,27.4967778 1.88865979,27.4474227 L1.88865979,29.3195876 C1.89093118,30.9470318 3.20966921,32.2657699 4.8371134,32.2680412 L99.9958763,32.2680412 C99.9758792,32.3601514 99.9661976,32.4542013 99.9670103,32.5484536 C99.9670103,33.3455656 100.613197,33.9917526 101.410309,33.9917526 L112.020619,33.9917526 C112.817731,33.9917526 113.463918,33.3455656 113.463918,32.5484536 C113.46473,32.4542013 113.455049,32.3601514 113.435052,32.2680412 L115.121649,32.2680412 C116.749094,32.2657699 118.067832,30.9470318 118.070103,29.3195876 L118.070103,19.3814433 L118.169072,19.3814433 C118.965244,19.3791782 119.610106,18.7343162 119.612371,17.9381443 L119.612371,7.21649485 C119.607865,6.42125664 118.96431,5.77770158 118.169072,5.77319588 L118.169072,5.77319588 Z M15.257732,18.0536082 L18.3587629,18.0536082 L18.3587629,20.2680412 L17.6618557,20.2680412 C17.629875,20.3997124 17.5128067,20.4930277 17.3773196,20.4948454 L16.2268041,20.4948454 C16.091317,20.4930277 15.9742487,20.3997124 15.942268,20.2680412 L15.257732,20.2680412 L15.257732,18.0536082 Z M13.5505155,22.4329897 C13.5489198,22.5861863 13.4310233,22.7130144 13.2783505,22.7257732 L13.2783505,23.0556701 L11.7030928,23.0556701 L11.7030928,25.8020619 L8.60206186,25.8020619 L8.60206186,20.1113402 L8.57319588,20.1113402 C8.40694109,20.1113402 8.27216495,19.9765641 8.27216495,19.8103093 L8.27216495,18.6680412 C8.27216495,18.5017864 8.40694109,18.3670103 8.57319588,18.3670103 L8.60206186,18.3670103 L8.60206186,18.0494845 L11.7030928,18.0494845 L11.7030928,20.6845361 L13.2783505,20.6845361 L13.2783505,20.9814433 C13.4310233,20.9942021 13.5489198,21.1210302 13.5505155,21.2742268 L13.5505155,22.4329897 Z M18.6309278,23.5793814 C18.6311682,23.739402 18.5061721,23.8716443 18.3463918,23.8804124 L18.3463918,25.8020619 L15.257732,25.8020619 L15.257732,23.0556701 L13.6907216,23.0556701 L13.6907216,20.6886598 L15.257732,20.6886598 L15.257732,20.6886598 L18.3587629,20.6886598 L18.3587629,22.1402062 C18.5178898,22.1468422 18.6434373,22.2778483 18.6432991,22.4371134 L18.6309278,23.5793814 Z M99.0804124,18.0536082 L101.030928,18.0536082 L101.030928,20.2061856 L99.0969072,20.2061856 L99.0804124,18.0536082 Z M77.4268041,11.1546392 C77.4268041,10.9883844 77.5615803,10.8536082 77.7278351,10.8536082 L77.7278351,10.8536082 L77.7278351,10.5195876 L80.8247423,10.5195876 L80.8247423,13.2371134 L82.1443299,13.2371134 C83.4680412,13.2371134 84.2391753,12.6639175 84.2391753,11.6701031 C84.2391753,10.6762887 83.4680412,10.1072165 82.1443299,10.1072165 L80.1979381,10.1072165 C80.1774729,10.25108 80.0545889,10.3581646 79.9092784,10.3587629 L78.7628866,10.3587629 C78.6166657,10.3584485 78.4924421,10.2517212 78.4701031,10.1072165 L77.7443299,10.1072165 L77.7443299,7.83505155 L82.4123711,7.83505155 C85.1010309,7.83505155 86.9237113,8.92783505 87.3113402,10.8824742 L87.3649485,10.8824742 C87.4447868,10.8824742 87.5213552,10.9141899 87.5778095,10.9706441 C87.6342637,11.0270984 87.6659794,11.1036668 87.6659794,11.1835052 L87.6659794,12.3340206 C87.6659794,12.5002754 87.5312032,12.6350515 87.3649485,12.6350515 C87.3403569,12.6389143 87.3153132,12.6389143 87.2907216,12.6350515 C86.8783505,14.5154639 85.0515464,15.571134 82.4123711,15.571134 L77.7278351,15.571134 L77.7278351,12.6061856 L77.7278351,12.6061856 C77.5615803,12.6061856 77.4268041,12.4714094 77.4268041,12.3051546 L77.4268041,11.1546392 Z M74.585567,7.83505155 L76.5154639,7.83505155 L76.5154639,9.97113402 L74.585567,9.97113402 L74.585567,7.83505155 Z M76.6474227,13.4061856 L76.6474227,15.542268 L71.3731959,15.542268 L71.3731959,13.3896907 L76.6474227,13.4061856 Z M67.628866,11.1546392 C67.628866,10.9883844 67.7636421,10.8536082 67.9298969,10.8536082 L67.9298969,10.8536082 L67.9298969,7.83505155 L74.1649485,7.83505155 L74.1649485,8.07010309 C74.3150045,8.08874254 74.4279479,8.21580386 74.428866,8.36701031 L74.428866,9.48453608 C74.4277083,9.63487366 74.3143601,9.76061937 74.1649485,9.77731959 L74.1649485,9.93814433 L70.9443299,9.93814433 L70.9443299,10.6515464 L74.1814433,10.6515464 L74.1814433,10.7340206 C74.3236693,10.7563247 74.4285766,10.8787164 74.428866,11.0226804 L74.428866,12.1731959 C74.428866,12.3180886 74.3243095,12.4418306 74.1814433,12.4659794 L74.1814433,12.5690722 L70.9443299,12.5690722 L70.9443299,13.3731959 L70.9443299,13.3731959 L70.9443299,13.5463918 C71.0928512,13.5648136 71.2052853,13.6895452 71.2082474,13.8391753 L71.2082474,14.9896907 C71.2070898,15.1400283 71.0937415,15.265774 70.9443299,15.2824742 L70.9443299,15.5092784 L67.9216495,15.5092784 L67.9216495,12.6020619 L67.9216495,12.6020619 C67.7553947,12.6020619 67.6206186,12.4672857 67.6206186,12.3010309 L67.628866,11.1546392 Z M70.2969072,20.4494845 L69.2783505,20.985567 C69.1647957,21.044356 69.0262244,21.0226521 68.9360825,20.9319588 L68.457732,21.1876289 C68.0304964,20.5182065 67.2801337,20.1257574 66.4865979,20.156701 C65.4061856,20.156701 64.6515464,20.7257732 64.5402062,21.6783505 L63.8680412,21.6783505 C63.8292303,21.8012542 63.7164835,21.8858143 63.5876289,21.8886598 L62.4371134,21.8886598 C62.3067307,21.8875759 62.1918676,21.8026771 62.1525773,21.6783505 L61.3814433,21.6783505 C61.5134021,19.171134 63.571134,17.785567 66.5319588,17.785567 C68.614433,17.785567 70.2845361,18.6927835 70.9484536,19.8474227 L70.4494845,20.1113402 C70.482666,20.2479126 70.415544,20.3890409 70.2886598,20.4494845 L70.2969072,20.4494845 Z M64.6185567,7.83505155 L67.0927835,7.83505155 L67.0927835,8.07010309 C67.250286,8.07886657 67.3734395,8.20926443 67.3731962,8.36701031 L67.3731962,9.48453608 C67.3712675,9.64068769 67.2487065,9.76865574 67.0927835,9.77731959 L67.0927835,10.057732 L64.6185567,10.057732 L64.6185567,7.83505155 Z M54.2804124,7.83505155 L57.3649485,7.83505155 L57.3649485,9.93814433 L56.7010309,9.93814433 C56.6826091,10.0866656 56.5578775,10.1990997 56.4082474,10.2020619 L55.257732,10.2020619 C55.1081019,10.1990997 54.9833703,10.0866656 54.9649485,9.93814433 L54.2804124,9.93814433 L54.2804124,7.83505155 Z M54.2804124,10.3670103 L57.3649485,10.3670103 L57.3649485,12.1979381 C57.5192479,12.2086691 57.6394616,12.3360597 57.6412371,12.4907216 L57.6412371,13.6453608 C57.6394616,13.8000227 57.5192479,13.9274134 57.3649485,13.9381443 L57.3649485,15.542268 L54.2804124,15.542268 L54.2804124,10.3670103 Z M55.7030928,20.6061856 L55.7030928,20.8659794 C55.8573922,20.8767103 55.9776059,21.004101 55.9793814,21.1587629 L55.9793814,22.3092784 C55.977777,22.464746 55.8580433,22.593415 55.7030928,22.6061856 L55.7030928,23.0474227 C53.4185567,22.8123711 51.4969072,22.2226804 51.4969072,20.4948454 C51.4969072,18.7670103 53.3896907,17.8020619 55.9587629,17.8020619 C57.5103824,17.7662144 59.0434849,18.1448637 60.4,18.8989691 L58.9938144,20.6185567 C58.0752383,20.0931937 57.0287661,19.8333602 55.971134,19.8680412 C55.2948454,19.8680412 54.5402062,19.9340206 54.5402062,20.2309278 C54.5402062,20.4247423 54.9237113,20.5154639 55.7030928,20.5896907 L55.7030928,20.6061856 Z M43.2206186,7.83505155 L46.4824742,7.83505155 L49.9381443,11.5463918 L49.9381443,7.83505155 L52.9113402,7.83505155 L52.9113402,10.8329897 C53.0591179,10.8516052 53.1702332,10.9768303 53.171134,11.1257732 L53.171134,12.2762887 C53.168466,12.4245483 53.0582293,12.5487833 52.9113402,12.5690722 L52.9113402,15.542268 L50.2020619,15.542268 L46.185567,11.3319588 L46.185567,11.3525773 L43.2206186,8.24742268 L43.2206186,7.83505155 Z M43.2206186,8.86185567 L44.1484536,9.83092784 C44.2685856,9.75252158 44.4273544,9.76977905 44.5278351,9.87216495 L45.3072165,10.7216495 C45.3991981,10.8195154 45.4127979,10.9674132 45.3402062,11.0804124 L46.185567,11.9587629 L46.185567,15.5381443 L43.2123711,15.5381443 L43.2206186,8.86185567 Z M37.4061856,13.3979381 C38.4659794,13.3278351 38.9030928,12.5731959 38.9030928,11.6494845 L38.9030928,7.83505155 L41.9876289,7.83505155 L41.9876289,9.59587629 C42.1467557,9.60251228 42.2723033,9.73351838 42.2721651,9.89278351 L42.2721651,11.043299 C42.2723033,11.2025641 42.1467557,11.3335702 41.9876289,11.3402062 L41.9876289,11.9092784 C41.9876289,14.2762887 40.3381443,15.7484536 37.4061856,15.8020619 L37.4061856,13.3979381 Z M32.2391753,8.48659794 C32.2407797,8.33113032 32.3605134,8.20246128 32.5154639,8.18969072 L32.5154639,7.83505155 L35.6,7.83505155 L35.6,11.6659794 C35.6,12.5690722 36.0123711,13.3154639 36.9938144,13.4061856 L36.9938144,13.8185567 C37.1244909,13.8537793 37.2155966,13.9718793 37.2164948,14.1072165 L37.2164948,15.257732 C37.2137667,15.391531 37.1230364,15.5074642 36.9938144,15.542268 L36.9938144,15.814433 C34.1402062,15.7319588 32.5154639,14.2639175 32.5154639,11.9257732 L32.5154639,9.93402062 C32.3614075,9.91942184 32.2426674,9.79182059 32.2391753,9.6371134 L32.2391753,8.48659794 Z M24.4041237,23.9381443 C24.4025109,24.0801739 24.3005307,24.2011674 24.1608247,24.2268041 L24.1608247,24.585567 L22.6185567,24.585567 L22.0783505,25.8226804 L18.8659794,25.8226804 L21.2618557,21.0061856 L21.1752577,20.9814433 C21.1020583,20.9453114 21.0466711,20.8810011 21.0217918,20.8032534 C20.9969125,20.7255058 21.0046747,20.6409877 21.043299,20.5690722 L21.5628866,19.542268 C21.5990185,19.4690686 21.6633288,19.4136814 21.7410765,19.3888021 C21.8188241,19.3639229 21.9033422,19.371685 21.9752577,19.4103093 C21.9975108,19.4230641 22.0182596,19.4382799 22.0371134,19.4556701 L22.7257732,18.0659794 L22.7505155,18.0659794 L23.0680412,18.7628866 C23.2103323,18.7116866 23.3683716,18.7756126 23.4350515,18.9113402 L23.9175258,19.9340206 C23.9919154,20.0866597 23.9293318,20.2707293 23.7773196,20.3463918 L23.7773196,20.3463918 L24.1484536,21.171134 L23.4639175,22.7010309 L24.156701,22.7010309 L24.156701,22.9113402 C24.296407,22.9369769 24.3983872,23.0579705 24.4,23.2 L24.4041237,23.9381443 Z M26.6927835,25.8020619 L26.1484536,24.5649485 L24.5649485,24.5649485 L24.5649485,22.7010309 L25.2989691,22.7010309 L24.3793814,20.6391753 L24.3793814,20.6391753 L23.2041237,18.028866 L26.0907216,18.028866 L27.3896907,20.643299 L27.3896907,20.643299 C27.4621183,20.6049572 27.5470471,20.5978008 27.6248694,20.6234822 C27.7026918,20.6491636 27.7666803,20.7054626 27.8020619,20.7793814 L28.2927835,21.8556701 C28.3329067,21.9268308 28.3419367,22.0113795 28.3177476,22.089409 C28.2935585,22.1674385 28.2382875,22.2320538 28.1649485,22.2680412 L29.9381443,25.8350515 L26.6927835,25.8020619 Z M33.814433,19.6041237 C33.8135499,19.7508033 33.7042623,19.8741926 33.5587629,19.8927835 L33.5587629,20.1773196 L33.5587629,20.1773196 L33.5587629,21.7278351 L33.5587629,21.7278351 L33.5587629,21.971134 C33.7055462,21.9935071 33.8140943,22.119563 33.814433,22.2680412 L33.814433,23.0061856 C33.8120823,23.1530969 33.7040182,23.2768477 33.5587629,23.2989691 L33.5587629,23.6824742 L33.5587629,23.6824742 L33.5587629,25.8061856 L30.457732,25.8061856 L30.457732,22.5278351 C30.4358001,22.5301566 30.4136844,22.5301566 30.3917526,22.5278351 C30.227095,22.5278505 30.0929772,22.39557 30.0907216,22.2309278 L30.0907216,21.0762887 C30.0929772,20.9116465 30.227095,20.779366 30.3917526,20.7793814 C30.4136844,20.7770599 30.4358001,20.7770599 30.457732,20.7793814 L30.457732,18.0536082 L33.5381443,18.0536082 L33.5381443,18.1443299 C33.6833996,18.1664512 33.7914638,18.2902021 33.7938144,18.4371134 L33.814433,19.6041237 Z M36.7010309,25.7896907 L34.9608247,23.6659794 L33.9505155,23.6659794 L33.9505155,21.7278351 L35.7649485,21.7278351 C36.3628866,21.7278351 36.7835052,21.5298969 36.7835052,20.9525773 C36.7835052,20.3752577 36.371134,20.1773196 35.7649485,20.1773196 L33.9505155,20.1773196 L33.9505155,18.0536082 L36.0123711,18.0536082 C37.8226804,18.0536082 39.3402062,18.6845361 39.7731959,20.0371134 L39.7979381,20.0371134 C39.9641929,20.0371134 40.0989691,20.1718895 40.0989691,20.3381443 L40.0989691,21.4845361 C40.0989691,21.6507909 39.9641929,21.785567 39.7979381,21.785567 L39.7979381,21.785567 C39.7815283,21.7879356 39.7648634,21.7879356 39.7484536,21.785567 C39.4494753,22.5468535 38.8192763,23.1299774 38.0371134,23.3690722 L40.1443299,25.814433 L36.7010309,25.7896907 Z M50.9649485,22.3381443 C50.9619863,22.4877744 50.8495522,22.612506 50.7010309,22.6309278 C50.3505155,24.6515464 48.5030928,25.7896907 45.7525773,25.7896907 L41.0226804,25.7896907 L41.0226804,20.7835052 L44.1237113,20.7835052 L44.1237113,23.5051546 L45.4515464,23.5051546 C46.7793814,23.5051546 47.5546392,22.9278351 47.5546392,21.9298969 C47.5546392,20.9319588 46.7793814,20.3587629 45.4515464,20.3587629 L43.3608247,20.3587629 C43.3215345,20.4830894 43.2066713,20.5679883 43.0762887,20.5690722 L41.9257732,20.5690722 C41.7964793,20.5675079 41.6830648,20.482447 41.6453608,20.3587629 L41.0226804,20.3587629 L41.0226804,18.0536082 L45.7154639,18.0536082 C48.3216495,18.0536082 50.1154639,19.0762887 50.5938144,20.9030928 L50.6226804,20.9030928 C50.7025188,20.9030928 50.7790872,20.9348085 50.8355414,20.9912627 C50.8919957,21.047717 50.9237113,21.1242853 50.9237113,21.2041237 L50.9649485,22.3381443 Z M60.9979381,23.7072165 C60.9956826,23.8718587 60.8615648,24.0041392 60.6969072,24.0041237 L60.643299,24.0041237 C60.2309278,25.2783505 58.7835052,26.0659794 56.3340206,26.0659794 C54.4939285,26.1374333 52.6770173,25.6360177 51.1340206,24.6309278 L52.6185567,22.9237113 C53.7278431,23.6259943 55.0170904,23.9912811 56.3298969,23.9752577 C57.2412371,23.9752577 57.6701031,23.843299 57.6701031,23.5628866 C57.6701031,23.2824742 57.3773196,23.1752577 56.1113402,23.0680412 L56.1113402,20.6185567 L56.1896907,20.6185567 C58.3298969,20.8 59.9752577,21.1546392 60.5195876,22.2680412 C60.56026,22.2465382 60.6055399,22.2352182 60.6515464,22.2350515 C60.816204,22.2350361 60.9503217,22.3673166 60.9525773,22.5319588 L60.9979381,23.7072165 Z M61.0309278,13.9298969 C60.864673,13.9298969 60.7298969,13.7951208 60.7298969,13.628866 L60.7298969,12.4742268 C60.7321525,12.3095846 60.8662702,12.1773041 61.0309278,12.1773196 L61.1051546,12.1773196 L61.1051546,10.0742268 L58.1979381,10.0742268 L58.1979381,7.83505155 L64.2061856,7.83505155 L64.2061856,8.07835052 C64.3384974,8.11200716 64.4315926,8.23049207 64.4329897,8.36701031 L64.4329897,9.48453608 C64.431172,9.62002318 64.3378567,9.73709147 64.2061856,9.76907216 L64.2061856,10.057732 L64.2061856,10.057732 L64.2061856,15.5257732 L61.1257732,15.5257732 L61.1257732,13.9134021 C61.0947932,13.9220758 61.0630172,13.927602 61.0309278,13.9298969 L61.0309278,13.9298969 Z M66.3917526,26.0701031 C63.5051546,26.0701031 61.443299,24.6556701 61.3484536,22.0907216 L64.5030928,22.0907216 C64.5773196,23.0969072 65.3278351,23.6989691 66.457732,23.6989691 C67.2697645,23.7351207 68.039055,23.333957 68.4742268,22.6474227 L70.9484536,23.9670103 C70.3010309,25.1835052 68.6061856,26.0701031 66.4123711,26.0701031 L66.3917526,26.0701031 Z M76.0453608,23.9381443 C76.0430783,24.0748462 75.9477397,24.192317 75.814433,24.2226804 L75.814433,24.585567 L74.2845361,24.585567 L73.7443299,25.8226804 L70.5319588,25.8226804 L72.9319588,20.9979381 L72.8742268,20.9979381 C72.8010273,20.9618062 72.7456401,20.8974959 72.7207609,20.8197483 C72.6958816,20.7420006 72.7036437,20.6574825 72.742268,20.585567 L73.2618557,19.5587629 C73.2979876,19.4855634 73.3622979,19.4301762 73.4400455,19.405297 C73.5177932,19.3804177 73.6023113,19.3881798 73.6742268,19.4268041 C73.6742268,19.4268041 73.6989691,19.4474227 73.7113402,19.4556701 L74.3917526,18.0824742 L74.3917526,18.0824742 L74.7216495,18.8123711 C74.8614349,18.7678188 75.0129789,18.8305267 75.0804124,18.9608247 L75.5793814,20 C75.6189578,20.0721952 75.6267797,20.1575823 75.600979,20.2357664 C75.5751782,20.3139505 75.5180715,20.3779111 75.443299,20.4123711 L75.443299,20.4123711 L75.8061856,21.2371134 L75.1216495,22.7628866 L75.8103093,22.7628866 L75.8103093,22.9731959 C75.9442567,23.0052575 76.0393606,23.1241374 76.0412371,23.2618557 L76.0453608,23.9381443 Z M78.3505155,25.8020619 L77.8061856,24.5649485 L76.2474227,24.5649485 L76.2474227,22.7010309 L76.985567,22.7010309 L76.0659794,20.6391753 L76.0659794,20.6639175 L74.8907216,18.0494845 L77.7773196,18.0494845 L79.0886598,20.6845361 L79.1134021,20.6639175 C79.1855972,20.6243412 79.2709843,20.6165192 79.3491684,20.64232 C79.4273525,20.6681207 79.4913132,20.7252274 79.5257732,20.8 L80,21.8556701 C80.0406319,21.928136 80.0485644,22.014452 80.0218208,22.0931098 C79.9950771,22.1717676 79.9361758,22.23536 79.8597938,22.2680412 L79.8597938,22.2680412 L81.6247423,25.8226804 L78.3505155,25.8020619 Z M85.4886598,19.6164948 C85.4866491,19.7620794 85.3807335,19.8853582 85.2371134,19.9092784 L85.2371134,20.1690722 L85.2371134,20.1690722 L85.2371134,21.8185567 L85.2371134,21.8185567 L85.2371134,21.9505155 C85.3807335,21.9744356 85.4866491,22.0977144 85.4886598,22.243299 L85.4886598,22.9814433 C85.4866491,23.1270278 85.3807335,23.2503067 85.2371134,23.2742268 L85.2371134,23.7690722 L85.2371134,23.7690722 L85.2371134,25.7814433 L82.1443299,25.7814433 L82.1443299,22.5360825 L82.1113402,22.5360825 C81.9466826,22.5360979 81.8125649,22.4038174 81.8103093,22.2391753 L81.8103093,21.0845361 C81.8125649,20.9198939 81.9466826,20.7876134 82.1113402,20.7876289 L82.1443299,20.7876289 L82.1443299,18.0536082 L85.257732,18.0536082 L85.257732,18.185567 C85.4015954,18.2060322 85.50868,18.3289162 85.5092784,18.4742268 L85.4886598,19.6164948 Z M91.7196167,21.4762887 C91.7196167,21.6425435 91.5848115,21.7773196 91.4185567,21.7773196 C91.4034933,21.7791746 91.3882593,21.7791746 91.3731959,21.7773196 C90.9608247,23.142268 89.5793814,23.7938144 87.6164948,23.7938144 L85.6494845,23.7938144 L85.6494845,21.8556701 L87.3608247,21.8556701 C87.9381443,21.8556701 88.371134,21.6247423 88.371134,21.0309278 C88.371134,20.4371134 87.9587629,20.2061856 87.3608247,20.2061856 L85.6494845,20.2061856 L85.6494845,18.0536082 L87.6164948,18.0536082 C89.5670103,18.0536082 90.9608247,18.6969072 91.3690722,20.0412371 L91.4185567,20.0412371 C91.4987336,20.0401156 91.5759554,20.071471 91.6326546,20.1281702 C91.6893538,20.1848694 91.7207091,20.2620911 91.7196167,20.342268 L91.7196167,21.4762887 Z M95.6824742,25.2247423 C95.6804636,25.3703268 95.5745479,25.4936057 95.4309278,25.5175258 L95.4309278,25.7938144 L92.371134,25.7938144 L92.371134,18.0536082 L98.6515464,18.0536082 L98.6515464,18.1938144 C98.7944126,18.2179632 98.8989832,18.3417052 98.8989691,18.4865979 L98.8989691,19.6371134 C98.8969899,19.7804447 98.7928888,19.901896 98.6515464,19.9257732 L98.6515464,20.2061856 L95.4226804,20.2061856 L95.4226804,20.9237113 L98.6804124,20.9237113 L98.6804124,20.9237113 C98.8401927,20.9324794 98.9651889,21.0647217 98.9649488,21.2247423 L98.9649488,22.3752577 C98.9650868,22.5345229 98.8395392,22.665529 98.6804124,22.6721649 L98.6804124,22.8412371 L95.4226804,22.8412371 L95.4226804,23.6659794 L95.4515464,23.6659794 L95.4515464,23.8061856 C95.5945241,23.8282698 95.7007696,23.9501908 95.7030928,24.0948454 L95.6824742,25.2247423 Z M101.113402,25.7938144 L95.8639175,25.7938144 L95.8639175,23.6536082 L101.134021,23.6536082 L101.113402,25.7938144 Z M106.507216,17.7773196 C108.05877,17.7420706 109.591718,18.1206818 110.948454,18.8742268 L109.562887,20.6185567 C108.64431,20.0931937 107.597838,19.8333602 106.540206,19.8680412 C105.863918,19.8680412 105.109278,19.9340206 105.109278,20.2309278 C105.109278,20.5278351 105.56701,20.5525773 106.51134,20.643299 L106.51134,20.8824742 C106.66564,20.8932052 106.785853,21.0205958 106.787629,21.1752577 L106.787629,22.3257732 C106.786024,22.4812408 106.666291,22.6099099 106.51134,22.6226804 L106.51134,23.0886598 C104.123711,22.8701031 102.065979,22.2927835 102.065979,20.5113402 C102.065979,18.7298969 103.958763,17.785567 106.527835,17.785567 L106.507216,17.7773196 Z M111.558763,23.7113402 C111.558763,23.8753175 111.425833,24.0082474 111.261856,24.0082474 C111.22514,24.0081579 111.188769,24.0011635 111.154639,23.9876289 C110.742268,25.2701031 109.294845,26.0494845 106.837113,26.0494845 C105.014656,26.1088543 103.218014,25.6064282 101.690722,24.6103093 L103.175258,22.9030928 C104.284544,23.6053758 105.573791,23.9706625 106.886598,23.9546392 C107.793814,23.9546392 108.226804,23.8226804 108.226804,23.542268 C108.226804,23.2618557 107.962887,23.1752577 106.907216,23.0680412 L106.907216,20.6474227 C108.969072,20.8329897 110.569072,21.2 111.08866,22.3298969 C111.177472,22.2597382 111.298767,22.2470515 111.400175,22.2973144 C111.501582,22.3475773 111.564938,22.4517863 111.562935,22.5649485 L111.558763,23.7113402 Z" id="Shape" fill="#00ADA4" fill-rule="nonzero"></path>
                </g>
            </g>
        </g>
    </g>
</svg>