<?xml version="1.0" encoding="UTF-8"?>
<svg width="21px" height="19px" viewBox="0 0 21 19" version="1.1" xmlns="http://www.w3.org/2000/svg" xmlns:xlink="http://www.w3.org/1999/xlink">
    <!-- Generator: Sketch 64 (93537) - https://sketch.com -->
    <title>icon_Heart</title>
    <desc>Created with Sketch.</desc>
    <g id="Desktop" stroke="none" stroke-width="1" fill="none" fill-rule="evenodd">
        <g id="Services_desktop" transform="translate(-857.000000, -915.000000)" fill="#FFFFFF" stroke="#FFFFFF">
            <g id="button_like" transform="translate(840.000000, 896.000000)">
                <g id="icon_Heart" transform="translate(18.000000, 20.000000)">
                    <g id="heart">
                        <path d="M9.54385965,16.9819422 C9.2721183,16.9819422 9.01013399,16.8834978 8.80596387,16.7046669 C8.03486501,16.0304105 7.29143537,15.3967842 6.63552802,14.8378649 L6.63217861,14.8349524 C4.70916426,13.1962034 3.04857115,11.780993 1.89316064,10.3868986 C0.601588208,8.82839057 0,7.35070587 0,5.73642236 C0,4.16801157 0.537803239,2.72105434 1.51423727,1.66190378 C2.50232149,0.590229226 3.85811574,1.05958127e-15 5.33230537,1.05958127e-15 C6.43412488,1.05958127e-15 7.44317949,0.348341557 8.33136306,1.0352676 C8.77960526,1.38200725 9.18590668,1.8063665 9.54385965,2.3013552 C9.90195827,1.8063665 10.308114,1.38200725 10.7565019,1.0352676 C11.6446854,0.348341557 12.6537401,1.05958127e-15 13.7555595,1.05958127e-15 C15.2296036,1.05958127e-15 16.5855434,0.590229226 17.5736277,1.66190378 C18.5500617,2.72105434 19.0877193,4.16801157 19.0877193,5.73642236 C19.0877193,7.35070587 18.4862767,8.82839057 17.1947043,10.386753 C16.0392938,11.780993 14.3788463,13.1960578 12.4561232,14.8346611 C11.7990509,15.3944542 11.0544562,16.0290998 10.2816098,16.7049582 C10.0775853,16.8834978 9.81545538,16.9819422 9.54385965,16.9819422 L9.54385965,16.9819422 Z M5.33230537,1.11812982 C4.17412796,1.11812982 3.11017166,1.58035225 2.33616021,2.41975055 C1.55064419,3.27181847 1.11798416,4.44965564 1.11798416,5.73642236 C1.11798416,7.09410977 1.62258431,8.30835389 2.75396622,9.67346832 C3.84748492,10.9930013 5.47400116,12.3790861 7.35725911,13.9840495 L7.36075417,13.9869621 C8.01913718,14.5480657 8.76547938,15.1841677 9.54225773,15.8633755 C10.3236962,15.182857 11.0712034,14.5457357 11.730897,13.9837582 C13.6140094,12.3787949 15.24038,10.9930013 16.3338987,9.67346832 C17.465135,8.30835389 17.9697351,7.09410977 17.9697351,5.73642236 C17.9697351,4.44965564 17.5370751,3.27181847 16.7515591,2.41975055 C15.9776933,1.58035225 14.9135913,1.11812982 13.7555595,1.11812982 C12.9071323,1.11812982 12.1281695,1.38783236 11.4403697,1.9196649 C10.8274226,2.39382883 10.400442,2.99323257 10.1501079,3.41264047 C10.021373,3.62831518 9.79477626,3.75705011 9.54385965,3.75705011 C9.29294304,3.75705011 9.06634628,3.62831518 8.93761135,3.41264047 C8.68742291,2.99323257 8.26044237,2.39382883 7.64734957,1.9196649 C6.95954977,1.38783236 6.18058696,1.11812982 5.33230537,1.11812982 Z" id="Shape" stroke-width="0.6" fill-rule="nonzero"></path>
                    </g>
                </g>
            </g>
        </g>
    </g>
</svg>