<?xml version="1.0" encoding="UTF-8"?>
<svg width="55px" height="55px" viewBox="0 0 55 55" version="1.1" xmlns="http://www.w3.org/2000/svg" xmlns:xlink="http://www.w3.org/1999/xlink">
    <!-- Generator: Sketch 64 (93537) - https://sketch.com -->
    <title>Group 2</title>
    <desc>Created with Sketch.</desc>
    <g id="Desktop" stroke="none" stroke-width="1" fill="none" fill-rule="evenodd">
        <g id="IdeaBoard_desktop" transform="translate(-513.000000, -1007.000000)">
            <g id="button_likeSelected" transform="translate(513.000000, 1007.000000)">
                <g id="Group-2">
                    <circle id="Oval" stroke="#07A39D" stroke-width="2" fill="#07A39D" cx="27.5" cy="27.5" r="26.5"></circle>
                    <g id="icon_HeartFilled" transform="translate(18.000000, 20.000000)" fill="#FFFFFF" fill-rule="nonzero" stroke="#FFFFFF" stroke-width="0.6">
                        <path d="M9.54385965,16.9819422 C9.2721183,16.9819422 9.01013399,16.8834978 8.80596388,16.7046669 C8.03486501,16.0304105 7.29143537,15.3967842 6.63552802,14.8378649 L6.63217861,14.8349524 C4.70916426,13.1962034 3.04857115,11.780993 1.89316064,10.3868986 C0.601588208,8.82839057 2.73558953e-13,7.35070587 2.73558953e-13,5.73642236 C2.73558953e-13,4.16801157 0.537803239,2.72105434 1.51423727,1.66190378 C2.50232149,0.590229226 3.85811574,3.19744231e-14 5.33230537,3.19744231e-14 C6.43412488,3.19744231e-14 7.44317949,0.348341557 8.33136306,1.0352676 C8.77960526,1.38200725 9.18590668,1.8063665 9.54385965,2.3013552 C9.90195827,1.8063665 10.308114,1.38200725 10.7565019,1.0352676 C11.6446854,0.348341557 12.6537401,3.19744231e-14 13.7555595,3.19744231e-14 C15.2296036,3.19744231e-14 16.5855434,0.590229226 17.5736277,1.66190378 C18.5500617,2.72105434 19.0877193,4.16801157 19.0877193,5.73642236 C19.0877193,7.35070587 18.4862767,8.82839057 17.1947043,10.386753 C16.0392938,11.780993 14.3788463,13.1960578 12.4561232,14.8346611 C11.7990509,15.3944542 11.0544562,16.0290998 10.2816098,16.7049582 C10.0775853,16.8834978 9.81545538,16.9819422 9.54385965,16.9819422 L9.54385965,16.9819422 Z" id="Shape"></path>
                    </g>
                </g>
            </g>
        </g>
    </g>
</svg>