<?xml version="1.0" encoding="UTF-8"?>
<svg width="260px" height="91px" viewBox="0 0 260 91" version="1.1" xmlns="http://www.w3.org/2000/svg" xmlns:xlink="http://www.w3.org/1999/xlink">
    <title>7FD10ED5-E036-4989-90ED-152CF5A585E4</title>
    <g id="Partners" stroke="none" stroke-width="1" fill="none" fill-rule="evenodd">
        <g transform="translate(-944.000000, -2187.000000)" fill-rule="nonzero" id="UH-authorized">
            <g transform="translate(944.000000, 2187.000000)">
                <path d="M256.291321,55.5566038 L256.291321,55.5566038 C256.369811,55.5566038 256.443396,55.5566038 256.526792,55.5566038 C258.441642,55.5485411 259.991937,53.9982462 260,52.0833962 L260,17.3562264 C259.991937,15.4413764 258.441642,13.8910815 256.526792,13.8830189 C256.443396,13.8830189 256.369811,13.8830189 256.291321,13.9075472 L256.291321,11.3762264 C256.288625,7.46349358 253.120273,4.29075268 249.207547,4.28264151 L48.5660377,4.28264151 C48.6304836,4.01752144 48.6650385,3.74601842 48.6690566,3.47320755 L48.6690566,3.47320755 C48.66635,1.55421472 47.1099381,-1.38773163e-05 45.1909434,-1.38773163e-05 L19.6815094,-1.38773163e-05 C18.7577543,-0.00260579218 17.870799,0.36185734 17.2157655,1.0132109 C16.5607319,1.66456445 16.1912777,2.54945238 16.1886792,3.47320755 L16.1886792,3.47320755 C16.1919055,3.74638206 16.2281432,4.01816491 16.2966038,4.28264151 L11.6362264,4.28264151 C7.72158487,4.28805128 4.55024878,7.46158206 4.54754717,11.3762264 L4.54754717,33.9422642 C4.20164799,33.8233033 3.83896357,33.7603718 3.47320755,33.7558491 C1.56405622,33.7638368 0.0160944128,35.3052394 0,37.2143396 L0,55.5566038 L256.291321,55.5566038 Z" id="Path" fill="#00ADA4"></path>
                <path d="M0,55.6449057 L0,71.6766038 C0.00538951918,73.5925665 1.55724484,75.1444218 3.47320755,75.1498113 C3.83896357,75.1452886 4.20164799,75.0823571 4.54754717,74.9633962 L4.54754717,79.4716981 C4.55025291,83.3855463 7.72237827,86.5576716 11.6362264,86.5603774 L212.802642,86.5603774 C212.596478,87.5808793 212.859654,88.6400148 213.519499,89.4453298 C214.179344,90.2506448 215.166052,90.7169445 216.20717,90.7154752 L241.716604,90.7154752 C242.757721,90.7169445 243.74443,90.2506448 244.404275,89.4453298 C245.06412,88.6400148 245.327295,87.5808793 245.121132,86.5603774 L249.207547,86.5603774 C253.11836,86.552273 256.285924,83.3825156 256.291321,79.4716981 L256.291321,55.6449057 L0,55.6449057 Z" id="Path" fill="#F18F01"></path>
                <path d="M44.1901887,38.8626415 L46.4811321,38.8626415 C46.7502415,38.8588501 46.9825113,38.6730343 47.045283,38.4113208 L48.4041509,38.4113208 L48.4041509,33.9962264 L42.2475472,33.9962264 L42.2475472,38.4113208 L43.6260377,38.4113208 C43.6888095,38.6730343 43.9210792,38.8588501 44.1901887,38.8626415 Z M38.3328302,39.8437736 L38.3328302,39.245283 L35.2079245,39.245283 L35.2079245,34.0109434 L29.0464151,34.0109434 L29.0464151,34.6486792 C29.0268936,34.6458616 29.0070687,34.6458616 28.9875472,34.6486792 C28.6589273,34.6513729 28.3939623,34.9185389 28.3939623,35.2471698 L28.3939623,37.5332075 C28.3939623,37.8618384 28.6589273,38.1290044 28.9875472,38.1316981 C29.0070687,38.1345158 29.0268936,38.1345158 29.0464151,38.1316981 L29.0464151,49.414717 L35.2079245,49.414717 L35.2079245,43.9498113 L38.3328302,43.9498113 L38.3328302,43.2924528 C38.6376279,43.267203 38.8733473,43.0144947 38.8773585,42.7086792 L38.8773585,40.4226415 C38.8735763,40.1158466 38.6384008,39.8616029 38.3328302,39.8339623 L38.3328302,39.8437736 Z M48.4041509,42.1249057 L48.4041509,39.245283 L42.2475472,39.245283 L42.2475472,39.245283 L39.1520755,39.245283 L39.1520755,43.9498113 L42.2475472,43.9498113 L42.2475472,49.4049057 L48.4041509,49.4049057 L48.4041509,45.5833962 C48.7201648,45.5654166 48.9685719,45.3063023 48.9732075,44.9898113 L48.9732075,42.7037736 C48.9708611,42.3871916 48.7204716,42.1281679 48.4041509,42.1150943 L48.4041509,42.1249057 Z M212.601509,34.0109434 L208.760377,34.0109434 L208.760377,38.2641509 L212.601509,38.2641509 L212.601509,34.0109434 Z M166.350943,23.1890566 L166.350943,23.1890566 L166.350943,28.9924528 L175.622642,28.9924528 C180.856981,28.9924528 184.45283,26.8977358 185.301509,23.1596226 C185.479372,23.2196832 185.675412,23.188158 185.825478,23.0753635 C185.975544,22.962569 186.060324,22.7830198 186.052075,22.5954717 L186.052075,20.309434 C186.052087,19.9808031 185.78711,19.7136371 185.458491,19.7109434 C185.422569,19.708172 185.386488,19.708172 185.350566,19.7109434 C184.580377,15.8354717 180.96,13.6622642 175.622642,13.6622642 L166.350943,13.6622642 L166.350943,18.2098113 L167.773585,18.2098113 C167.821361,18.4924643 168.065792,18.6996089 168.352453,18.7003774 L170.638491,18.7003774 C170.925152,18.6996089 171.169582,18.4924643 171.217358,18.2098113 L175.083019,18.2098113 C177.707547,18.2098113 179.238113,19.3479245 179.238113,21.3150943 C179.238113,23.2822642 177.707547,24.4203774 175.083019,24.4203774 L172.458491,24.4203774 L172.458491,19.0241509 L166.350943,19.0241509 L166.350943,19.6864151 L166.350943,19.6864151 C166.020406,19.6864151 165.752453,19.9543684 165.752453,20.2849057 L165.752453,22.5709434 C165.747135,22.7330449 165.807835,22.8903637 165.920655,23.006883 C166.033475,23.1234023 166.188755,23.1891438 166.350943,23.1890566 Z M163.942264,13.6818868 L160.110943,13.6818868 L160.110943,17.925283 L163.942264,17.925283 L163.942264,13.6818868 Z M153.723774,28.9924528 L164.182642,28.9924528 L164.182642,24.7490566 L153.723774,24.7490566 L153.723774,28.9924528 Z M146.855849,23.1890566 L146.890189,23.1890566 L146.890189,28.9924528 L152.889811,28.9924528 L152.889811,28.5411321 C153.192984,28.5181419 153.427749,28.2663026 153.429434,27.9622642 L153.429434,25.6762264 C153.426498,25.3771936 153.201569,25.1270389 152.904528,25.0924528 L152.904528,24.7490566 L152.904528,24.7490566 L152.904528,23.1498113 L159.330943,23.1498113 L159.330943,22.9437736 C159.613596,22.8959976 159.820741,22.6515669 159.821509,22.3649057 L159.821509,20.0788679 C159.820373,19.7933162 159.612834,19.5504961 159.330943,19.5049057 L159.330943,19.3430189 L152.904528,19.3430189 L152.904528,17.925283 L159.281887,17.925283 L159.281887,17.6064151 C159.578927,17.571829 159.803856,17.3216743 159.806792,17.0226415 L159.806792,14.7169811 C159.803856,14.4179483 159.578927,14.1677936 159.281887,14.1332075 L159.281887,13.6426415 L146.904906,13.6426415 L146.904906,19.6766038 L146.870566,19.6766038 C146.541946,19.6792975 146.27697,19.9464635 146.276981,20.2750943 L146.276981,22.5611321 C146.267519,22.7244213 146.325854,22.8843787 146.438215,23.0032398 C146.550576,23.1221008 146.707003,23.1893306 146.870566,23.1890566 L146.855849,23.1890566 Z M144.079245,33.4909434 C138.192453,33.4909434 134.110943,36.2381132 133.855849,41.2222642 L135.396226,41.2222642 C135.474413,41.46575 135.699753,41.6317906 135.955472,41.6343396 L138.241509,41.6343396 C138.512104,41.6429697 138.754253,41.4674118 138.830189,41.2075472 L140.159623,41.2075472 C140.385283,39.3139623 141.881509,38.1807547 144.030189,38.1807547 C145.608316,38.1195625 147.101093,38.8976723 147.954717,40.2264151 L148.901509,39.7358491 C149.083647,39.9159496 149.361339,39.9576034 149.588302,39.8388679 L151.584906,38.754717 C151.811584,38.6333711 151.934367,38.3798829 151.889057,38.1267925 L152.870189,37.6018868 C151.550566,35.2864151 148.229434,33.4811321 144.093962,33.4811321 L144.079245,33.4909434 Z M145.222264,17.6211321 C145.530857,17.5981199 145.769998,17.3418974 145.771698,17.0324528 L145.771698,14.7169811 C145.769998,14.4075366 145.530857,14.1513141 145.222264,14.1283019 L145.222264,13.6622642 L140.301887,13.6622642 L140.301887,18.1509434 L145.207547,18.1509434 L145.222264,17.6211321 Z M121.704528,18.4256604 L123.990566,18.4256604 C124.305069,18.4400737 124.575244,18.2044814 124.603774,17.8909434 L125.918491,17.8909434 L125.918491,13.6818868 L119.776604,13.6818868 L119.776604,17.8909434 L121.135472,17.8909434 C121.170058,18.1879839 121.420212,18.4129129 121.719245,18.4158491 L121.704528,18.4256604 Z M125.884151,25.8184906 C126.194679,25.7979206 126.436599,25.541014 126.438491,25.2298113 L126.438491,22.9339623 C126.436599,22.6227596 126.194679,22.365853 125.884151,22.345283 L125.884151,18.7101887 L119.776604,18.7101887 L119.776604,29.0120755 L125.898868,29.0120755 L125.884151,25.8184906 Z M123.122264,37.5920755 C125.221756,37.5140408 127.301336,38.0237418 129.126792,39.0637736 L131.918113,35.6298113 C129.587925,34.1581132 126.286415,33.4516981 123.087925,33.4516981 C117.986038,33.4516981 114.223396,35.345283 114.223396,38.7939623 C114.223396,42.2426415 118.04,43.4003774 122.563019,43.8713208 L122.563019,43.0226415 C122.88045,43.0120547 123.132252,42.7515694 123.132075,42.4339623 L123.132075,40.1479245 C123.130383,39.8411831 122.89343,39.5871522 122.587547,39.5641509 L122.587547,39.0490566 C121.032453,38.8969811 120.276981,38.7203774 120.276981,38.2984906 C120.296604,37.7049057 121.79283,37.5724528 123.132075,37.5724528 L123.122264,37.5920755 Z M103.715472,20.6577358 L111.677358,28.9973585 L117.073585,28.9973585 L117.073585,23.110566 C117.356999,23.0606208 117.563761,22.8145736 117.564151,22.5267925 L117.564151,20.2162264 C117.563383,19.9295652 117.356238,19.6851345 117.073585,19.6373585 L117.073585,13.6818868 L111.186792,13.6818868 L111.186792,21.0403774 L104.318868,13.6818868 L97.8139623,13.6818868 L97.8139623,14.5403774 L103.700755,20.7018868 L103.715472,20.6577358 Z M103.715472,21.8841509 L102.037736,20.1132075 C102.174967,19.8895267 102.149035,19.6022791 101.973962,19.4067925 L100.418868,17.7290566 C100.224057,17.5197999 99.9063586,17.4824236 99.6683019,17.6407547 L97.8286792,15.7177358 L97.8286792,28.9924528 L103.715472,28.9924528 L103.715472,21.8841509 Z M95.3758491,21.7762264 L95.3758491,20.6479245 C95.6910817,20.632439 95.9401118,20.3748216 95.9449057,20.0592453 L95.9449057,17.7732075 C95.9450031,17.4456248 95.6837118,17.1778011 95.3562264,17.1698113 L95.3562264,13.6818868 L89.2339623,13.6818868 L89.2339623,21.290566 C89.2339623,23.1449057 88.3656604,24.6264151 86.2611321,24.7637736 L86.2611321,29.5075472 C92.0596226,29.4045283 95.3562264,26.490566 95.3562264,21.7762264 L95.3758491,21.7762264 Z M76.5283019,17.8811321 L76.5283019,21.7762264 C76.5283019,26.4218868 79.7513208,29.3309434 85.4222642,29.4977358 L85.4222642,28.9433962 C85.6827942,28.8767348 85.8659598,28.643249 85.8686792,28.3743396 L85.8686792,26.1030189 C85.8654551,25.8353405 85.682032,25.6035421 85.4222642,25.5388679 L85.4222642,24.7490566 C83.46,24.5283019 82.650566,23.0860377 82.650566,21.290566 L82.650566,13.6818868 L76.5283019,13.6818868 L76.5283019,14.4226415 C76.2224194,14.4456428 75.9854662,14.6996737 75.9837736,15.0064151 L75.9837736,17.2973585 C75.9854662,17.6040999 76.2224194,17.8581308 76.5283019,17.8811321 L76.5283019,17.8811321 Z M59.9422642,43.6603774 L59.9422642,43.2483019 L58.5637736,43.2483019 L59.9226415,40.2264151 L59.1818868,38.5781132 L59.2162264,38.5781132 C59.5104515,38.4310137 59.632641,38.0753549 59.4909434,37.7784906 L58.5098113,35.7230189 C58.3758084,35.4540133 58.061896,35.3276056 57.7788679,35.4286792 L57.1509434,34.0403774 L57.1067925,34.0403774 L55.7135849,36.7924528 C55.5838242,36.65489 55.393333,36.5922218 55.2072449,36.6258761 C55.0211569,36.6595303 54.8646812,36.7849478 54.7913208,36.9592453 L53.7562264,38.9950943 C53.6098396,39.2906018 53.7278145,39.6488959 54.0211321,39.7996226 C54.075177,39.8255714 54.1332342,39.8421592 54.1928302,39.8486792 L49.4343396,49.4196226 L55.8116981,49.4196226 L56.9056604,46.9864151 L59.9569811,46.9864151 L59.9569811,46.2701887 C60.2360274,46.2230759 60.4420632,45.9840744 60.4475472,45.7011321 L60.4475472,44.229434 C60.4408461,43.941745 60.2271401,43.7010663 59.9422642,43.6603774 L59.9422642,43.6603774 Z M68.1886792,41.5362264 L67.2075472,39.4807547 C67.13968,39.3378851 67.0175992,39.2280104 66.8683957,39.1755128 C66.7191923,39.1230153 66.555207,39.1322372 66.4128302,39.2011321 L66.4128302,39.2011321 L63.7735849,34.0109434 L58.0339623,34.0109434 L60.3690566,39.2011321 L60.3690566,39.1569811 L62.1939623,43.2483019 L60.7222642,43.2483019 L60.7222642,46.9864151 L63.8471698,46.9864151 L64.9264151,49.4049057 L71.3920755,49.4049057 L67.8698113,42.3162264 C68.1721421,42.1877878 68.314452,41.8396759 68.1886792,41.5362264 Z M78.6033962,34.2267925 L78.6033962,34.0109434 L72.4615094,34.0109434 L72.4615094,39.4758491 C72.419186,39.4591173 72.374483,39.4491833 72.3290566,39.4464151 C71.9985194,39.4464151 71.730566,39.7143684 71.730566,40.0449057 L71.730566,42.3309434 C71.7332597,42.6595632 72.0004257,42.9245393 72.3290566,42.9245283 C72.3730841,42.9291979 72.417482,42.9291979 72.4615094,42.9245283 L72.4615094,49.429434 L78.5788679,49.429434 L78.5788679,45.1811321 L78.5788679,45.1811321 L78.5788679,44.4207547 C78.8604708,44.371142 79.0666815,44.1278134 79.069434,43.8418868 L79.069434,42.3701887 C79.0666815,42.084262 78.8604708,41.8409334 78.5788679,41.7913208 L78.5788679,41.3007547 L78.5788679,41.3007547 L78.5788679,38.2298113 L78.5788679,38.2298113 L78.5788679,37.670566 C78.8604708,37.6209534 79.0666815,37.3776248 79.069434,37.0916981 L79.069434,34.8301887 C79.0809406,34.5343031 78.8708733,34.2759203 78.5788679,34.2267925 L78.6033962,34.2267925 Z M90.9656604,41.3988679 C90.9998155,41.4039027 91.0345242,41.4039027 91.0686792,41.3988679 C91.3972991,41.3961742 91.6622752,41.1290082 91.6622642,40.8003774 L91.6622642,38.5388679 C91.6622752,38.2102371 91.3972991,37.9430711 91.0686792,37.9403774 L91.014717,37.9403774 C90.1562264,35.2569811 87.1490566,34.0158491 83.5483019,34.0158491 L79.4226415,34.0158491 L79.4226415,38.234717 L83.0233962,38.234717 C84.210566,38.234717 85.0445283,38.6320755 85.0445283,39.7750943 C85.0445283,40.9181132 84.210566,41.3154717 83.0233962,41.3154717 L79.4226415,41.3154717 L79.4226415,45.1811321 L81.350566,45.1811321 L84.7845283,49.4049057 L91.7358491,49.4049057 L87.5562264,44.5433962 C89.1849057,43.9449057 90.4064151,42.9049057 90.9411321,41.3988679 L90.9656604,41.3988679 Z M112.550566,39.6622642 L112.491698,39.6622642 C111.544906,36.0271698 107.978491,33.9962264 102.807925,33.9962264 L93.4871698,33.9962264 L93.4871698,38.5683019 L94.6792453,38.5683019 C94.7543641,38.8146734 94.9809271,38.983602 95.2384906,38.985283 L97.5245283,38.985283 C97.7820918,38.983602 98.0086548,38.8146734 98.0837736,38.5683019 L102.238868,38.5683019 C104.883019,38.5683019 106.418491,39.7113208 106.418491,41.6932075 C106.418491,43.6750943 104.883019,44.8181132 102.238868,44.8181132 L99.5849057,44.8181132 L99.5849057,39.4218868 L93.4430189,39.4218868 L93.4430189,49.3950943 L102.763774,49.3950943 C108.218868,49.3950943 111.888302,47.1335849 112.575094,43.1158491 C112.870307,43.0815106 113.094622,42.8341355 113.1,42.5369811 L113.1,40.2607547 C113.1,39.9340115 112.83802,39.6676206 112.511321,39.6622642 L112.550566,39.6622642 Z M132.45283,42.38 C132.360458,42.3824754 132.269864,42.4059628 132.187925,42.4486792 C131.103774,40.1920755 127.841509,39.505283 123.583396,39.1324528 L123.436226,39.1324528 L123.436226,43.9890566 C125.943019,44.2049057 126.531698,44.4501887 126.531698,44.9701887 C126.531698,45.4901887 125.673208,45.7796226 123.87283,45.7796226 C121.27008,45.8050697 118.715196,45.0794827 116.51434,43.6898113 L113.570943,47.0796226 C116.121887,48.9045283 119.727547,49.9396226 123.799245,49.9396226 C128.660755,49.9396226 131.56,48.3796226 132.359623,45.8433962 C132.395544,45.8461676 132.431626,45.8461676 132.467547,45.8433962 C132.795375,45.8433962 133.061132,45.5776392 133.061132,45.2498113 L133.061132,42.9784906 C133.061132,42.8180464 132.996754,42.664312 132.882384,42.5517869 C132.768014,42.4392618 132.613253,42.3773698 132.45283,42.38 Z M139.463019,28.9924528 L139.463019,18.1509434 L139.497358,18.1509434 L139.497358,17.5916981 C139.757889,17.5250367 139.941054,17.2915509 139.943774,17.0226415 L139.943774,14.7169811 C139.941054,14.4480718 139.757889,14.2145859 139.497358,14.1479245 L139.497358,13.6573585 L127.54717,13.6573585 L127.54717,18.1509434 L133.321132,18.1509434 L133.321132,22.3698113 C133.273949,22.3514553 133.224397,22.3398933 133.173962,22.3354717 C132.843425,22.3354717 132.575472,22.6034251 132.575472,22.9339623 L132.575472,25.22 C132.575472,25.5505372 132.843425,25.8184906 133.173962,25.8184906 C133.223851,25.8134327 133.273136,25.8035757 133.321132,25.7890566 L133.321132,28.9924528 L139.463019,28.9924528 Z M148.008679,43.1354717 C147.146666,44.5006285 145.618538,45.2984011 144.00566,45.225283 C141.793208,45.225283 140.272453,44.0283019 140.120377,42.0316981 L133.860755,42.0316981 C134.027547,47.1237736 138.143396,49.934717 143.873208,49.934717 C148.229434,49.934717 151.594717,48.1735849 152.958491,45.7550943 L148.008679,43.1354717 Z M162.593208,43.6603774 L162.593208,43.2433962 L161.224528,43.2433962 L162.578491,40.2264151 L161.886792,38.6173585 L161.886792,38.6173585 C162.180376,38.4722334 162.302796,38.1180921 162.161509,37.8226415 L161.180377,35.7671698 C161.050832,35.5042468 160.747597,35.376679 160.469057,35.4679245 L159.816604,33.9962264 L159.777358,33.9962264 L158.418491,36.7237736 C158.396184,36.7015246 158.371509,36.6817844 158.344906,36.6649057 C158.203837,36.5934328 158.04008,36.5812064 157.889961,36.6309388 C157.739843,36.6806712 157.615776,36.7882504 157.545283,36.9298113 L156.490566,38.9803774 C156.343446,39.274592 156.459089,39.6324328 156.750566,39.7849057 C156.788514,39.7993221 156.828034,39.8092019 156.868302,39.8143396 L152.075472,49.4049057 L158.45283,49.4049057 L159.532075,46.9864151 L162.568679,46.9864151 L162.568679,46.265283 C162.83139,46.2040882 163.017966,45.9708687 163.02004,45.7011321 L163.02004,44.229434 C163.023069,43.9649686 162.847954,43.7314811 162.593208,43.6603774 Z M170.613962,42.3309434 C170.908187,42.1838439 171.030377,41.8281851 170.888679,41.5313208 L169.907547,39.4758491 C169.838693,39.3326375 169.715713,39.2226867 169.565716,39.1702337 C169.415719,39.1177808 169.25102,39.1271322 169.107925,39.1962264 C169.088763,39.2094471 169.070715,39.2242133 169.053962,39.2403774 L166.453962,34.0060377 L160.689811,34.0060377 L163.029811,39.2060377 L163.029811,39.1520755 L164.859623,43.2433962 L163.387925,43.2433962 L163.387925,46.9815094 L166.522642,46.9815094 L167.601887,49.4 L174.067547,49.4 L170.555094,42.3358491 L170.613962,42.3309434 Z M181.308302,34.2660377 L181.308302,34.0060377 L175.132075,34.0060377 L175.132075,39.4611321 C175.10924,39.458837 175.086232,39.458837 175.063396,39.4611321 C174.734776,39.4638258 174.469811,39.7309918 174.469811,40.0596226 L174.469811,42.3456604 C174.469811,42.6734883 174.735568,42.9392453 175.063396,42.9392453 L175.132075,42.9392453 L175.132075,49.429434 L181.293585,49.429434 L181.293585,45.4018868 L181.293585,45.4018868 L181.293585,44.4207547 C181.575188,44.371142 181.781398,44.1278134 181.784151,43.8418868 L181.784151,42.3701887 C181.781398,42.084262 181.575188,41.8409334 181.293585,41.7913208 L181.293585,41.5264151 L181.293585,41.5264151 L181.293585,38.2298113 L181.293585,38.2298113 L181.293585,37.714717 C181.575188,37.6651043 181.781398,37.4217757 181.784151,37.1358491 L181.784151,34.8301887 C181.773698,34.5562594 181.577024,34.3251167 181.308302,34.2709434 L181.308302,34.2660377 Z M193.572453,37.9354717 C193.538262,37.930945 193.503624,37.930945 193.469434,37.9354717 C192.66,35.2569811 189.898113,33.9815094 186.017736,33.9815094 L182.093208,33.9815094 L182.093208,38.2003774 L185.49283,38.2003774 C186.635849,38.2003774 187.49434,38.6664151 187.49434,39.8535849 C187.49434,41.0407547 186.635849,41.5018868 185.49283,41.5018868 L182.093208,41.5018868 L182.093208,45.3724528 L186.017736,45.3724528 C189.917736,45.3724528 192.689434,44.0773585 193.479245,41.3743396 C193.510288,41.3761631 193.54141,41.3761631 193.572453,41.3743396 C193.90299,41.3743396 194.170943,41.1063863 194.170943,40.7758491 L194.170943,38.5388679 C194.170943,38.2139938 193.911946,37.9483661 193.58717,37.9403774 L193.572453,37.9354717 Z M201.539245,45.4067925 L201.539245,45.1320755 L201.480377,45.1320755 L201.480377,43.5328302 L207.950943,43.5328302 L207.950943,43.1943396 C208.266957,43.17636 208.515364,42.9172457 208.52,42.6007547 L208.52,40.314717 C208.517654,39.998135 208.267264,39.7391113 207.950943,39.7260377 L207.950943,39.7260377 L201.495094,39.7260377 L201.495094,38.2641509 L207.941132,38.2641509 L207.941132,37.729434 C208.223023,37.6838436 208.430562,37.4410234 208.431698,37.1554717 L208.431698,34.869434 C208.43093,34.5827728 208.223785,34.338342 207.941132,34.290566 L207.941132,34.0109434 L195.466038,34.0109434 L195.466038,49.4049057 L201.553962,49.4049057 L201.553962,48.850566 C201.834802,48.8031132 202.041389,48.5614074 202.044528,48.2766038 L202.044528,45.990566 C202.04376,45.7039048 201.836615,45.4594741 201.553962,45.4116981 L201.539245,45.4067925 Z M202.358491,49.4 L212.82717,49.4 L212.82717,45.1320755 L202.373208,45.1320755 L202.358491,49.4 Z M223.506792,43.94 L223.506792,43.0226415 C223.815385,42.9996293 224.054526,42.7434068 224.056226,42.4339623 L224.056226,40.1479245 C224.051992,39.8403714 223.813525,39.5869998 223.506792,39.5641509 L223.506792,39.0735849 C221.627925,38.9116981 220.725283,38.7449057 220.725283,38.2788679 C220.725283,37.685283 222.196981,37.5528302 223.560755,37.5528302 C225.660247,37.4747955 227.739827,37.9844965 229.565283,39.0245283 L232.361509,35.590566 C230.026415,34.1188679 226.729811,33.4124528 223.531321,33.4124528 C218.429434,33.4124528 214.666792,35.3060377 214.666792,38.754717 C214.686415,42.365283 218.792453,43.5083019 223.521509,43.9449057 L223.506792,43.94 Z M233.018868,42.38 C232.893042,42.3847443 232.771606,42.4275034 232.670566,42.5026415 C231.640377,40.2656604 228.495849,39.5592453 224.365283,39.1618868 L224.365283,44.0233962 C226.46,44.2343396 226.984906,44.474717 226.984906,44.965283 C226.984906,45.4558491 226.131321,45.774717 224.326038,45.774717 C221.72325,45.8004425 219.168289,45.0748336 216.967547,43.6849057 L214.024151,47.074717 C216.575094,48.8996226 220.180755,49.934717 224.252453,49.934717 C229.133585,49.934717 232.027925,48.3649057 232.822642,45.8188679 C233.005532,45.8877599 233.210539,45.8630156 233.371785,45.7525862 C233.533031,45.6421569 233.630203,45.4599548 233.632075,45.2645283 L233.632075,42.9784906 C233.632075,42.8171779 233.567053,42.662676 233.451611,42.5500044 C233.336169,42.4373328 233.180132,42.3760333 233.018868,42.38 Z" id="Shape" fill="#FFFFFF"></path>
                <path d="M45.4460377,74.2373585 L41.629434,74.2373585 L40.6483019,76.0377358 L38.0286792,76.0377358 L43.9154717,65.8192453 L46.7950943,65.8192453 L48.3060377,76.0377358 L45.6716981,76.0377358 L45.4460377,74.2373585 Z M44.7396226,68.5713208 L42.6792453,72.3143396 L45.1958491,72.3143396 L44.7396226,68.5713208 Z" id="Shape" fill="#FFFFFF"></path>
                <path d="M51.8479245,65.8192453 L54.3350943,65.8192453 L53.0350943,71.9366038 C52.78,73.1433962 53.2264151,73.84 54.4086792,73.84 C55.5909434,73.84 56.3709434,73.1433962 56.6162264,71.9366038 L57.9162264,65.8192453 L60.4083019,65.8192453 L59.1132075,71.9218868 C58.6396061,74.4238587 56.4193759,76.2116845 53.8739623,76.1407547 C51.5045283,76.1407547 49.949434,74.7426415 50.5479245,71.9218868 L51.8479245,65.8192453 Z" id="Path" fill="#FFFFFF"></path>
                <polygon id="Path" fill="#FFFFFF" points="61.8898113 65.8192453 69.7977358 65.8192453 69.3709434 67.8158491 66.6630189 67.8158491 64.9166038 76.0377358 62.4245283 76.0377358 64.1758491 67.8158491 61.4679245 67.8158491"></polygon>
                <polygon id="Path" fill="#FFFFFF" points="76.4203774 71.8335849 72.5498113 71.8335849 71.6569811 76.0377358 69.1698113 76.0377358 71.3430189 65.8192453 73.8350943 65.8192453 72.9815094 69.8222642 76.8569811 69.8222642 77.7056604 65.8192453 80.1977358 65.8192453 78 76.0377358 75.5471698 76.0377358"></polygon>
                <path d="M84.9120755,76.1407547 C82.0128302,76.1407547 80.1143396,73.9724528 80.7667925,70.9015094 C81.4303409,67.8958307 84.0666666,65.7360715 87.1441509,65.6769811 C90.0581132,65.6769811 91.9124528,67.830566 91.26,70.9015094 C90.6097682,73.9054868 87.9848508,76.0719565 84.9120755,76.1407547 Z M85.4026415,73.869434 C87.0313208,73.869434 88.3460377,72.6920755 88.7286792,70.9015094 C89.1113208,69.1109434 88.2969811,67.9335849 86.6633962,67.9335849 C85.0298113,67.9335849 83.72,69.0815094 83.3275472,70.9015094 C82.9350943,72.7215094 83.734717,73.869434 85.3928302,73.869434 L85.4026415,73.869434 Z" id="Shape" fill="#FFFFFF"></path>
                <path d="M98.1818868,65.8192453 C100.683774,65.8192453 101.615849,67.2615094 101.25283,69.0373585 C100.92286,70.488945 99.800019,71.6288848 98.3535849,71.9807547 L99.854717,76.0230189 L97.0437736,76.0230189 L95.7388679,72.1671698 L95.1403774,72.1671698 L94.3211321,76.0377358 L91.8290566,76.0377358 L94.0022642,65.8192453 L98.1818868,65.8192453 Z M97.6226415,67.889434 L96.0528302,67.889434 L95.5132075,70.4207547 L97.0584906,70.4207547 C97.8574466,70.4948809 98.5757697,69.9335565 98.6969811,69.1403774 C98.8588679,68.3849057 98.5301887,67.889434 97.6226415,67.889434 Z" id="Shape" fill="#FFFFFF"></path>
                <polygon id="Path" fill="#FFFFFF" points="103.784151 65.8192453 106.276226 65.8192453 104.103019 76.0377358 101.615849 76.0377358"></polygon>
                <polygon id="Path" fill="#FFFFFF" points="115.013208 67.6981132 109.283396 73.9871698 113.698491 73.9871698 113.266792 76.0230189 106.026038 76.0230189 106.428302 74.1343396 112.128679 67.845283 107.762642 67.845283 108.19434 65.8045283 115.415472 65.8045283"></polygon>
                <polygon id="Path" fill="#FFFFFF" points="123.176226 67.8158491 119.403774 67.8158491 118.962264 69.8811321 122.298113 69.8811321 121.890943 71.8041509 118.555094 71.8041509 118.064528 74.0460377 121.836981 74.0460377 121.410189 76.0377358 115.165283 76.0377358 117.338491 65.8192453 123.622642 65.8192453"></polygon>
                <path d="M133.60566,70.9309434 C132.98805,73.9762843 130.265493,76.1331957 127.159623,76.0377358 L123.333208,76.0377358 L125.506415,65.8192453 L129.33283,65.8192453 C132.595094,65.8192453 134.253208,67.889434 133.60566,70.9309434 Z M127.458868,73.8743396 C129.239038,73.9610358 130.798203,72.6917015 131.07434,70.9309434 C131.471698,69.0520755 130.583774,67.9483019 128.719623,67.9483019 L127.54717,67.9483019 L126.286415,73.8841509 L127.458868,73.8743396 Z" id="Shape" fill="#FFFFFF"></path>
                <path d="M144.496226,65.7064151 C146.949057,65.7064151 148.474717,67.0750943 148.582642,69.2875472 L145.845283,69.2875472 C145.633703,68.451937 144.844103,67.8956757 143.986038,67.9777358 C142.455472,67.9777358 141.165283,69.1109434 140.782642,70.9211321 C140.4,72.7313208 141.209434,73.8645283 142.744906,73.8645283 C143.720724,73.8651108 144.630679,73.3722951 145.163396,72.554717 L147.900755,72.554717 C146.885411,74.7460964 144.679176,76.1381948 142.264151,76.1113208 C139.252075,76.1113208 137.579245,73.9724528 138.231698,70.9162264 C138.813232,67.9096556 141.434023,65.7301098 144.496226,65.7064151 Z" id="Path" fill="#FFFFFF"></path>
                <path d="M153.777736,76.1407547 C150.883396,76.1407547 148.984906,73.9724528 149.637358,70.9015094 C150.300907,67.8958307 152.937233,65.7360715 156.014717,65.6769811 C158.923774,65.6769811 160.783019,67.830566 160.130566,70.9015094 C159.478287,73.9062497 156.851701,76.072422 153.777736,76.1407547 Z M154.268302,73.869434 C155.896981,73.869434 157.211698,72.6920755 157.589434,70.9015094 C157.96717,69.1109434 157.157736,67.9335849 155.529057,67.9335849 C153.900377,67.9335849 152.58566,69.0815094 152.188302,70.9015094 C151.790943,72.7215094 152.600377,73.869434 154.263396,73.869434 L154.268302,73.869434 Z" id="Shape" fill="#FFFFFF"></path>
                <polygon id="Path" fill="#FFFFFF" points="172.016981 65.8192453 169.843774 76.0377358 167.351698 76.0377358 164.530943 69.7388679 163.191698 76.0377358 160.699623 76.0377358 162.867925 65.8192453 165.355094 65.8192453 168.175849 72.1524528 169.52 65.8192453"></polygon>
                <polygon id="Path" fill="#FFFFFF" points="173.557358 65.8192453 181.460377 65.8192453 181.038491 67.8158491 178.330566 67.8158491 176.603774 76.0377358 174.111698 76.0377358 175.863019 67.8158491 173.150189 67.8158491"></polygon>
                <path d="M187.180377,65.8192453 C189.68717,65.8192453 190.61434,67.2615094 190.256226,69.0373585 C189.926256,70.488945 188.803415,71.6288848 187.356981,71.9807547 L188.867925,76.0377358 L186.056981,76.0377358 L184.752075,72.1818868 L184.153585,72.1818868 L183.319623,76.0377358 L180.832453,76.0377358 L183.00566,65.8192453 L187.180377,65.8192453 Z M186.596604,67.889434 L185.056226,67.889434 L184.516604,70.4207547 L186.056981,70.4207547 C186.857001,70.4951069 187.576825,69.9342888 187.700377,69.1403774 C187.886792,68.3849057 187.528679,67.889434 186.596604,67.889434 Z" id="Shape" fill="#FFFFFF"></path>
                <path d="M197.359623,74.2373585 L193.547925,74.2373585 L192.566792,76.0377358 L189.94717,76.0377358 L195.833962,65.8192453 L198.679245,65.8192453 L200.224528,76.0377358 L197.590189,76.0377358 L197.359623,74.2373585 Z M196.658113,68.5713208 L194.607547,72.3143396 L197.129057,72.3143396 L196.658113,68.5713208 Z" id="Shape" fill="#FFFFFF"></path>
                <path d="M208.549434,65.7064151 C210.977736,65.7064151 212.523019,67.0750943 212.635849,69.2875472 L209.898491,69.2875472 C209.684822,68.4511935 208.893606,67.8952603 208.03434,67.9777358 C206.508679,67.9777358 205.218491,69.1109434 204.835849,70.9211321 C204.453208,72.7313208 205.257736,73.8645283 206.798113,73.8645283 C207.773477,73.8633182 208.682634,73.3709349 209.216604,72.554717 L211.924528,72.554717 C210.915505,74.7393019 208.723681,76.133402 206.317358,76.1212124 C203.300377,76.1212124 201.632453,73.9822642 202.28,70.9260377 C202.859546,67.9148087 205.483037,65.730619 208.549434,65.7064151 L208.549434,65.7064151 Z" id="Path" fill="#FFFFFF"></path>
                <polygon id="Path" fill="#FFFFFF" points="214.637358 65.8192453 222.540377 65.8192453 222.118491 67.8158491 219.410566 67.8158491 217.664151 76.0377358 215.172075 76.0377358 216.918491 67.8158491 214.210566 67.8158491"></polygon>
                <path d="M226.724906,76.1407547 C223.82566,76.1407547 221.92717,73.9724528 222.579623,70.9015094 C223.244779,67.8968187 225.880149,65.7378425 228.956981,65.6769811 C231.870943,65.6769811 233.725283,67.830566 233.07283,70.9015094 C232.422598,73.9054868 229.797681,76.0719565 226.724906,76.1407547 L226.724906,76.1407547 Z M227.215472,73.869434 C228.849057,73.869434 230.158868,72.6920755 230.541509,70.9015094 C230.924151,69.1109434 230.109811,67.9335849 228.476226,67.9335849 C226.842642,67.9335849 225.53283,69.0815094 225.140377,70.9015094 C224.747925,72.7215094 225.547547,73.869434 227.20566,73.869434 L227.215472,73.869434 Z" id="Shape" fill="#FFFFFF"></path>
                <path d="M239.994717,65.8192453 C242.501509,65.8192453 243.428679,67.2615094 243.06566,69.0373585 C242.73569,70.488945 241.612849,71.6288848 240.166415,71.9807547 L241.667547,76.0230189 L238.856604,76.0230189 L237.551698,72.1671698 L236.943396,72.1671698 L236.133962,76.0377358 L233.646792,76.0377358 L235.815094,65.8192453 L239.994717,65.8192453 Z M239.396226,67.889434 L237.850943,67.889434 L237.316226,70.4207547 L238.856604,70.4207547 C239.656624,70.4951069 240.376448,69.9342888 240.5,69.1403774 C240.671698,68.3849057 240.343019,67.889434 239.396226,67.889434 Z" id="Shape" fill="#FFFFFF"></path>
                <path d="M36.385283,59.1622642 C31.7766377,62.0464985 27.630326,65.6106396 24.0867925,69.7339623 L19.5,66.1381132 C19.3773585,66.054717 16.8607547,68.2867925 16.9245283,68.3603774 L25.2641509,76.8520755 C25.3227104,76.9206809 25.4094934,76.9586484 25.4996226,76.9550943 L25.5633962,76.9550943 C25.675357,76.9336021 25.7681843,76.8556272 25.8086792,76.7490566 C27.1528302,73.3150943 31.5973585,66.0988679 37.2732075,60.8743396 C37.3773019,60.7782789 37.410577,60.6275625 37.3566038,60.4966038 C37.0731615,60.0238195 36.748099,59.577269 36.385283,59.1622642 Z" id="Path" fill="#FFFFFF"></path>
            </g>
        </g>
    </g>
</svg>
