<?xml version="1.0" encoding="UTF-8"?>
<svg width="73px" height="79px" viewBox="0 0 73 79" version="1.1" xmlns="http://www.w3.org/2000/svg" xmlns:xlink="http://www.w3.org/1999/xlink">
    <title>CEDC9005-6816-4396-9215-B7C2B91D091E</title>
    <g id="Locals" stroke="none" stroke-width="1" fill="none" fill-rule="evenodd">
        <g id="Local-Landingpage" transform="translate(-238.000000, -795.000000)">
            <g id="icon/crew" transform="translate(239.000000, 796.000000)">
                <ellipse id="Oval" fill="#DBEEED" cx="42.1714286" cy="34.8947368" rx="15.4285714" ry="22.5789474"></ellipse>
                <path d="M26.2609023,55.4210526 L60.1390977,55.4210526 C66.3741019,55.4210526 71.4285714,60.4755222 71.4285714,66.7105263 L71.4285714,76 C71.4285714,77.1045695 70.5331409,78 69.4285714,78 L16.9714286,78 C15.8668591,78 14.9714286,77.1045695 14.9714286,76 L14.9714286,66.7105263 C14.9714286,60.4755222 20.0258981,55.4210526 26.2609023,55.4210526 Z" id="Rectangle" fill="#DBEEED"></path>
                <g id="workerVector" transform="translate(0.000000, -0.000000)" fill="#07A39D" fill-rule="nonzero" stroke="#07A39D" stroke-width="0.8">
                    <path d="M33.3866643,1.53950926e-14 C33.9840701,1.53950926e-14 34.4681375,0.48314974 34.4681375,1.07910156 L34.4681375,1.07910156 L34.4681375,2.39272786 L34.5063496,2.39272786 C42.5181915,2.39272786 49.0363027,8.89496224 49.0363027,16.8872201 L49.0363027,16.8872201 L49.0363027,21.4286549 L52.2713496,21.4286549 C52.8687554,21.4286549 53.3528228,21.9118047 53.3528228,22.5077565 L53.3528228,22.5077565 L53.3528228,24.4215072 C53.3528228,26.0509505 52.3623375,27.4540703 50.9505103,28.0629714 C51.0439496,28.5215176 51.0885063,28.9940202 51.0837478,29.4768822 C51.0564946,32.1780892 49.4179906,34.4456413 47.2533138,35.023752 C47.2694638,35.4132357 47.288642,35.7250241 47.3109924,35.9501966 C47.3115692,35.9556641 47.3120018,35.9612754 47.3125786,35.9668867 C47.3464647,36.3763698 47.3637683,36.7950612 47.3637683,37.2111628 C47.3637683,41.1962129 44.123242,45.8320332 37.7324563,50.9902826 C37.5520665,51.1366087 37.3672067,51.2766042 37.1781652,51.4102689 L37.1781652,51.4102689 L36.9933054,51.9108281 C36.6384379,52.8712285 36.524667,53.9146478 36.6642491,54.9285716 C36.7353379,55.4462526 36.87045,55.9499772 37.0667013,56.4319759 L37.0667013,56.4319759 L53.867604,59.7256816 C58.5198134,60.6239258 61.8986241,64.7095482 61.8986241,69.4397539 L61.8986241,69.4397539 L61.8986241,72.5875651 C61.8986241,73.1835169 61.4145567,73.6666667 60.8171509,73.6666667 L60.8171509,73.6666667 L40.6243156,73.6666667 C40.0269098,73.6666667 39.5428424,73.1835169 39.5428424,72.5875651 C39.5428424,71.9916133 40.0269098,71.5084635 40.6243156,71.5084635 L40.6243156,71.5084635 L44.1624634,71.5084635 L44.1624634,68.3623789 L17.7808616,68.3623789 L17.7808616,71.5084635 L35.5494665,71.5084635 C36.1468723,71.5084635 36.6309397,71.9916133 36.6309397,72.5875651 C36.6309397,73.1835169 36.1468723,73.6666667 35.5494665,73.6666667 L35.5494665,73.6666667 L1.18745759,73.6666667 C0.590195982,73.6666667 0.105984375,73.1835169 0.105984375,72.5875651 L0.105984375,72.5875651 L0.105984375,69.4397539 C0.105984375,64.7095482 3.48479509,60.6240697 8.14003259,59.7251061 L8.14003259,59.7251061 L24.7994786,56.4329831 C24.9957299,55.951416 25.1306978,55.4479792 25.202075,54.9304421 C25.3420897,53.9159427 25.2283188,52.871804 24.8733071,51.910972 L24.8733071,51.910972 L24.660329,51.3347318 C24.5051737,51.2222174 24.3529022,51.1053867 24.2036589,50.9842396 C17.8179201,45.8297311 14.5789799,41.1952057 14.5789799,37.2114505 C14.5789799,36.7731914 14.5964277,36.3557949 14.6308906,35.9706276 C14.6545388,35.7307793 14.6755915,35.4081999 14.6939045,35.014112 C12.5468196,34.42075 10.926196,32.1632695 10.8992313,29.477026 C10.894617,29.0161777 10.9374433,28.5557611 11.0252589,28.1082936 C9.55546473,27.5258665 8.51364554,26.0928197 8.51364554,24.4215072 L8.51364554,24.4215072 L8.51364554,22.5077565 C8.51364554,21.9118047 8.99785714,21.4286549 9.59511875,21.4286549 L9.59511875,21.4286549 L12.7654214,21.4286549 L12.7654214,16.8872201 C12.7654214,8.89496224 19.2833884,2.39272786 27.2952304,2.39272786 L27.2952304,2.39272786 L27.5581004,2.39272786 L27.5581004,1.07910156 C27.5581004,0.48314974 28.0423121,1.53950926e-14 28.6395737,1.53950926e-14 L28.6395737,1.53950926e-14 Z M9.6858183,61.6198646 L8.5554625,61.8431667 C4.91075357,62.5468848 2.26878661,65.7413132 2.26878661,69.4397539 L2.26878661,69.4397539 L2.26878661,71.5084635 L9.6858183,71.5084635 L9.6858183,61.6198646 Z M52.2573625,61.6093613 L52.2573625,71.5084635 L59.7356777,71.5084635 L59.7356777,69.43961 C59.7356777,65.7411693 57.0937107,62.5467409 53.4537603,61.8438861 L53.4537603,61.8438861 L52.2573625,61.6093613 Z M15.6179152,68.3625228 L11.8489089,68.3625228 L11.8489089,71.489903 L15.6179152,71.489903 L15.6179152,68.3625228 Z M50.0942719,68.3623789 L46.3252656,68.3623789 L46.3252656,71.4897591 L50.0942719,71.4897591 L50.0942719,68.3623789 Z M46.3252656,60.4465215 L46.3252656,66.2041758 L50.0942719,66.2041758 L50.0942719,61.1853464 L46.3252656,60.4465215 Z M15.6179152,60.4475286 L11.8489089,61.1922526 L11.8489089,66.2041758 L15.6179152,66.2041758 L15.6179152,60.4475286 Z M37.2655482,58.6706081 C36.6664121,61.6106562 34.0548705,63.8301523 30.9334504,63.8301523 C29.2405844,63.8301523 27.6401482,63.1815404 26.4271679,62.0038809 C25.4812393,61.0853496 24.854129,59.9322936 24.5999107,58.6726224 L24.5999107,58.6726224 L17.7808616,60.0200605 L17.7808616,66.2043197 L44.1623192,66.2043197 L44.1623192,60.0226504 Z M27.3158504,52.7392904 C27.4479344,53.5598392 27.4588933,54.3995241 27.3451223,55.2246771 C27.2304862,56.0555853 26.9938598,56.859444 26.6410112,57.6184121 C26.6986897,58.6967943 27.1531969,59.6974811 27.9354625,60.4570247 C28.7423857,61.2403086 29.8069879,61.6718053 30.9334504,61.6718053 C33.2248759,61.6718053 35.1033228,59.8740221 35.2256013,57.6181243 C34.8723201,56.858293 34.6356938,56.053571 34.5212018,55.2222311 C34.4091612,54.4078691 34.4186781,53.5794069 34.5461478,52.7690736 C33.4124754,53.1677656 32.2117518,53.3766797 30.9977621,53.3766797 L30.9977621,53.3766797 L30.9497446,53.3766797 C29.7057621,53.3768236 28.4750455,53.1575501 27.3158504,52.7392904 Z M51.1898763,23.5868581 L10.6767362,23.5868581 L10.6767362,24.4215072 C10.6767362,25.4177337 11.4894272,26.2282109 12.4881317,26.2282109 L12.4881317,26.2282109 L19.3889402,26.2282109 C19.9862018,26.2282109 20.4704134,26.7113607 20.4704134,27.3073125 C20.4704134,27.9032643 19.9862018,28.3864141 19.3889402,28.3864141 L19.3889402,28.3864141 L16.9391871,28.3864141 C16.9397916,28.5030788 16.9403238,28.6202292 16.9407805,28.7377345 L16.9425907,29.4459784 L16.9425907,29.4459784 L16.9424397,30.1564605 C16.9383037,32.6397391 16.895368,35.048765 16.7846085,36.1720599 C16.7567786,36.4839922 16.7422147,36.8369303 16.7422147,37.2114505 C16.7422147,40.4653014 19.7936996,44.6481868 25.5667478,49.3083229 C27.0855688,50.5412324 28.9976134,51.2186204 30.9546473,51.2186204 L30.9546473,51.2186204 L30.9931478,51.2186204 C32.9478746,51.2186204 34.8550165,50.5428151 36.370521,49.3140781 C42.1480393,44.6509206 45.2009661,40.4663086 45.2009661,37.2114505 C45.2009661,36.8572174 45.1864022,36.5012578 45.1577071,36.1533555 C45.0619607,35.175066 45.0325446,33.1201049 45.0293403,31.1448854 L45.029289,30.4101746 C45.0303096,29.683719 45.034311,28.9888045 45.0391777,28.3864141 L45.0391777,28.3864141 L24.4459089,28.3864141 C23.8486473,28.3864141 23.3644357,27.9032643 23.3644357,27.3073125 C23.3644357,26.7113607 23.8486473,26.2282109 24.4459089,26.2282109 L24.4459089,26.2282109 L49.3784808,26.2282109 C50.3773295,26.2282109 51.1898763,25.4177337 51.1898763,24.4215072 L51.1898763,24.4215072 L51.1898763,23.5868581 Z M33.754221,40.4857324 C33.9087996,39.9099238 34.5015911,39.5679206 35.0788094,39.7224479 C35.6557393,39.8766875 35.9982058,40.4683229 35.8437714,41.0439876 C35.2501147,43.2554264 33.2309321,44.7998366 30.9331621,44.7998366 C28.6361129,44.7998366 26.6173629,43.2554264 26.0238504,41.0439876 C25.8694161,40.4683229 26.2118826,39.8765436 26.7888125,39.7224479 C27.3650214,39.5680645 27.9586781,39.9099238 28.1132567,40.4857324 C28.4539929,41.7550436 29.6136205,42.6416335 30.9331621,42.6416335 C32.2535688,42.6416335 33.413629,41.7550436 33.754221,40.4857324 Z M48.8064536,28.3865579 L47.2019799,28.3865579 C47.1881371,30.0522591 47.1882813,31.5277507 47.2014031,32.7431068 C48.1953491,32.2111816 48.9059491,30.9379857 48.9209455,29.455444 C48.9245504,29.0928659 48.8854732,28.7318704 48.8064536,28.3865579 L48.8064536,28.3865579 Z M14.7763848,28.3865579 L13.1766696,28.3865579 C13.09765,28.7318704 13.058717,29.0925781 13.0623219,29.455444 C13.0771741,30.9261875 13.7768152,32.1911823 14.7585045,32.7304453 C14.7785478,31.4883275 14.7850366,30.0044909 14.7763848,28.3865579 L14.7763848,28.3865579 Z M34.5066379,4.55093099 L34.4684259,4.55093099 L34.4684259,21.4286549 L46.8735004,21.4286549 L46.8735004,17.9663216 L42.2061504,17.9663216 C41.6087446,17.9663216 41.1246772,17.4831719 41.1246772,16.8872201 C41.1246772,16.2912682 41.6087446,15.8081185 42.2061504,15.8081185 L42.2061504,15.8081185 L46.8266366,15.8081185 C46.2769598,9.50933073 40.9614469,4.55093099 34.5066379,4.55093099 L34.5066379,4.55093099 Z M32.3054795,17.9663216 L29.7213353,17.9663216 L29.7213353,21.4286549 L32.3054795,21.4286549 L32.3054795,17.9663216 Z M27.5583888,4.55093099 L27.2955188,4.55093099 C20.840854,4.55093099 15.5251969,9.50933073 14.9755201,15.8081185 L14.9755201,15.8081185 L19.5960063,15.8081185 C20.1932679,15.8081185 20.6774795,16.2912682 20.6774795,16.8872201 C20.6774795,17.4831719 20.1932679,17.9663216 19.5960063,17.9663216 L19.5960063,17.9663216 L14.9286563,17.9663216 L14.9286563,21.4286549 L27.5583888,21.4286549 L27.5583888,4.55093099 Z M32.3054795,2.15820312 L29.7213353,2.15820312 L29.7213353,15.8081185 L32.3054795,15.8081185 L32.3054795,2.15820312 Z" id="Combined-Shape"></path>
                </g>
            </g>
        </g>
    </g>
</svg>