<?xml version="1.0" encoding="UTF-8"?>
<svg width="94px" height="79px" viewBox="0 0 94 79" version="1.1" xmlns="http://www.w3.org/2000/svg" xmlns:xlink="http://www.w3.org/1999/xlink">
    <title>30F6B73A-FFB9-479B-9EC2-4FB1AB2E8D7F</title>
    <g id="Locals" stroke="none" stroke-width="1" fill="none" fill-rule="evenodd">
        <g id="LocalFinancing-Landingpage" transform="translate(-676.000000, -3508.000000)">
            <g id="component" transform="translate(677.000000, 3509.000000)">
                <ellipse id="Oval" fill="#DBEEED" cx="85.6578947" cy="26.8125" rx="7.34210526" ry="7.3125"></ellipse>
                <ellipse id="Oval" fill="#DBEEED" cx="85.6578947" cy="43.875" rx="7.34210526" ry="7.3125"></ellipse>
                <rect id="Rectangle" fill="#DBEEED" x="29.3684211" y="12.1875" width="58.7368421" height="65.8125" rx="2"></rect>
                <path d="M64.9504428,28.3493818 L74.631697,28.3493818 C75.3969394,31.2824941 78.077955,33.4543066 81.2588647,33.4543066 C85.0339687,33.4543066 88.1052632,30.3953965 88.1052632,26.6355146 C88.1052632,22.8756328 85.0339687,19.816894 81.2588647,19.816894 C78.077955,19.816894 75.3969394,21.9887065 74.631697,24.9216475 L64.9504428,24.9216475 L64.9504428,19.1774502 C64.9504428,14.9964712 61.5353314,11.5953018 57.3375975,11.5953018 L19.889419,11.5953018 C19.9671994,9.95221729 21.3297336,8.63819531 22.9985711,8.63819531 L74.631697,8.63819531 C75.3969394,11.5711362 78.077955,13.7429487 81.2588647,13.7429487 C85.0339687,13.7429487 88.1052632,10.6840386 88.1052632,6.92432812 C88.1052632,3.16444629 85.0339687,0.105536133 81.2588647,0.105536133 C78.077955,0.105536133 75.3969394,2.27752002 74.631697,5.21046094 L22.9985711,5.21046094 C19.4318567,5.21046094 16.5231785,8.061479 16.4440214,11.5953018 L7.61284539,11.5953018 C3.41511143,11.5953018 -4.61911211e-15,14.9966426 -4.61911211e-15,19.1774502 L-4.61911211e-15,55.630377 C-4.61911211e-15,59.8111846 3.41511143,63.212354 7.61284539,63.212354 L25.7991828,63.212354 L25.1793485,68.779166 L20.978345,68.779166 C20.0279439,68.779166 19.2575391,69.5466357 19.2575391,70.4930332 C19.2575391,71.4394307 20.0279439,72.2069004 20.978345,72.2069004 L43.9450812,72.2069004 C44.8954823,72.2069004 45.6658871,71.4394307 45.6658871,70.4930332 C45.6658871,69.5466357 44.8954823,68.779166 43.9450812,68.779166 L39.7439056,68.779166 L39.1240713,63.212354 L57.3375975,63.212354 C61.5353314,63.212354 64.9504428,59.8110132 64.9504428,55.630377 C64.9504428,52.6988071 64.9504428,46.9774043 64.9504428,44.2569829 L74.631697,44.2569829 C75.3969394,47.1900952 78.077955,49.3619077 81.2588647,49.3619077 C85.0339687,49.3619077 88.1052632,46.3029976 88.1052632,42.5431157 C88.1052632,38.7832339 85.0339687,35.7243237 81.2588647,35.7243237 C78.077955,35.7243237 75.3969394,37.8963076 74.631697,40.8292485 L64.9504428,40.8292485 L64.9504428,28.3493818 Z M81.2588647,23.2446284 C83.136264,23.2446284 84.6636513,24.7658569 84.6636513,26.6355146 C84.6636513,28.5053437 83.136264,30.0265723 81.2588647,30.0265723 C79.3814655,30.0265723 77.8540781,28.5053437 77.8540781,26.6355146 C77.8540781,24.7658569 79.3814655,23.2446284 81.2588647,23.2446284 Z M81.2588647,3.53327051 C83.136264,3.53327051 84.6636513,5.05449902 84.6636513,6.92432813 C84.6636513,8.79398584 83.136264,10.3152144 81.2588647,10.3152144 C79.3814655,10.3152144 77.8540781,8.79398584 77.8540781,6.92432813 C77.8540781,5.05449902 79.3814655,3.53327051 81.2588647,3.53327051 Z M81.2588647,39.1520581 C83.136264,39.1520581 84.6636513,40.6732866 84.6636513,42.5431157 C84.6636513,44.4129448 83.136264,45.9341733 81.2588647,45.9341733 C79.3814655,45.9341733 77.8540781,44.4129448 77.8540781,42.5431157 C77.8540781,40.6732866 79.3814655,39.1520581 81.2588647,39.1520581 Z M36.2811279,68.7795088 L28.6421262,68.7795088 L29.2619605,63.2126968 L35.6614657,63.2126968 L36.2811279,68.7795088 Z M61.5090031,50.6293125 L55.8114147,50.6293125 C54.8610136,50.6293125 54.0906088,51.3967822 54.0906088,52.3431797 C54.0906088,53.2895771 54.8610136,54.0570469 55.8114147,54.0570469 L61.5090031,54.0570469 L61.5090031,55.6305483 C61.5090031,57.9211318 59.6376266,59.784791 57.3375975,59.784791 C55.6142103,59.784791 10.0402142,59.784791 7.61284539,59.784791 C5.3128162,59.784791 3.44161184,57.9211318 3.44161184,55.6305483 L3.44161184,54.0570469 L42.0449673,54.0570469 C42.9953684,54.0570469 43.7657732,53.2895771 43.7657732,52.3431797 C43.7657732,51.3967822 42.9953684,50.6293125 42.0449673,50.6293125 L3.44161184,50.6293125 L3.44161184,19.1776216 C3.44161184,16.8868667 5.3128162,15.0230361 7.61284539,15.0230361 L16.4402356,15.0230361 L16.4402356,21.0176294 L11.162868,21.0176294 C8.63741324,21.0176294 6.58259889,23.0639868 6.58259889,25.5792583 L6.58259889,43.2997881 C6.58259889,45.815231 8.63724116,47.8615884 11.162868,47.8615884 L25.1593871,47.8615884 C27.6848419,47.8615884 29.7394842,45.815231 29.7394842,43.2997881 L29.7394842,25.5790869 C29.7394842,23.0638154 27.6848419,21.017458 25.1593871,21.017458 L19.8820195,21.017458 L19.8820195,15.0230361 L57.3377695,15.0230361 C59.6377987,15.0230361 61.5090031,16.8866953 61.5090031,19.1774502 L61.5090031,24.9216475 L58.3676719,24.9216475 C58.3630257,22.768002 56.6026412,21.017458 54.439244,21.017458 L35.8853425,21.017458 C33.7190199,21.017458 31.9565705,22.7726294 31.9565705,24.9302168 L31.9565705,28.3409839 C31.9565705,30.4985713 33.7190199,32.2537427 35.8853425,32.2537427 L54.439244,32.2537427 C56.6028133,32.2537427 58.3631978,30.5030273 58.3676719,28.3493818 L61.5090031,28.3493818 L61.5090031,40.8292485 L58.3545937,40.8292485 C58.1959354,38.8154546 56.5012858,37.2249858 54.439244,37.2249858 L35.8853425,37.2249858 C33.7190199,37.2249858 31.9565705,38.9801572 31.9565705,41.1377446 L31.9565705,43.9484868 C31.9565705,46.1060742 33.7190199,47.861417 35.8853425,47.861417 L54.439244,47.861417 C56.5012858,47.861417 58.1959354,46.2707769 58.3545937,44.2569829 L61.5090031,44.2569829 L61.5090031,50.6293125 L61.5090031,50.6293125 Z M25.1593871,24.4451924 C25.7871371,24.4451924 26.2978723,24.9538682 26.2978723,25.5790869 L26.2978723,43.2997881 C26.2978723,43.9250068 25.7871371,44.433854 25.1593871,44.433854 L11.162868,44.433854 C10.535118,44.433854 10.0242107,43.9250068 10.0242107,43.2997881 L10.0242107,25.5790869 C10.0242107,24.9538682 10.5349459,24.4451924 11.162868,24.4451924 L25.1593871,24.4451924 Z M54.9262321,24.9302168 L54.9262321,28.3409839 C54.9262321,28.6085186 54.7076898,28.8260083 54.439072,28.8260083 L35.8853425,28.8260083 C35.6167247,28.8260083 35.3981824,28.6083472 35.3981824,28.3409839 L35.3981824,24.9302168 C35.3981824,24.6626821 35.6167247,24.4451924 35.8853425,24.4451924 L54.439244,24.4451924 C54.7076898,24.4451924 54.9262321,24.6628535 54.9262321,24.9302168 Z M54.9262321,41.1377446 L54.9262321,43.9484868 C54.9262321,44.2161929 54.7076898,44.4336826 54.439072,44.4336826 L35.8853425,44.4336826 C35.6167247,44.4336826 35.3981824,44.2160215 35.3981824,43.9484868 L35.3981824,41.1377446 C35.3981824,40.87021 35.6167247,40.6527202 35.8853425,40.6527202 L54.439244,40.6527202 C54.7076898,40.6527202 54.9262321,40.8703813 54.9262321,41.1377446 Z" id="Shape" stroke="#07A39D" stroke-width="0.8" fill="#07A39D" fill-rule="nonzero"></path>
            </g>
        </g>
    </g>
</svg>