<?xml version="1.0" encoding="UTF-8"?>
<svg width="79px" height="79px" viewBox="0 0 79 79" version="1.1" xmlns="http://www.w3.org/2000/svg" xmlns:xlink="http://www.w3.org/1999/xlink">
    <title>C71563AB-FDFE-460F-A272-3F3E9255E888</title>
    <g id="Locals" stroke="none" stroke-width="1" fill="none" fill-rule="evenodd">
        <g id="Local-Landingpage" transform="translate(-828.000000, -795.000000)">
            <g id="plan" transform="translate(829.000000, 796.000000)">
                <path d="M15,24 L78,24 L78,77 C78,77.5522847 77.5522847,78 77,78 L23.9625465,78 L23.9625465,78 C17.9875155,78 15,74.8889731 15,68.6669193 C15,62.4450652 15,47.5560921 15,24 Z" id="Path-2" fill="#DBEEED"></path>
                <path d="M58.080375,0.1153125 C58.941,0.1153125 59.7504375,0.450421875 60.3589219,1.05890625 L60.3589219,1.05890625 L63.6430781,4.3430625 C64.2515625,4.95182813 64.5866719,5.76098438 64.5866719,6.62160938 C64.5866719,7.48223438 64.2515625,8.29167188 63.6430781,8.90015625 L63.6430781,8.90015625 L57.85425,14.689125 L65.9740781,14.689125 C66.5576719,14.689125 67.030875,15.1621875 67.030875,15.7459219 L67.030875,15.7459219 L67.030875,37.2659063 L70.1959219,34.1008594 C70.4982656,33.7986563 70.9527656,33.7082344 71.3476406,33.8719219 C71.742375,34.0354688 72,34.4209219 72,34.8482813 L72,34.8482813 L72,70.8276094 C72,71.4113438 71.5267969,71.8844063 70.9432031,71.8844063 L70.9432031,71.8844063 L34.9635937,71.8844063 C34.5362344,71.8844063 34.1507812,71.6269219 33.9872344,71.2320469 C33.8236875,70.8370313 33.9141094,70.3826719 34.2163125,70.0803281 L34.2163125,70.0803281 L40.2982031,63.9984375 L8.00535937,63.9984375 C5.90554687,63.9984375 3.92146875,63.1911094 2.41846875,61.7252344 C1.01235937,60.3535781 0.171,58.5466875 0.02503125,56.6019844 C0.009,56.5288594 0,56.4529219 0,56.374875 L0,56.374875 L0,11.4893438 C0,6.90609375 3.72867187,3.17770313 8.31164062,3.17742188 C8.89523437,3.17742188 9.3684375,3.65048438 9.3684375,4.23421875 L9.3684375,4.23421875 L9.3684375,14.6889844 L42.17175,14.6889844 L49.5268594,7.333875 L52.9603594,3.900375 L55.8018281,1.05890625 C56.4104531,0.450421875 57.21975,0.1153125 58.080375,0.1153125 Z M7.25470312,5.38115625 C4.33884375,5.8843125 2.1133125,8.43201563 2.1133125,11.4893438 L2.1133125,11.4893438 L2.1133125,50.8419844 C2.24015625,50.7002344 2.370375,50.5607344 2.50776562,50.4265781 C3.81389062,49.1511094 5.4703125,48.3551719 7.25484375,48.1294688 L7.25484375,48.1294688 L7.25484375,41.4572344 C7.25484375,40.8735 7.72804687,40.4004375 8.31164062,40.4004375 C8.89523437,40.4004375 9.3684375,40.8735 9.3684375,41.4572344 L9.3684375,41.4572344 L9.3684375,49.11975 C9.3684375,49.7034844 8.89523437,50.1765469 8.31164062,50.1765469 C8.206875,50.1765469 8.10253125,50.1792188 7.99903125,50.1844219 C7.974,50.1856875 7.94896875,50.1883594 7.9239375,50.1899063 C7.84490625,50.1948281 7.765875,50.2000313 7.68754687,50.2079063 L7.68754687,50.2079063 L7.61920312,50.2162031 C7.5380625,50.2253438 7.45692187,50.2349063 7.376625,50.2471406 L7.376625,50.2471406 L7.33204687,50.2547344 C7.24317187,50.2689375 7.15485937,50.2842656 7.06739062,50.302125 L7.06739062,50.302125 L7.05135937,50.3056406 C5.1435,50.7013594 3.55373437,51.9766875 2.72714062,53.68725 C2.72545312,53.6907656 2.72390625,53.6942813 2.72221875,53.6977969 C2.6825625,53.7802031 2.64501562,53.8635938 2.608875,53.9479688 C2.60057812,53.9675156 2.59270312,53.9873438 2.5846875,54.0068906 C2.5565625,54.0748125 2.52928125,54.1432969 2.50354687,54.2124844 C2.48976562,54.2489063 2.47710937,54.2856094 2.4643125,54.3223125 C2.44589062,54.3747656 2.42775,54.4272188 2.41073437,54.4802344 C2.39371875,54.53325 2.3776875,54.5868281 2.36221875,54.6405469 C2.35139062,54.6775313 2.34084375,54.7142344 2.33071875,54.7513594 C2.31215625,54.8198438 2.29485937,54.8886094 2.27882812,54.9577969 C2.27348438,54.9804375 2.26814063,55.0032188 2.26307812,55.026 C2.2449375,55.1078438 2.22834375,55.1899688 2.21357812,55.2725156 C2.21175,55.2830625 2.20978125,55.2936094 2.20795312,55.3041563 C2.19178125,55.3966875 2.17757812,55.4897813 2.16576562,55.5832969 L2.16576562,55.5832969 C2.1403125,55.7835469 2.12470312,55.9826719 2.11865625,56.1834844 C2.2201875,59.3828438 4.800375,61.885125 8.0055,61.885125 L8.0055,61.885125 L42.4117969,61.885125 L46.6946719,57.60225 C47.0601562,57.2369063 47.6263125,57.1954219 48.0377812,57.4772344 C48.0910781,57.5137969 48.1419844,57.5548594 48.189375,57.60225 C48.6021094,58.0149844 48.6021094,58.6839375 48.189375,59.0968125 L48.189375,59.0968125 L37.5148125,69.7712344 L69.8866875,69.7712344 L69.8866875,64.7309531 L67.9369219,64.7309531 C67.3531875,64.7309531 66.880125,64.2578906 66.880125,63.6741563 C66.880125,63.0905625 67.3531875,62.6173594 67.9369219,62.6173594 L67.9369219,62.6173594 L69.8866875,62.6173594 L69.8866875,59.4327656 L67.9369219,59.4327656 C67.3531875,59.4327656 66.880125,58.9597031 66.880125,58.3759688 C66.880125,57.7922344 67.3531875,57.3191719 67.9369219,57.3191719 L67.9369219,57.3191719 L69.8866875,57.3191719 L69.8866875,54.1347188 L67.9369219,54.1347188 C67.3531875,54.1347188 66.880125,53.6616563 66.880125,53.0779219 C66.880125,52.4941875 67.3531875,52.021125 67.9369219,52.021125 L67.9369219,52.021125 L69.8866875,52.021125 L69.8866875,48.8365313 L67.9369219,48.8365313 C67.3531875,48.8365313 66.880125,48.3634688 66.880125,47.7797344 C66.880125,47.196 67.3531875,46.7229375 67.9369219,46.7229375 L67.9369219,46.7229375 L69.8866875,46.7229375 L69.8866875,37.3992188 L51.2955,55.9905469 L51.2955,55.9905469 L51.255668,56.0284629 L51.255668,56.0284629 L51.2147812,56.0635313 C51.0211406,56.2214531 50.7843281,56.3004844 50.5477969,56.3004844 C50.3112656,56.3004844 50.0745937,56.2214531 49.8808125,56.0635313 C49.8531094,56.0408906 49.82625,56.0167031 49.8005156,55.9909688 C49.3877812,55.5782344 49.3877812,54.9092813 49.8005156,54.4964063 L49.8005156,54.4964063 L64.9171406,39.3796406 L64.9171406,16.8028594 L55.7406562,16.8028594 L33.9938437,38.5495313 C33.9665625,38.5768125 33.9377344,38.6022656 33.9083437,38.6258906 L33.9083437,38.6258906 L33.8900625,38.6393906 C33.8657344,38.6582344 33.8409844,38.6760938 33.8155312,38.6924063 L33.8155312,38.6924063 L33.7917656,38.7064688 C33.7672969,38.721375 33.7424062,38.7352969 33.7170937,38.7479531 C33.7076719,38.7525938 33.6979687,38.7568125 33.6882656,38.7613125 C33.6639375,38.7724219 33.6393281,38.7828281 33.6142969,38.7921094 C33.6089531,38.7940781 33.6038906,38.79675 33.5985469,38.7987188 L33.5985469,38.7987188 L27.1537031,41.07375 L48.1508437,41.07375 C48.7345781,41.07375 49.2076406,41.5468125 49.2076406,42.1305469 C49.2076406,42.7142813 48.7345781,43.1873438 48.1508437,43.1873438 L48.1508437,43.1873438 L18.8848125,43.1873438 C18.3012187,43.1873438 17.8280156,42.7142813 17.8280156,42.1305469 C17.8280156,41.5468125 18.3012187,41.07375 18.8848125,41.07375 L18.8848125,41.07375 L22.3993125,41.07375 C22.4092969,41.0196094 22.4226562,40.9658906 22.4412187,40.9130156 L22.4412187,40.9130156 L23.8449375,36.9362813 L25.9038281,31.1038594 C25.9065,31.0964063 25.9101562,31.089375 25.9129687,31.0819219 C25.9209844,31.0608281 25.9297031,31.0397344 25.939125,31.0190625 C25.9453125,31.0052813 25.9513594,30.9919219 25.9581094,30.9787031 C25.968375,30.9583125 25.979625,30.9383438 25.9912969,30.9186563 C25.9986094,30.9061406 26.0056406,30.8937656 26.013375,30.8816719 C26.0270156,30.8608594 26.0416406,30.8408906 26.0565469,30.8210625 L26.0784844,30.79125 C26.1016875,30.7625625 26.1264375,30.7345781 26.152875,30.7081406 L26.152875,30.7081406 L31.1004844,25.7606719 C31.5130781,25.3480781 32.1821719,25.3480781 32.5949062,25.7606719 C33.0076406,26.1734063 33.0076406,26.8423594 32.5949062,27.2552344 L32.5949062,27.2552344 L28.3947187,31.4554219 L33.2468437,36.3075469 L55.126125,14.428125 L50.2741406,9.57585938 L43.3575,16.4925 L43.3575,16.4925 L43.3567969,16.4932031 L35.7105937,24.1394063 C35.298,24.552 34.6289062,24.552 34.2161719,24.1394063 C33.8034375,23.7266719 33.8034375,23.0577188 34.2161719,22.6448438 L34.2161719,22.6448438 L40.0582969,16.8027188 L9.36829687,16.8027188 L9.36829687,37.2303281 C9.36829687,37.8139219 8.89509375,38.287125 8.3115,38.287125 C7.72790625,38.287125 7.25470312,37.8139219 7.25470312,37.2303281 L7.25470312,37.2303281 Z M62.5561875,51.0398438 C62.8585313,50.7376406 63.3130313,50.6472188 63.7079063,50.8109063 C64.1027813,50.9744531 64.3602656,51.3597656 64.3604063,51.787125 L64.3604063,51.787125 L64.3604063,63.3360938 C64.3604063,63.9198281 63.8873438,64.3928906 63.3036094,64.3928906 L63.3036094,64.3928906 L51.7546406,64.3928906 C51.3272813,64.3928906 50.9416875,64.1355469 50.7782813,63.7405313 C50.6145938,63.3456563 50.7050156,62.8911563 51.0072188,62.5888125 L51.0072188,62.5888125 Z M62.2465313,54.3384844 L54.3055781,62.2794375 L62.2465313,62.2794375 L62.2465313,54.3384844 Z M27.338625,33.3881719 L26.2700156,36.4152656 L28.2868594,38.4321094 L31.3139531,37.3635 L27.338625,33.3881719 Z M53.7077812,6.14235938 L51.7689844,8.0814375 L56.6209687,12.9335625 L58.5600469,10.9944844 L53.7077812,6.14235938 Z M58.8645,2.55360938 C58.4325,2.12132813 57.7286719,2.12132813 57.2966719,2.55360938 L57.2966719,2.55360938 L55.2023437,4.64779688 L60.05475,9.5000625 L62.1487969,7.405875 C62.5810781,6.97359375 62.5810781,6.27004688 62.1487969,5.83790625 L62.1487969,5.83790625 Z" id="Combined-Shape" stroke="#07A39D" stroke-width="1.4" fill="#07A39D" fill-rule="nonzero"></path>
            </g>
        </g>
    </g>
</svg>