<?xml version="1.0" encoding="UTF-8"?>
<svg width="12px" height="12px" viewBox="0 0 12 12" version="1.1" xmlns="http://www.w3.org/2000/svg" xmlns:xlink="http://www.w3.org/1999/xlink">
    <!-- Generator: sketchtool 64 (101010) - https://sketch.com -->
    <title>D93454A4-D111-4634-8155-8B94522F75F6</title>
    <desc>Created with sketchtool.</desc>
    <g id="Desktop" stroke="none" stroke-width="1" fill="none" fill-rule="evenodd">
        <g id="RequestEstimate_s1_desktop" transform="translate(-846.000000, -1120.000000)" fill="#FFFFFF">
            <g id="icon_checkwhite" transform="translate(846.000000, 1120.000000)">
                <path d="M6,0 C9.3137085,0 12,2.6862915 12,6 C12,9.3137085 9.3137085,12 6,12 C2.6862915,12 0,9.3137085 0,6 C0,2.6862915 2.6862915,0 6,0 Z M9.42233129,3.64644661 C9.22706915,3.45118446 8.91048666,3.45118446 8.71522451,3.64644661 L8.71522451,3.64644661 L5.552,6.809 L4.35355339,5.61003478 L4.2843055,5.55217933 C4.08943736,5.41718328 3.82001296,5.43646843 3.64644661,5.61003478 C3.45118446,5.80529692 3.45118446,6.12187941 3.64644661,6.31714156 L3.64644661,6.31714156 L5.19904148,7.86973643 L5.26828936,7.92759188 C5.4631575,8.06258793 5.7325819,8.04330278 5.90614826,7.86973643 L5.90614826,7.86973643 L9.42233129,4.35355339 L9.48018674,4.2843055 C9.61518279,4.08943736 9.59589764,3.82001296 9.42233129,3.64644661 Z" id="check_circle"></path>
            </g>
        </g>
    </g>
</svg>