<?xml version="1.0" encoding="UTF-8"?>
<svg width="78px" height="78px" viewBox="0 0 78 78" version="1.1" xmlns="http://www.w3.org/2000/svg" xmlns:xlink="http://www.w3.org/1999/xlink">
    <title>ABE3ACC1-6666-4B31-82E6-666B6181F108</title>
    <g id="Services" stroke="none" stroke-width="1" fill="none" fill-rule="evenodd">
        <g id="Services/paversVsConcrete" transform="translate(-137.000000, -800.000000)">
            <g id="icon-crack" transform="translate(137.000000, 800.000000)">
                <rect id="Rectangle" fill="#213951" x="0" y="0" width="78" height="78" rx="3"></rect>
                <g id="crack" transform="translate(21.840000, 19.500000)">
                    <path d="M31.2115829,2.50321963 C31.5304336,2.35725527 31.90777,2.46101565 32.1071499,2.74915957 C32.3066012,3.03751773 32.2704671,3.42727969 32.0215279,3.67400515 L32.0215279,3.67400515 L24.6750362,10.9541559 L30.2280373,10.950871 L30.2280373,10.950871 L30.3288177,10.9578407 C30.5921671,10.994661 30.8174807,11.1745465 30.9090139,11.4300397 C31.0119887,11.7175409 30.9232247,12.0388196 30.6871395,12.2326294 L30.6871395,12.2326294 L19.4617379,21.4477362 L26.5811422,21.4576624 L26.5811422,21.4576624 L26.5912826,21.4582337 C26.6069216,21.4585193 26.6224892,21.4594477 26.6380569,21.4607331 C26.6436269,21.4612329 26.6494826,21.4615186 26.6548385,21.4621613 C26.8690719,21.4845844 27.0712368,21.6014844 27.1939211,21.7985791 C27.404941,22.1375678 27.3011806,22.5833875 26.9622634,22.794336 L26.9622634,22.794336 L1.1049349,38.8907624 C0.986892302,38.9642444 0.854496062,39.0000214 0.723170988,39.0000214 C0.529503996,39.0000214 0.337836516,38.9223261 0.197156584,38.7732196 C-0.0388572098,38.5230664 -0.0660648514,38.1412311 0.132243864,37.8602283 L0.132243864,37.8602283 L8.55068808,25.9308557 L1.7367092,25.9308557 C1.42214316,25.9308557 1.14371115,25.7274768 1.04802023,25.4278357 C0.952329314,25.1281946 1.06137411,24.8010602 1.31774008,24.618819 L1.31774008,24.618819 L15.1809975,14.7618689 L7.76266623,14.7618689 C7.42267782,14.7618689 7.12867819,14.5250696 7.0562673,14.1930078 C6.983785,13.8608747 7.15252951,13.5231714 7.46152548,13.3816345 L7.46152548,13.3816345 Z M9.22266684,27.486333 L3.37273825,35.776023 L9.22266684,32.1344123 L9.22266684,27.486333 Z M16.7224068,15.4397748 L14.0675551,17.3274567 L14.0675551,22.5826734 C14.0675551,22.9820044 13.7438485,23.3056397 13.3445888,23.3056397 C12.9453292,23.3056397 12.6216225,22.981933 12.6216225,22.5826734 L12.6216225,22.5826734 L12.6216225,18.3554914 L4.0010134,24.4849945 L9.94549032,24.4849945 C9.97633993,24.4849945 10.006404,24.4874939 10.0361825,24.4912787 C10.0438949,24.4923499 10.0515359,24.4936353 10.0591768,24.4948493 L10.0952305,24.5014994 L10.0952305,24.5014994 L10.130588,24.509917 C10.1363723,24.5114167 10.1421566,24.5127021 10.1478695,24.5143445 C10.1770052,24.5228424 10.2054983,24.53284 10.2329915,24.5447657 C10.2354909,24.5459082 10.2379189,24.547265 10.2403469,24.5483362 C10.2647695,24.5592621 10.2884066,24.5716876 10.311401,24.5851844 C10.3177566,24.5888977 10.3240407,24.5926825 10.3302535,24.5966101 C10.3522481,24.6105353 10.3734572,24.6253174 10.393738,24.6413849 C10.3967373,24.6437415 10.399808,24.6458124 10.4028072,24.648169 C10.4251589,24.6663788 10.4460824,24.6862311 10.4660775,24.7070117 L10.4660775,24.7070117 L10.482145,24.7246503 C10.4978554,24.7420746 10.512709,24.760213 10.5266341,24.7790656 L10.5387026,24.7952045 C10.5558413,24.8196985 10.5714803,24.8452637 10.5854769,24.8719001 C10.5860482,24.8731855 10.5869051,24.8741852 10.5875478,24.8753992 L10.5875478,24.8753992 L10.5915468,24.8846112 C10.6032583,24.9080341 10.6136129,24.932171 10.6228249,24.9568793 C10.6251101,24.9630921 10.6275381,24.9692334 10.629609,24.9754462 C10.6484615,25.0309326 10.6607442,25.0892041 10.6656002,25.1497608 C10.6663143,25.1586872 10.6665999,25.1673993 10.666957,25.1763257 L10.666957,25.1763257 L10.668528,25.2081037 L10.668528,31.2343463 L16.7224068,27.4657666 L16.7224068,15.4397748 Z M18.168268,22.8918122 L18.168268,26.5656293 L24.0566872,22.9000244 L18.168268,22.8918122 Z M13.3445888,24.4852802 C14.2764327,24.4852802 14.2749331,25.9311414 13.3445888,25.9311414 C12.412745,25.9311414 12.4142446,24.4852802 13.3445888,24.4852802 Z M28.1109829,5.51377017 L11.0769283,13.3161505 L17.4452303,13.3161505 C17.4677248,13.3161505 17.4900765,13.3175788 17.512214,13.3195783 L17.512214,13.3195783 L17.5347085,13.3222919 C17.5491335,13.3240772 17.5634872,13.3262909 17.5776266,13.3288617 C17.5862673,13.3305042 17.594908,13.3322895 17.603406,13.3341461 C17.616617,13.337074 17.629471,13.3405017 17.642325,13.3441437 C17.6506087,13.3465003 17.6589638,13.348714 17.6671047,13.3512848 C17.684172,13.3568549 17.7009536,13.3629962 17.7174496,13.3697089 L17.7174496,13.3697089 L17.7414437,13.3802063 C17.7552975,13.3864191 17.7690798,13.3928461 17.7825051,13.3999158 L17.7825051,13.3999158 L17.804714,13.4124842 C17.8161397,13.4191254 17.8274227,13.4259094 17.8384914,13.4330506 C17.8455611,13.4375495 17.8524166,13.4421198 17.8592007,13.4469043 C17.8709835,13.4551166 17.8823379,13.4636859 17.8936208,13.4726123 L17.8936208,13.4726123 L17.9096883,13.4853235 C17.9422518,13.5126026 17.9725301,13.5428095 18.0000234,13.57573 C18.0038796,13.5803003 18.0074502,13.5851563 18.011235,13.5899408 C18.0207326,13.6017951 18.0299447,13.613935 18.0386568,13.6265033 C18.0431557,13.6328589 18.047369,13.6393573 18.0516537,13.6459271 C18.0590804,13.6572815 18.0660787,13.6689215 18.0727913,13.6807044 C18.077076,13.6881311 18.0813607,13.6956293 18.0853597,13.7031989 C18.0915011,13.7148389 18.0970711,13.7267646 18.1025698,13.738833 C18.1061403,13.7466168 18.1099965,13.7544007 18.1133529,13.7623987 C18.1210653,13.7808942 18.1280636,13.7998896 18.1342049,13.8191706 L18.1342049,13.8191706 C18.13699,13.8280969 18.1390609,13.8367377 18.1414174,13.845307 C18.144988,13.858161 18.1485586,13.871015 18.1513436,13.883869 C18.1532717,13.892367 18.1547713,13.9010791 18.156271,13.9097199 L18.156271,13.9097199 L18.162698,13.9520667 C18.1636263,13.9595648 18.1644832,13.9671344 18.1651259,13.974704 C18.1667684,13.9930567 18.1676967,14.0114093 18.167911,14.0296906 C18.167911,14.0328327 18.1683394,14.0358319 18.1683394,14.038974 L18.1683394,20.639148 L22.1947848,17.3337409 L22.1947848,11.6781934 C22.1947848,11.6695526 22.1957845,11.6611261 22.1960702,11.6525568 C22.1964272,11.6441303 22.1967843,11.6357038 22.1973556,11.6272772 C22.2018545,11.562793 22.2147799,11.5007367 22.2350606,11.4419654 L22.2350606,11.4419654 L22.241559,11.424184 C22.2524135,11.3949768 22.2647677,11.3664838 22.2792641,11.3392047 C22.279764,11.338205 22.2801211,11.3372052 22.2806209,11.3362769 C22.2958315,11.3081409 22.3131844,11.2815045 22.3317513,11.2557965 C22.3359646,11.249798 22.3403921,11.2439423 22.3449624,11.2380866 C22.364529,11.2127356 22.3851668,11.1882416 22.4078756,11.1656757 C22.4081612,11.16539 22.4084469,11.1649616 22.4087325,11.1646759 L28.1109829,5.51377017 Z M28.2070309,12.3980176 L23.6405746,12.4007312 L23.6405746,16.146745 L28.2070309,12.3980176 Z" id="Combined-Shape" stroke="#FFFFFF" stroke-width="0.3" fill="#FFFFFF" fill-rule="nonzero" transform="translate(16.117789, 20.718761) scale(-1, 1) translate(-16.117789, -20.718761) "></path>
                    <g id="Group" transform="translate(23.156250, 0.000000)">
                        <path d="M5.484375,1.18489583 L5.484375,10.3932292 C5.484375,10.7110805 5.75720148,10.96875 6.09375,10.96875 C6.43029852,10.96875 6.703125,10.7110805 6.703125,10.3932292 L6.703125,1.18489583 C6.703125,0.867044454 6.43029852,0.609375 6.09375,0.609375 C5.75720148,0.609375 5.484375,0.867044454 5.484375,1.18489583 Z" id="Mask" fill="#FFFFFF" fill-rule="nonzero" transform="translate(6.093750, 5.789062) rotate(-45.000000) translate(-6.093750, -5.789062) "></path>
                        <circle id="Oval" stroke="#FFFFFF" stroke-width="2" cx="5.7890625" cy="5.7890625" r="4.7890625"></circle>
                    </g>
                </g>
            </g>
        </g>
    </g>
</svg>