<?xml version="1.0" encoding="UTF-8"?>
<svg width="50px" height="39px" viewBox="0 0 50 39" version="1.1" xmlns="http://www.w3.org/2000/svg" xmlns:xlink="http://www.w3.org/1999/xlink">
    <title>crewCheck</title>
    <g id="Locals-Template" stroke="none" stroke-width="1" fill="none" fill-rule="evenodd">
        <g id="LocalsTemplate/Tolland" transform="translate(-702.000000, -2661.000000)">
            <g id="crewCheck" transform="translate(703.000000, 2662.000000)">
                <g id="Group">
                    <ellipse id="Oval" fill="#DBEEED" cx="20.5" cy="17" rx="7.5" ry="11"></ellipse>
                    <path d="M12.7777778,27 L29.2222222,27 C32.2597883,27 34.7222222,29.4624339 34.7222222,32.5 L34.7222222,36 C34.7222222,37.1045695 33.8267917,38 32.7222222,38 L9.27777778,38 C8.17320828,38 7.27777778,37.1045695 7.27777778,36 L7.27777778,32.5 C7.27777778,29.4624339 9.74021165,27 12.7777778,27 Z" id="Rectangle" fill="#DBEEED"></path>
                    <g id="workerVector" transform="translate(-0.000000, -0.000000)" fill="#07A39D" fill-rule="nonzero" stroke="#07A39D" stroke-width="0.5">
                        <path d="M16.2296285,7.50017332e-15 C16.5200341,7.50017332e-15 16.7553446,0.235380642 16.7553446,0.525716146 L16.7553446,0.525716146 L16.7553446,1.16568793 L16.7739199,1.16568793 C20.6685653,1.16568793 23.8370916,4.33344314 23.8370916,8.2271072 L23.8370916,8.2271072 L23.8370916,10.4396011 L25.4096838,10.4396011 C25.7000894,10.4396011 25.9354,10.6749818 25.9354,10.9653173 L25.9354,10.9653173 L25.9354,11.8976573 C25.9354,12.6914887 25.4539141,13.3750599 24.7676092,13.671704 C24.813031,13.8950983 24.8346905,14.1252919 24.8323774,14.3605323 C24.8191293,15.676505 24.0226343,16.7812099 22.9703609,17.0628535 C22.9782116,17.252602 22.9875343,17.4044989 22.9983991,17.5141984 C22.9986795,17.516862 22.9988898,17.5195957 22.9991701,17.5223294 C23.0156426,17.7218212 23.024054,17.925799 23.024054,18.1285152 C23.024054,20.0699499 21.4487982,22.3284264 18.3421662,24.8414197 C18.2544768,24.9127068 18.1646144,24.9809097 18.0727192,25.0460284 L18.0727192,25.0460284 L17.9828568,25.2898906 C17.8103518,25.757778 17.7550464,26.2661105 17.8228989,26.7600734 C17.8574559,27.0122769 17.9231354,27.2576812 18.0185354,27.4925011 L18.0185354,27.4925011 L26.1856408,29.097127 C28.4471315,29.5347331 30.0896089,31.5251645 30.0896089,33.8296237 L30.0896089,33.8296237 L30.0896089,35.3631727 C30.0896089,35.6535082 29.8542984,35.8888889 29.5638928,35.8888889 L29.5638928,35.8888889 L19.7479312,35.8888889 C19.4575256,35.8888889 19.2222151,35.6535082 19.2222151,35.3631727 C19.2222151,35.0728372 19.4575256,34.8374566 19.7479312,34.8374566 L19.7479312,34.8374566 L21.4678641,34.8374566 L21.4678641,33.3047487 L8.64347439,33.3047487 L8.64347439,34.8374566 L17.2809907,34.8374566 C17.5713963,34.8374566 17.8067068,35.0728372 17.8067068,35.3631727 C17.8067068,35.6535082 17.5713963,35.8888889 17.2809907,35.8888889 L17.2809907,35.8888889 L0.577236328,35.8888889 C0.286900825,35.8888889 0.0515201823,35.6535082 0.0515201823,35.3631727 L0.0515201823,35.3631727 L0.0515201823,33.8296237 C0.0515201823,31.5251645 1.69399761,29.5348032 3.95696029,29.0968466 L3.95696029,29.0968466 L12.0553021,27.4929918 C12.150702,27.2583822 12.2163114,27.0131181 12.2510087,26.7609846 C12.3190714,26.2667413 12.2637661,25.7580584 12.091191,25.2899607 L12.091191,25.2899607 L11.9876599,25.0092283 C11.9122372,24.9544136 11.8382164,24.8974961 11.7656675,24.8384757 C8.66148893,22.3273049 7.08700412,20.0694592 7.08700412,18.1286554 C7.08700412,17.9151445 7.09548568,17.7117975 7.1122385,17.5241519 C7.12373416,17.4073027 7.1339681,17.2501487 7.14287023,17.0581571 C6.09914844,16.7690833 5.31134527,15.6692852 5.29823741,14.3606024 C5.29599436,14.1360866 5.31681272,13.911781 5.35950087,13.6937841 C4.64501758,13.4100375 4.13857769,12.7118865 4.13857769,11.8976573 L4.13857769,11.8976573 L4.13857769,10.9653173 C4.13857769,10.6749818 4.37395833,10.4396011 4.66429384,10.4396011 L4.66429384,10.4396011 L6.20541319,10.4396011 L6.20541319,8.2271072 C6.20541319,4.33344314 9.37386936,1.16568793 13.2685148,1.16568793 L13.2685148,1.16568793 L13.3962988,1.16568793 L13.3962988,0.525716146 C13.3962988,0.235380642 13.6316795,7.50017332e-15 13.922015,7.50017332e-15 L13.922015,7.50017332e-15 Z M4.7083839,30.019934 L4.15890538,30.1287222 C2.38717188,30.4715592 1.10288238,32.0278192 1.10288238,33.8296237 L1.10288238,33.8296237 L1.10288238,34.8374566 L4.7083839,34.8374566 L4.7083839,30.019934 Z M25.4028845,30.0148171 L25.4028845,34.8374566 L29.0381766,34.8374566 L29.0381766,33.8295536 C29.0381766,32.0277491 27.7538872,30.4714891 25.9844668,30.1290727 L25.9844668,30.1290727 L25.4028845,30.0148171 Z M7.5920421,33.3048188 L5.75988628,33.3048188 L5.75988628,34.8284143 L7.5920421,34.8284143 L7.5920421,33.3048188 Z M24.3513822,33.3047487 L22.5192263,33.3047487 L22.5192263,34.8283442 L24.3513822,34.8283442 L24.3513822,33.3047487 Z M22.5192263,29.4483053 L22.5192263,32.2533164 L24.3513822,32.2533164 L24.3513822,29.8082457 L22.5192263,29.4483053 Z M7.5920421,29.448796 L5.75988628,29.8116102 L5.75988628,32.2533164 L7.5920421,32.2533164 L7.5920421,29.448796 Z M18.115197,28.5831168 C17.8239503,30.0154479 16.554451,31.0967409 15.037094,31.0967409 C14.214173,31.0967409 13.4361832,30.7807504 12.8465399,30.2070189 C12.3867135,29.7595293 12.0818683,29.1977841 11.9582899,28.5840981 L11.9582899,28.5840981 L8.64347439,29.2405423 L8.64347439,32.2533865 L21.4677941,32.2533865 L21.4677941,29.241804 Z M13.2785384,25.6935004 C13.3427459,26.093255 13.3480731,26.5023322 13.2927678,26.9043299 C13.2370419,27.3091313 13.1220152,27.7007548 12.9504915,28.0705085 C12.9785297,28.5958741 13.1994707,29.0833882 13.5797387,29.4534223 C13.9719931,29.8350221 14.489508,30.0452385 15.037094,30.0452385 C16.1509813,30.0452385 17.0641152,29.1693954 17.1235562,28.0703683 C16.9518223,27.700194 16.8367956,27.30815 16.7811398,26.9031382 C16.7266756,26.5063978 16.7313019,26.102788 16.7932663,25.7080102 C16.2421756,25.9022448 15.6584905,26.0040234 15.0683566,26.0040234 L15.0683566,26.0040234 L15.0450148,26.0040234 C14.440301,26.0040935 13.842036,25.897268 13.2785384,25.6935004 Z M24.8839677,11.4910334 L5.19008008,11.4910334 L5.19008008,11.8976573 C5.19008008,12.3829985 5.58513824,12.7778464 6.07061957,12.7778464 L6.07061957,12.7778464 L9.42517925,12.7778464 C9.71551476,12.7778464 9.9508954,13.013227 9.9508954,13.3035625 C9.9508954,13.593898 9.71551476,13.8292786 9.42517925,13.8292786 L9.42517925,13.8292786 L8.23432704,13.8292786 C8.24196745,15.3070317 8.22584549,16.9447426 8.15918468,17.6222856 C8.14565625,17.7742526 8.13857661,17.9461968 8.13857661,18.1286554 C8.13857661,19.7138648 9.62193728,21.7516808 12.4282802,24.0220035 C13.1665959,24.6226517 14.0960621,24.9526612 15.047398,24.9526612 L15.047398,24.9526612 L15.0661135,24.9526612 C16.0163279,24.9526612 16.9434108,24.6234227 17.6801144,24.0248073 C20.4886302,21.7530126 21.9726918,19.7143555 21.9726918,18.1286554 C21.9726918,17.9560803 21.9656122,17.7826641 21.9516632,17.6131732 C21.8818481,16.8982693 21.8845818,15.0031678 21.8940447,13.8292786 L21.8940447,13.8292786 L11.883428,13.8292786 C11.5930924,13.8292786 11.3577118,13.593898 11.3577118,13.3035625 C11.3577118,13.013227 11.5930924,12.7778464 11.883428,12.7778464 L11.883428,12.7778464 L24.0034282,12.7778464 C24.4889796,12.7778464 24.8839677,12.3829985 24.8839677,11.8976573 L24.8839677,11.8976573 L24.8839677,11.4910334 Z M16.9586905,19.3356513 L17.052199,19.3519618 C17.332651,19.4271042 17.4991278,19.7153368 17.4240556,19.9957888 C17.1354724,21.0731565 16.1539253,21.8255614 15.0369538,21.8255614 C13.9203327,21.8255614 12.9389959,21.0731565 12.6504829,19.9957888 C12.5754106,19.7153368 12.7418874,19.4270341 13.0223394,19.3519618 C13.302441,19.2767493 13.5910241,19.4432962 13.6661664,19.7238184 C13.8318021,20.3422007 14.39551,20.7741291 15.0369538,20.7741291 C15.6788181,20.7741291 16.2427363,20.3422007 16.4083019,19.7238184 C16.4834442,19.4432962 16.7716068,19.2766793 17.052199,19.3519618 Z M23.7253594,13.8293487 L22.9454069,13.8293487 C22.9386777,14.6408442 22.9387478,15.3596734 22.9451265,15.95177 C23.4282947,15.692627 23.7737253,15.072352 23.7810152,14.3500881 C23.7827676,14.1734475 23.7637717,13.9975779 23.7253594,13.8293487 L23.7253594,13.8293487 Z M7.18296484,13.8293487 L6.40532552,13.8293487 C6.36691319,13.9975779 6.34798741,14.1733073 6.3497398,14.3500881 C6.35695964,15.0666042 6.69706293,15.6828837 7.174273,15.9456016 C7.18401628,15.3404672 7.18717057,14.6175725 7.18296484,13.8293487 L7.18296484,13.8293487 Z M16.7740601,2.21712023 L16.7554848,2.21712023 L16.7554848,10.4396011 L22.7857294,10.4396011 L22.7857294,8.75282335 L20.5168787,8.75282335 C20.2264731,8.75282335 19.9911625,8.51744271 19.9911625,8.2271072 C19.9911625,7.9367717 20.2264731,7.70139106 20.5168787,7.70139106 L20.5168787,7.70139106 L22.7629484,7.70139106 C22.4957444,4.63275087 19.9118145,2.21712023 16.7740601,2.21712023 L16.7740601,2.21712023 Z M15.7040525,8.75282335 L14.4478713,8.75282335 L14.4478713,10.4396011 L15.7040525,10.4396011 L15.7040525,8.75282335 Z M13.396439,2.21712023 L13.2686549,2.21712023 C10.1309707,2.21712023 7.5469707,4.63275087 7.27976671,7.70139106 L7.27976671,7.70139106 L9.52583637,7.70139106 C9.81617188,7.70139106 10.0515525,7.9367717 10.0515525,8.2271072 C10.0515525,8.51744271 9.81617188,8.75282335 9.52583637,8.75282335 L9.52583637,8.75282335 L7.25698568,8.75282335 L7.25698568,10.4396011 L13.396439,10.4396011 L13.396439,2.21712023 Z M15.7040525,1.05143229 L14.4478713,1.05143229 L14.4478713,7.70139106 L15.7040525,7.70139106 L15.7040525,1.05143229 Z" id="Combined-Shape"></path>
                    </g>
                </g>
                <g id="check" transform="translate(33.000000, 9.000000)">
                    <g id="circle_green" fill="#07A39D">
                        <circle id="Oval" cx="8" cy="8" r="8"></circle>
                    </g>
                    <polyline id="Path-4" stroke="#FFFFFF" stroke-linecap="round" stroke-linejoin="round" points="5.33333333 8.29085286 7.14469401 10.1022135 11.2469076 6"></polyline>
                </g>
            </g>
        </g>
    </g>
</svg>