<?xml version="1.0" encoding="UTF-8"?>
<svg width="78px" height="78px" viewBox="0 0 78 78" version="1.1" xmlns="http://www.w3.org/2000/svg" xmlns:xlink="http://www.w3.org/1999/xlink">
    <title>C8FDB1C6-7F65-481E-837C-582FDD189CE0</title>
    <g id="Services" stroke="none" stroke-width="1" fill="none" fill-rule="evenodd">
        <g id="Services/paversVsConcrete" transform="translate(-137.000000, -993.000000)">
            <g id="icon-designs" transform="translate(137.000000, 993.000000)">
                <rect id="Rectangle-Copy" fill="#213951" x="0" y="0" width="78" height="78" rx="3"></rect>
                <g id="pattern" transform="translate(19.500000, 19.500000)" fill="#FFFFFF" fill-rule="nonzero" stroke="#213951" stroke-width="0.4">
                    <path d="M5.40820312,25.330719 L5.40820312,32.4492188 C5.40820312,33.0803146 5.91968538,33.5917969 6.55078125,33.5917969 L13.669281,33.5917969 L18.6879959,38.6613922 C18.9025269,38.878006 19.195015,39 19.5,39 C19.804985,39 20.0974731,38.878006 20.3120041,38.6613922 L25.330719,33.5917969 L32.4492188,33.5917969 C33.0803146,33.5917969 33.5917969,33.0803146 33.5917969,32.4492188 L33.5917969,25.330719 L38.6613922,20.3120041 C38.878006,20.0974731 39,19.804985 39,19.5 C39,19.195015 38.878006,18.9025269 38.6613922,18.6879959 L33.5917969,13.669281 L33.5917969,6.55078125 C33.5917969,5.91968538 33.0803146,5.40820312 32.4492188,5.40820312 L25.330719,5.40820312 L20.3120041,0.33860775 C20.0974731,0.12199398 19.804985,6.76542156e-17 19.5,6.76542156e-17 C19.195015,6.76542156e-17 18.9025269,0.12199398 18.6879959,0.33860775 L13.669281,5.40820312 L6.55078125,5.40820312 C5.91968538,5.40820312 5.40820312,5.91968538 5.40820312,6.55078125 L5.40820312,13.669281 L0.33860775,18.6879959 C0.12199398,18.9025269 6.76542156e-17,19.195015 6.76542156e-17,19.5 C6.76542156e-17,19.804985 0.12199398,20.0974731 0.33860775,20.3120041 L5.40820312,25.330719 Z M7.69335937,31.3066406 L7.69335937,27.5929642 L7.93556217,27.8327865 C8.55535124,28.4525757 9.35545345,28.784935 10.1683503,28.8298645 C10.2141724,29.6743011 10.5643844,30.4616089 11.1633454,31.0602722 L11.4070358,31.3066406 L7.69335937,31.3066406 Z M12.787056,9.54737093 L14.6226196,7.69335937 L17.2148438,7.69335937 C17.8447494,7.69335937 18.3574219,8.21585083 18.3574219,8.8582535 L18.3574219,12.1711349 L16.7414474,13.7871094 L15.4030838,13.7871094 L12.7831878,11.1672135 C12.3377609,10.7217865 12.3377609,9.99696354 12.787056,9.54737093 Z M26.2168122,9.55153654 C26.6625366,9.99696354 26.6625366,10.7217865 26.2168122,11.1672135 L23.5969162,13.7871094 L22.2585526,13.7871094 L20.6425781,12.1711349 L20.6425781,8.8582535 C20.6425781,8.21585083 21.1552506,7.69335937 21.7851562,7.69335937 L24.3773804,7.69335937 L26.2168122,9.55153654 Z M26.212944,29.4526291 L24.3773804,31.3066406 L21.7851562,31.3066406 C21.1552506,31.3066406 20.6425781,30.7841492 20.6425781,30.1417465 L20.6425781,26.8288651 L22.2585526,25.2128906 L23.5969162,25.2128906 L26.2168122,27.8327865 C26.4328308,28.0485077 26.5515518,28.3353424 26.5515518,28.640625 C26.5515518,28.9459076 26.4328308,29.2327423 26.212944,29.4526291 L26.212944,29.4526291 Z M12.7831878,29.4484635 C12.5671692,29.2327423 12.4484482,28.9459076 12.4484482,28.640625 C12.4484482,28.3353424 12.5671692,28.0485077 12.7831878,27.8327865 L15.4030838,25.2128906 L16.7414474,25.2128906 L18.3574219,26.8288651 L18.3574219,30.141449 C18.3574219,30.7838516 17.8447494,31.3066406 17.2148438,31.3066406 L14.6226196,31.3066406 L12.7831878,29.4484635 Z M19.5,14.2605057 L20.9773178,15.737526 C21.1915512,15.9520569 21.4819565,16.0722656 21.7851562,16.0722656 L22.9277344,16.0722656 L22.9277344,17.2148437 C22.9277344,17.5177459 23.0479431,17.8084488 23.262474,18.0226822 L24.7394943,19.5 L23.262474,20.9773178 C23.0479431,21.1915512 22.9277344,21.4822541 22.9277344,21.7851562 L22.9277344,22.9277344 L21.7851562,22.9277344 C21.4819565,22.9277344 21.1915512,23.0479431 20.9773178,23.262474 L19.5,24.7394943 L18.0226822,23.262474 C17.8084488,23.0479431 17.5180435,22.9277344 17.2148438,22.9277344 L16.0722656,22.9277344 L16.0722656,21.7851562 C16.0722656,21.4822541 15.9520569,21.1915512 15.737526,20.9773178 L14.2605057,19.5 L15.737526,18.0226822 C15.9520569,17.8084488 16.0722656,17.5177459 16.0722656,17.2148437 L16.0722656,16.0722656 L17.2148438,16.0722656 C17.5180435,16.0722656 17.8084488,15.9520569 18.0226822,15.737526 L19.5,14.2605057 Z M25.2128906,23.5969162 L25.2128906,22.2585526 L26.8288651,20.6425781 L30.1417465,20.6425781 C30.7841492,20.6425781 31.3066406,21.1552506 31.3066406,21.7851562 L31.3066406,24.3773804 L29.4484635,26.2168122 C29.0030365,26.6622391 28.2782135,26.6622391 27.8327865,26.2168122 L25.2128906,23.5969162 Z M31.3066406,17.2148438 C31.3066406,17.8447494 30.7841492,18.3574219 30.1417465,18.3574219 L26.8288651,18.3574219 L25.2128906,16.7414474 L25.2128906,15.4030838 L27.8327865,12.7831878 C28.2782135,12.3377609 29.0030365,12.3377609 29.4526291,12.787056 L31.3066406,14.6226196 L31.3066406,17.2148438 Z M13.7871094,15.4030838 L13.7871094,16.7414474 L12.1711349,18.3574219 L8.8582535,18.3574219 C8.21585083,18.3574219 7.69335937,17.8447494 7.69335937,17.2148438 L7.69335937,14.6226196 L9.55153654,12.7831878 C9.99696354,12.3377609 10.7217865,12.3377609 11.1672135,12.7831878 L13.7871094,15.4030838 Z M7.69335937,21.7851562 C7.69335937,21.1552506 8.21585083,20.6425781 8.8582535,20.6425781 L12.1711349,20.6425781 L13.7871094,22.2585526 L13.7871094,23.5969162 L11.1672135,26.2168122 C10.7217865,26.6622391 9.99696354,26.6622391 9.54737093,26.212944 L7.69335937,24.3773804 L7.69335937,21.7851562 Z M19.5,36.2334137 L16.8848648,33.5917969 L17.2148437,33.5917969 C18.0920105,33.5917969 18.8930054,33.2579499 19.5,32.7104645 C20.1069946,33.2579499 20.9079895,33.5917969 21.7851562,33.5917969 L22.1151352,33.5917969 L19.5,36.2334137 Z M31.3066406,31.3066406 L27.5929642,31.3066406 L27.8327865,31.0644378 C28.435318,30.4619064 28.7858276,29.6745987 28.8316497,28.8304596 C29.6436539,28.7858276 30.4425659,28.454361 31.0602722,27.8366546 L31.3066406,27.5929642 L31.3066406,31.3066406 Z M36.2334137,19.5 L33.5917969,22.1151352 L33.5917969,21.7851563 C33.5917969,20.9079895 33.2579499,20.1069946 32.7104645,19.5 C33.2579499,18.8930054 33.5917969,18.0920105 33.5917969,17.2148438 L33.5917969,16.8848648 L36.2334137,19.5 Z M31.3066406,7.69335937 L31.3066406,11.4070358 L31.0644378,11.1672135 C30.4622039,10.5649796 29.6751938,10.2144699 28.8316497,10.1683503 C28.7855301,9.32450863 28.435318,8.53809359 27.8366546,7.93972778 L27.5929642,7.69335937 L31.3066406,7.69335937 Z M19.5,2.76658627 L22.1151352,5.40820312 L21.7851563,5.40820312 C20.9079895,5.40820312 20.1069946,5.74145508 19.5,6.28894043 C18.8930054,5.74145508 18.0920105,5.40820312 17.2148438,5.40820312 L16.8848648,5.40820312 L19.5,2.76658627 Z M7.69335937,7.69335937 L11.4070358,7.69335937 L11.1672135,7.93556217 C10.5649796,8.53779606 10.2144699,9.32450863 10.1686478,10.1683503 C9.32480623,10.2144699 8.53809359,10.564682 7.93972778,11.1633454 L7.69335937,11.4070358 L7.69335937,7.69335937 Z M5.40820313,16.8848648 L5.40820313,17.2148437 C5.40820313,18.0920105 5.74205013,18.8930054 6.28953548,19.5 C5.74205013,20.1069946 5.40820313,20.9079895 5.40820313,21.7851562 L5.40820313,22.1151352 L2.76658627,19.5 L5.40820313,16.8848648 Z" id="Shape"></path>
                </g>
            </g>
        </g>
    </g>
</svg>