<?xml version="1.0" encoding="UTF-8"?>
<svg width="93px" height="79px" viewBox="0 0 93 79" version="1.1" xmlns="http://www.w3.org/2000/svg" xmlns:xlink="http://www.w3.org/1999/xlink">
    <title>657DC4C6-0AEA-49D0-8F48-01933ADFE881</title>
    <g id="Locals" stroke="none" stroke-width="1" fill="none" fill-rule="evenodd">
        <g id="LocalFinancing-Landingpage" transform="translate(-285.000000, -3508.000000)">
            <g id="icon/estimate" transform="translate(285.000000, 3509.000000)">
                <ellipse id="Oval" fill="#DBEEED" cx="72.1973684" cy="57.28125" rx="20.8026316" ry="20.71875"></ellipse>
                <rect id="Rectangle" fill="#DBEEED" x="31.8157895" y="4.875" width="48.9473684" height="63.375" rx="3"></rect>
                <path d="M61.2893709,0 C64.0571124,0 66.3083882,2.24219803 66.3083882,4.9987793 L66.3083882,4.9987793 L66.3083882,34.6829367 C77.8291614,33.4081363 87.8184622,42.4210024 87.8184622,53.8439941 C87.8184622,64.4753265 79.1337698,73.125 68.4593956,73.125 C61.6999668,73.125 55.7398838,69.6559811 52.2764259,64.4128418 L52.2764259,64.4128418 L19.7032278,64.4128418 C16.9354863,64.4128418 14.6842105,62.1706438 14.6842105,59.4140625 L14.6842105,59.4140625 L14.6842105,4.9987793 C14.6842105,2.24219803 16.9354863,0 19.7032278,0 L19.7032278,0 Z M68.4593956,38.8476562 C60.156731,38.8476562 53.4023438,45.574808 53.4023438,53.8439941 C53.4023438,62.1131802 60.156731,68.840332 68.4593956,68.840332 C76.7620601,68.840332 83.5164474,62.1131802 83.5164474,53.8439941 C83.5164474,45.574808 76.7620601,38.8476562 68.4593956,38.8476562 Z M61.2893709,4.28466797 L19.7032278,4.28466797 C19.3077562,4.28466797 18.9862253,4.60490234 18.9862253,4.9987793 L18.9862253,4.9987793 L18.9862253,59.4140625 C18.9862253,59.8079395 19.3077562,60.1281738 19.7032278,60.1281738 L19.7032278,60.1281738 L50.1567873,60.1281738 C49.2095598,57.3983717 48.8891494,54.4772101 49.2370075,51.5588379 L49.2370075,51.5588379 L34.0432771,51.5588379 C32.8551817,51.5588379 31.8922697,50.5998087 31.8922697,49.4165039 C31.8922697,48.2331992 32.8551817,47.2741699 34.0432771,47.2741699 L34.0432771,47.2741699 L50.2581759,47.2741699 C50.8155334,45.7471991 51.5616639,44.3094922 52.4679999,42.989502 L52.4679999,42.989502 L34.0432771,42.989502 C32.8551817,42.989502 31.8922697,42.0304727 31.8922697,40.847168 C31.8922697,39.6638632 32.8551817,38.704834 34.0432771,38.704834 L34.0432771,38.704834 L38.5665992,38.7040352 C38.7655647,38.7039645 38.9622454,38.7038898 39.156668,38.7038115 L40.8462255,38.703019 C41.0273403,38.7029221 41.2062774,38.7028226 41.3830633,38.7027208 L42.4181801,38.7020852 C42.5864688,38.7019755 42.7526598,38.7018643 42.9167801,38.7017517 L43.8768656,38.7010629 C44.0328095,38.7009464 44.1867362,38.7008291 44.3386722,38.7007116 L45.2266156,38.7000048 C45.6588578,38.699652 46.0736664,38.699302 46.4717637,38.6989636 L47.2458903,38.6983048 C47.3712691,38.6981985 47.4948446,38.6980941 47.6166435,38.6979919 L48.6655888,38.6971425 C48.7769691,38.6970569 48.886653,38.6969745 48.9946674,38.6968956 L50.4930102,38.6960212 C50.5849977,38.6959861 50.6754495,38.6959563 50.7643922,38.6959319 L51.7609817,38.6959254 C51.8382799,38.6959504 51.9141761,38.6959822 51.988697,38.6960212 L52.8186452,38.6968523 C55.4404509,38.7010056 55.9302461,38.719353 56.1317306,38.7743113 L56.159372,38.7826179 C56.1637072,38.7840468 56.1679244,38.7854981 56.1720503,38.7869721 L56.1959249,38.7960921 C56.2307361,38.8101894 56.262489,38.8261826 56.310685,38.8443088 C57.9995619,37.4847078 59.9214647,36.4023828 62.0063734,35.6659555 L62.0063734,35.6659555 L62.0063734,4.9987793 C62.0063734,4.60490234 61.6848425,4.28466797 61.2893709,4.28466797 L61.2893709,4.28466797 Z M68.4593956,42.989502 C69.647491,42.989502 70.610403,43.9485312 70.610403,45.1318359 L70.610403,45.1318359 L70.610403,53.7011719 C70.610403,54.8844766 69.647491,55.8435059 68.4593956,55.8435059 L68.4593956,55.8435059 L62.0063734,55.8435059 C60.8182779,55.8435059 59.855366,54.8844766 59.855366,53.7011719 C59.855366,52.5178671 60.8182779,51.5588379 62.0063734,51.5588379 L62.0063734,51.5588379 L66.3083882,51.5588379 L66.3083882,45.1318359 C66.3083882,43.9485312 67.2713001,42.989502 68.4593956,42.989502 Z M25.4392475,47.2741699 C26.627343,47.2741699 27.5902549,48.2331992 27.5902549,49.4165039 C27.5902549,50.5998087 26.627343,51.5588379 25.4392475,51.5588379 C24.2511521,51.5588379 23.2882401,50.5998087 23.2882401,49.4165039 C23.2882401,48.2331992 24.2511521,47.2741699 25.4392475,47.2741699 Z M25.4392475,38.704834 C26.627343,38.704834 27.5902549,39.6638632 27.5902549,40.847168 C27.5902549,42.0304727 26.627343,42.989502 25.4392475,42.989502 C24.2511521,42.989502 23.2882401,42.0304727 23.2882401,40.847168 C23.2882401,39.6638632 24.2511521,38.704834 25.4392475,38.704834 Z M55.5533512,30.135498 C56.7414466,30.135498 57.7043586,31.0945273 57.7043586,32.277832 C57.7043586,33.4611368 56.7414466,34.420166 55.5533512,34.420166 L55.5533512,34.420166 L34.0432771,34.420166 C32.8551817,34.420166 31.8922697,33.4611368 31.8922697,32.277832 C31.8922697,31.0945273 32.8551817,30.135498 34.0432771,30.135498 L34.0432771,30.135498 Z M25.4392475,30.135498 C26.627343,30.135498 27.5902549,31.0945273 27.5902549,32.277832 C27.5902549,33.4611368 26.627343,34.420166 25.4392475,34.420166 C24.2511521,34.420166 23.2882401,33.4611368 23.2882401,32.277832 C23.2882401,31.0945273 24.2511521,30.135498 25.4392475,30.135498 Z M55.5533512,21.5661621 C56.7414466,21.5661621 57.7043586,22.5251913 57.7043586,23.7084961 C57.7043586,24.8918008 56.7414466,25.8508301 55.5533512,25.8508301 L55.5533512,25.8508301 L34.0432771,25.8508301 C32.8551817,25.8508301 31.8922697,24.8918008 31.8922697,23.7084961 C31.8922697,22.5251913 32.8551817,21.5661621 34.0432771,21.5661621 L34.0432771,21.5661621 Z M25.4392475,21.5661621 C26.627343,21.5661621 27.5902549,22.5251913 27.5902549,23.7084961 C27.5902549,24.8918008 26.627343,25.8508301 25.4392475,25.8508301 C24.2511521,25.8508301 23.2882401,24.8918008 23.2882401,23.7084961 C23.2882401,22.5251913 24.2511521,21.5661621 25.4392475,21.5661621 Z M55.5533512,12.9968262 C56.7414466,12.9968262 57.7043586,13.9558554 57.7043586,15.1391602 C57.7043586,16.3224649 56.7414466,17.2814941 55.5533512,17.2814941 L55.5533512,17.2814941 L34.0432771,17.2814941 C32.8551817,17.2814941 31.8922697,16.3224649 31.8922697,15.1391602 C31.8922697,13.9558554 32.8551817,12.9968262 34.0432771,12.9968262 L34.0432771,12.9968262 Z M25.4392475,12.9968262 C26.627343,12.9968262 27.5902549,13.9558554 27.5902549,15.1391602 C27.5902549,16.3224649 26.627343,17.2814941 25.4392475,17.2814941 C24.2511521,17.2814941 23.2882401,16.3224649 23.2882401,15.1391602 C23.2882401,13.9558554 24.2511521,12.9968262 25.4392475,12.9968262 Z" id="Combined-Shape" stroke="#07A39D" stroke-width="0.2" fill="#07A39D" fill-rule="nonzero"></path>
            </g>
        </g>
    </g>
</svg>