<?xml version="1.0" encoding="UTF-8"?>
<svg width="93px" height="78px" viewBox="0 0 93 78" version="1.1" xmlns="http://www.w3.org/2000/svg" xmlns:xlink="http://www.w3.org/1999/xlink">
    <title>00B1E2AC-4961-442D-83AF-A563C47BCF4F</title>
    <g id="Locals" stroke="none" stroke-width="1" fill="none" fill-rule="evenodd">
        <g id="LocalFinancing-Landingpage" transform="translate(-282.000000, -3830.000000)" fill-rule="nonzero">
            <g id="icon/financing" transform="translate(282.000000, 3830.000000)">
                <path d="M69.7629634,38.1685269 C66.2184856,32.3572983 60.9988271,26.7945996 57.5490367,22.410056 C60.008685,19.262996 59.1556098,14.6401058 55.6188374,12.6002135 C56.5747498,11.2353658 57.7434495,10.656988 57.8926673,10.5871813 C59.2551871,10.0393531 60.3395721,7.26582568 58.936599,4.84561194 C58.0626303,3.33775635 56.4972514,2.4375 54.7493141,2.4375 L40.9445215,2.4375 C39.196436,2.4375 37.6310571,3.33775635 36.7570885,4.84531677 C35.3517445,7.26966284 36.4429458,10.040829 37.8010201,10.5868861 C37.9503861,10.6568405 39.1190858,11.2352183 40.0748501,12.5999183 C36.5598602,14.6272661 35.6765562,19.2373165 38.1353154,22.3978066 C32.4210304,29.6522494 22.0263158,39.9829124 22.0263158,49.6599302 C22.0263158,65.8053636 36.009666,70.0492606 52.2443226,68.9482914 C55.8187329,74.3938092 61.9937111,78 68.9995374,78 C80.0299464,78 89.0039062,69.0622255 89.0039062,58.0762939 C89.0039062,47.3450907 80.4408509,38.5698051 69.7629634,38.1685269 Z" id="Combined-Shape" fill="#DBEEED"></path>
                <path d="M47.4072089,0 C49.1551462,0 50.7205251,0.900256348 51.5944937,2.40811194 C52.9974668,4.82832568 51.9130818,7.60185315 50.550562,8.14968127 C50.4013443,8.21948804 49.2326446,8.79786584 48.2767321,10.1627135 C51.8135045,12.2026058 52.6665797,16.825496 50.2069314,19.972556 C53.6567219,24.3570996 58.8763803,29.9197983 62.4208581,35.7310269 C73.0987457,36.1323051 81.661801,44.9075907 81.661801,55.6387939 C81.661801,66.6247255 72.6878411,75.5625 61.6574322,75.5625 C54.6516058,75.5625 48.4766276,71.9563092 44.9022174,66.5107914 C28.6675607,67.6117606 14.6842105,63.3678636 14.6842105,47.2224302 C14.6842105,37.5454124 25.0789251,27.2147494 30.7932101,19.9603066 C28.3344509,16.7998165 29.2177549,12.1897661 32.7327448,10.1624183 C31.7769805,8.79771826 30.6082808,8.21934045 30.4589149,8.14938611 C29.1008405,7.60332898 28.0096392,4.83216284 29.4149832,2.40781677 C30.2889518,0.900256348 31.8543307,0 33.6024162,0 L33.6024162,0 Z M61.6574322,40.1425781 C53.0782252,40.1425781 46.0984786,47.0941805 46.0984786,55.6387939 C46.0984786,64.1834073 53.0782252,71.1350098 61.6574322,71.1350098 C70.2366391,71.1350098 77.2163857,64.1834073 77.2163857,55.6387939 C77.2163857,47.0941805 70.2366391,40.1425781 61.6574322,40.1425781 Z M64.7552939,49.34674 C65.6231871,48.4823463 67.0306056,48.4823463 67.898647,49.34674 C68.7666885,50.2112812 68.7666885,51.6130247 67.898647,52.4774183 L67.898647,52.4774183 L58.4684394,61.869601 C57.600398,62.7341422 56.1931277,62.7341422 55.3250862,61.869601 C54.4570448,61.0050597 54.4570448,59.6033163 55.3250862,58.7389226 L55.3250862,58.7389226 Z M64.6609029,58.6345814 C65.5261289,57.7728442 66.9286574,57.7728442 67.7937352,58.6345814 C68.6588131,59.496171 68.6588131,60.8931918 67.7937352,61.7547814 C66.9286574,62.616371 65.5259807,62.616371 64.6609029,61.7547814 C63.7958251,60.8931918 63.7958251,59.496171 64.6609029,58.6345814 Z M34.5476597,22.3654669 C29.241612,29.1835067 19.1296258,39.264902 19.1296258,47.2224302 C19.1296258,59.9848184 29.974661,62.5734243 42.7629353,62.1836576 C42.0174392,60.0544775 41.642098,57.8208087 41.6543969,55.5331245 C40.1951153,56.522521 38.1826758,55.488702 38.1826758,53.7020621 L38.1826758,53.7020621 L38.1826758,53.425344 C37.0028626,53.1729771 35.9021777,52.7204875 35.0411008,52.159377 C34.0139135,51.4899404 33.7258506,50.1178612 34.3979974,49.0948158 C35.069996,48.0716228 36.447482,47.7844263 37.4749657,48.4543055 C38.5789105,49.1736251 40.4173861,49.4385366 41.3316598,49.0102507 C41.9719478,48.7100669 42.4495336,48.0862335 42.5199193,47.4575299 C42.6675071,46.1412371 40.8865255,45.4870016 39.6661109,45.0070616 C38.1306644,44.4030044 36.2195804,43.6512166 35.1300091,41.6921997 C33.5698165,38.8866467 34.9719005,35.135677 38.182824,33.9352368 L38.182824,33.9352368 L38.182824,33.6087832 C38.182824,32.3862056 39.1780043,31.3950381 40.4055316,31.3950381 C41.633059,31.3950381 42.6282393,32.3862056 42.6282393,33.6087832 L42.6282393,33.6087832 L42.6282393,33.7870635 C43.5722973,34.0510895 44.4453769,34.5025459 45.1338235,35.1350867 C46.0360946,35.9639128 46.0929959,37.3644756 45.260666,38.2631085 C44.4283361,39.1617415 43.0221031,39.2184133 42.1198319,38.389292 C41.6145364,37.925291 40.1768891,37.7478962 39.5047423,38.1980244 C39.0332319,38.5137045 38.8016258,39.156576 39.018562,39.5469331 C39.7533892,40.8682438 43.4767209,40.9497096 45.6689033,43.6783718 C48.5090792,39.9217939 52.6510208,37.1949027 57.4209514,36.1663967 C54.0443621,31.1893074 49.5642726,26.3822336 46.4461101,22.3691565 C46.3259881,22.3967159 46.2158041,22.4201771 46.107707,22.4401048 L45.9461452,22.4674168 C45.9101543,22.4729285 45.873959,22.4780791 45.8372687,22.4828893 L45.7254217,22.4963199 C45.3457094,22.5378248 44.8874127,22.5473889 44.0597529,22.5459277 L43.8000833,22.5451795 C43.0313092,22.542241 41.9746615,22.5328478 40.451566,22.5298449 L39.894344,22.5290713 C38.836196,22.5282161 37.5739571,22.5306691 36.0592491,22.53991 C35.5392837,22.53991 35.0336918,22.4782203 34.5476597,22.3654669 Z M55.2203226,49.2319204 C56.0854004,48.3703308 57.4880771,48.3703308 58.353155,49.2319204 C59.2182328,50.0936576 59.2182328,51.4906783 58.353155,52.3522679 C57.4880771,53.2138575 56.0854004,53.2138575 55.2203226,52.3522679 C54.3552448,51.4905308 54.3552448,50.09351 55.2203226,49.2319204 Z M44.7371443,13.6998354 L36.316935,13.6998354 C36.0591009,13.7585735 35.8337183,13.7668381 35.6104103,13.7454386 C34.6033756,13.9526451 33.8439505,14.8425707 33.8439505,15.9060538 C33.8439505,17.1467842 34.8735086,18.1124198 36.0592491,18.1124198 L36.0592491,18.1124198 L44.9500797,18.1124198 C46.136561,18.1124198 47.1653783,17.1460463 47.1653783,15.9060538 C47.1653783,14.8294358 46.3865415,13.9318359 45.360836,13.7393877 C45.1559024,13.7553267 44.9466715,13.7433724 44.7371443,13.6998354 L44.7371443,13.6998354 Z M46.4075992,4.41190673 L46.1259645,4.4119142 C46.0925446,4.41197097 46.0583991,4.41204539 46.0235115,4.41213645 L45.8051475,4.41287448 C44.667475,4.41748302 42.8320802,4.43526576 39.8521167,4.43916356 L37.5735194,4.43928039 C36.3940448,4.43792871 35.075811,4.43433272 33.602268,4.42749023 C33.4401586,4.42749023 33.3225032,4.50467615 33.2501911,4.64856958 C34.3784376,5.36611816 36.1678654,6.81243164 37.3294524,9.27219763 L37.3294524,9.27219763 L43.6800245,9.27219763 C44.8416115,6.81228406 46.6311876,5.36611816 47.7592858,4.64856958 L47.7592858,4.64856958 L47.747892,4.62489064 L47.747892,4.62489064 L47.7377522,4.60276564 L47.7377522,4.60276564 L47.7180567,4.56298504 C47.7023856,4.53531214 47.6829032,4.51239672 47.6475446,4.49350818 L47.6214879,4.48150439 C47.4924568,4.43009974 47.1964109,4.41347589 46.4075992,4.41190673 Z" id="Combined-Shape" fill="#07A39D"></path>
            </g>
        </g>
    </g>
</svg>