<?xml version="1.0" encoding="UTF-8"?>
<svg width="60px" height="60px" viewBox="0 0 60 60" version="1.1" xmlns="http://www.w3.org/2000/svg" xmlns:xlink="http://www.w3.org/1999/xlink">
    <title>form-fast</title>
    <g id="Marketplace" stroke="none" stroke-width="1" fill="none" fill-rule="evenodd">
        <g id="Marketplace/comingSoon" transform="translate(-136.000000, -630.000000)">
            <g id="efficient" transform="translate(136.000000, 630.000000)">
                <rect id="Rectangle" fill="#DBEEED" x="9.23076923" y="9.23076923" width="32.3076923" height="41.5384615" rx="1"></rect>
                <circle id="Oval" fill="#DBEEED" cx="42.6923077" cy="42.6923077" r="17.3076923"></circle>
                <path d="M35.15625,0 C37.2440749,0 38.9423077,1.69823282 38.9423077,3.78605769 L38.9423077,3.78605769 L38.9423077,26.2687331 C47.6329158,25.3032038 55.1682692,32.1295166 55.1682692,40.78125 C55.1682692,48.8333834 48.6170373,55.3846154 40.5649038,55.3846154 C35.4659799,55.3846154 30.9700364,52.7571928 28.3574031,48.7860577 L28.3574031,48.7860577 L3.78605769,48.7860577 C1.69823282,48.7860577 0,47.0878249 0,45 L0,45 L0,3.78605769 C0,1.69823282 1.69823282,0 3.78605769,0 L3.78605769,0 Z M40.5649038,29.4230769 C34.3018517,29.4230769 29.2067308,34.5181978 29.2067308,40.78125 C29.2067308,47.0443022 34.3018517,52.1394231 40.5649038,52.1394231 C46.827956,52.1394231 51.9230769,47.0443022 51.9230769,40.78125 C51.9230769,34.5181978 46.827956,29.4230769 40.5649038,29.4230769 Z M35.15625,3.24519231 L3.78605769,3.24519231 C3.48773668,3.24519231 3.24519231,3.48773668 3.24519231,3.78605769 L3.24519231,3.78605769 L3.24519231,45 C3.24519231,45.298321 3.48773668,45.5408654 3.78605769,45.5408654 L3.78605769,45.5408654 L26.7584699,45.5408654 C26.0439359,43.473323 25.8022367,41.2608455 26.0646409,39.0504808 L26.0646409,39.0504808 L14.6033654,39.0504808 C13.7071346,39.0504808 12.9807692,38.3241154 12.9807692,37.4278846 C12.9807692,36.5316538 13.7071346,35.8052885 14.6033654,35.8052885 L14.6033654,35.8052885 L26.8349516,35.8052885 C27.2553899,34.6487662 27.8182279,33.5598521 28.5019156,32.5600962 L28.5019156,32.5600962 L14.6033654,32.5600962 C13.7071346,32.5600962 12.9807692,31.8337308 12.9807692,30.9375 C12.9807692,30.0412692 13.7071346,29.3149038 14.6033654,29.3149038 L14.6033654,29.3149038 L18.4606131,29.3141294 C18.6072743,29.3140702 18.7522321,29.3140082 18.8955068,29.3139437 L20.5353012,29.3130671 C20.6654332,29.3129868 20.7939628,29.312905 20.9209101,29.3128219 L22.0212584,29.3120476 C22.1388936,29.3119594 22.2550069,29.3118706 22.3696187,29.3117816 L23.0394321,29.3112462 C23.1481183,29.3111572 23.2553433,29.3110683 23.3611273,29.31098 L24.2748199,29.3102045 C24.3721393,29.3101212 24.4680781,29.3100392 24.5626567,29.3099587 L25.6335955,29.3090783 C25.7176144,29.3090135 25.8003536,29.3089511 25.8818335,29.3088914 L28.7664222,29.3088586 C28.8146597,29.3089353 28.8619405,29.3090184 28.9082848,29.3091082 L29.1752732,29.3097284 C29.2179519,29.3098457 29.2597345,29.3099702 29.3006411,29.310102 L29.5357297,29.3109835 C30.7351927,29.3161783 31.0789444,29.3294354 31.2282217,29.3588272 L31.2540937,29.3645292 L31.2540937,29.3645292 L31.2763762,29.3706212 C31.2937185,29.3758636 31.3083307,29.3815246 31.3227355,29.3876349 L31.340083,29.395185 C31.3576537,29.4029547 31.3763785,29.4113891 31.400616,29.4205416 C32.6746075,28.3907846 34.1243803,27.5710355 35.6971154,27.0132681 L35.6971154,27.0132681 L35.6971154,3.78605769 C35.6971154,3.48773668 35.454571,3.24519231 35.15625,3.24519231 L35.15625,3.24519231 Z M40.5649038,32.5600962 C41.4611347,32.5600962 42.1875,33.2864615 42.1875,34.1826923 L42.1875,34.1826923 L42.1875,40.6730769 C42.1875,41.5693077 41.4611347,42.2956731 40.5649038,42.2956731 L40.5649038,42.2956731 L35.6971154,42.2956731 C34.8008846,42.2956731 34.0745192,41.5693077 34.0745192,40.6730769 C34.0745192,39.7768461 34.8008846,39.0504808 35.6971154,39.0504808 L35.6971154,39.0504808 L38.9423077,39.0504808 L38.9423077,34.1826923 C38.9423077,33.2864615 39.668673,32.5600962 40.5649038,32.5600962 Z M8.11298077,35.8052885 C9.00921159,35.8052885 9.73557692,36.5316538 9.73557692,37.4278846 C9.73557692,38.3241154 9.00921159,39.0504808 8.11298077,39.0504808 C7.21674995,39.0504808 6.49038462,38.3241154 6.49038462,37.4278846 C6.49038462,36.5316538 7.21674995,35.8052885 8.11298077,35.8052885 Z M8.11298077,29.3149038 C9.00921159,29.3149038 9.73557692,30.0412692 9.73557692,30.9375 C9.73557692,31.8337308 9.00921159,32.5600962 8.11298077,32.5600962 C7.21674995,32.5600962 6.49038462,31.8337308 6.49038462,30.9375 C6.49038462,30.0412692 7.21674995,29.3149038 8.11298077,29.3149038 Z M30.8293269,22.8245192 C31.7255577,22.8245192 32.4519231,23.5508846 32.4519231,24.4471154 C32.4519231,25.3433462 31.7255577,26.0697115 30.8293269,26.0697115 L30.8293269,26.0697115 L14.6033654,26.0697115 C13.7071346,26.0697115 12.9807692,25.3433462 12.9807692,24.4471154 C12.9807692,23.5508846 13.7071346,22.8245192 14.6033654,22.8245192 L14.6033654,22.8245192 Z M8.11298077,22.8245192 C9.00921159,22.8245192 9.73557692,23.5508846 9.73557692,24.4471154 C9.73557692,25.3433462 9.00921159,26.0697115 8.11298077,26.0697115 C7.21674995,26.0697115 6.49038462,25.3433462 6.49038462,24.4471154 C6.49038462,23.5508846 7.21674995,22.8245192 8.11298077,22.8245192 Z M30.8293269,16.3341346 C31.7255577,16.3341346 32.4519231,17.0605 32.4519231,17.9567308 C32.4519231,18.8529616 31.7255577,19.5793269 30.8293269,19.5793269 L30.8293269,19.5793269 L14.6033654,19.5793269 C13.7071346,19.5793269 12.9807692,18.8529616 12.9807692,17.9567308 C12.9807692,17.0605 13.7071346,16.3341346 14.6033654,16.3341346 L14.6033654,16.3341346 Z M8.11298077,16.3341346 C9.00921159,16.3341346 9.73557692,17.0605 9.73557692,17.9567308 C9.73557692,18.8529616 9.00921159,19.5793269 8.11298077,19.5793269 C7.21674995,19.5793269 6.49038462,18.8529616 6.49038462,17.9567308 C6.49038462,17.0605 7.21674995,16.3341346 8.11298077,16.3341346 Z M30.8293269,9.84375 C31.7255577,9.84375 32.4519231,10.5701153 32.4519231,11.4663462 C32.4519231,12.362577 31.7255577,13.0889423 30.8293269,13.0889423 L30.8293269,13.0889423 L14.6033654,13.0889423 C13.7071346,13.0889423 12.9807692,12.362577 12.9807692,11.4663462 C12.9807692,10.5701153 13.7071346,9.84375 14.6033654,9.84375 L14.6033654,9.84375 Z M8.11298077,9.84375 C9.00921159,9.84375 9.73557692,10.5701153 9.73557692,11.4663462 C9.73557692,12.362577 9.00921159,13.0889423 8.11298077,13.0889423 C7.21674995,13.0889423 6.49038462,12.362577 6.49038462,11.4663462 C6.49038462,10.5701153 7.21674995,9.84375 8.11298077,9.84375 Z" id="Combined-Shape" fill="#07A39D" fill-rule="nonzero"></path>
            </g>
        </g>
    </g>
</svg>