<?xml version="1.0" encoding="UTF-8"?>
<svg width="93px" height="78px" viewBox="0 0 93 78" version="1.1" xmlns="http://www.w3.org/2000/svg" xmlns:xlink="http://www.w3.org/1999/xlink">
    <title>C6E024AB-7785-4E70-A49F-A621A57E5DFC</title>
    <g id="Locals" stroke="none" stroke-width="1" fill="none" fill-rule="evenodd">
        <g id="Local-Landingpage" transform="translate(-1117.000000, -796.000000)">
            <g id="icon/guaranteed" transform="translate(1117.000000, 796.000000)">
                <path d="M39.6090989,73.125 L28.4431808,34.420166 L39.6090603,19.3390869 L80.1812971,19.3390869 C80.5409763,19.3390869 80.8729469,19.5322476 81.050679,19.8449461 L90.1081277,35.7804484 C90.3608597,36.2251002 90.2373394,36.7887872 89.8218227,37.0870062 L39.6090989,73.125 L39.6090989,73.125 Z" id="Path-3" fill="#DBEEED"></path>
                <path d="M61.1191343,17.2814941 C62.0422032,17.2814941 62.6269905,17.7373828 63.0435689,18.4654907 L63.0435689,18.4654907 L71.6475985,35.6041626 C72.0484029,36.4512415 71.9060062,37.2970349 71.3450235,37.9692993 L71.3450235,37.9692993 L41.2309198,72.3894653 C40.8222284,72.8564941 40.2314184,73.125 39.6090603,73.125 C38.9867021,73.125 38.3958921,72.8564941 37.9872007,72.3894653 L37.9872007,72.3894653 L7.87309706,37.9692993 C7.30852932,37.2936072 7.17215545,36.446814 7.57052202,35.6041626 L7.57052202,35.6041626 L16.1745516,18.4654907 C16.5981567,17.725957 17.1995784,17.2814941 18.0989862,17.2814941 L18.0989862,17.2814941 Z M25.281917,38.704834 L14.2228709,38.704834 L35.8863835,63.4673584 L25.281917,38.704834 Z M64.9952496,38.704834 L53.9362036,38.704834 L43.3317371,63.4673584 L64.9952496,38.704834 Z M49.2584795,38.704834 L29.9596411,38.704834 L39.6090603,61.2379028 L49.2584795,38.704834 Z M39.6090603,22.9943848 L31.0050307,34.420166 L48.2130899,34.420166 L39.6090603,22.9943848 Z M18.0989862,24.2140869 L12.9752866,34.420166 L23.2226859,34.420166 L18.0989862,24.2140869 Z M61.1191343,24.2140869 L55.9954346,34.420166 L66.2428339,34.420166 L61.1191343,24.2140869 Z M57.6388043,21.5661621 L43.9110751,21.5661621 L52.1479994,32.5034912 L57.6388043,21.5661621 Z M35.3070455,21.5661621 L21.5793162,21.5661621 L27.0701211,32.5034912 L35.3070455,21.5661621 Z M24.3991435,6.41757568 C25.2391836,5.58092285 26.6012015,5.58092285 27.4410982,6.41757568 L27.4410982,6.41757568 L30.4830529,9.4472644 C31.3230929,10.2839172 31.3230929,11.6403003 30.4830529,12.4769531 C29.6431562,13.3137488 28.2809949,13.313606 27.4410982,12.4769531 L27.4410982,12.4769531 L24.3991435,9.4472644 C23.5591034,8.61061157 23.5591034,7.25422852 24.3991435,6.41757568 Z M51.7768789,6.41757568 C52.616919,5.58092285 53.9789369,5.58092285 54.8188336,6.41757568 C55.6588737,7.25422852 55.6588737,8.61061157 54.8188336,9.4472644 L54.8188336,9.4472644 L51.7768789,12.4769531 C50.9369822,13.3137488 49.574821,13.313606 48.7349243,12.4769531 C47.8948842,11.6403003 47.8948842,10.2839172 48.7349243,9.4472644 L48.7349243,9.4472644 Z M39.6090603,0 C40.7969899,0 41.7600677,0.959194336 41.7600677,2.14233398 L41.7600677,2.14233398 L41.7600677,6.56982422 C41.7600677,7.75296387 40.7969899,8.7121582 39.6090603,8.7121582 C38.4211306,8.7121582 37.4580529,7.75296387 37.4580529,6.56982422 L37.4580529,6.56982422 L37.4580529,2.14233398 C37.4580529,0.959194336 38.4211306,0 39.6090603,0 Z" id="Combined-Shape" fill="#07A39D" fill-rule="nonzero"></path>
            </g>
        </g>
    </g>
</svg>