<?xml version="1.0" encoding="UTF-8"?>
<svg width="24px" height="24px" viewBox="0 0 24 24" version="1.1" xmlns="http://www.w3.org/2000/svg" xmlns:xlink="http://www.w3.org/1999/xlink">
    <title>icon/openExternal/light</title>
    <g id="Marketplace-(Quick-order)" stroke="none" stroke-width="1" fill="none" fill-rule="evenodd">
        <g id="Marketplace/paverAdded" transform="translate(-467.000000, -658.000000)" fill="#FFFFFF" fill-rule="nonzero">
            <g id="Group" transform="translate(467.000000, 658.000000)">
                <path d="M19,-1.77635684e-15 C21.6887547,-1.77635684e-15 23.8818181,2.12230671 23.9953805,4.78311038 L24,5 L24,19 C24,21.6887547 21.8776933,23.8818181 19.2168896,23.9953805 L19,24 L5,24 C2.3112453,24 0.118181885,21.8776933 0.00461951385,19.2168896 L2.25597319e-13,19 L2.25597319e-13,12.9893799 C2.25597319e-13,12.4370951 0.44771525,11.9893799 1,11.9893799 C1.51283584,11.9893799 1.93550716,12.3754201 1.99327227,12.8727588 L2,12.9893799 L2,19 C2,20.5976809 3.24891996,21.9036609 4.82372721,21.9949073 L5,22 L19,22 C20.5976809,22 21.9036609,20.75108 21.9949073,19.1762728 L22,19 L22,5 C22,3.40231912 20.75108,2.09633912 19.1762728,2.00509269 L19,2 L13.0314941,2 C12.4792094,2 12.0314941,1.55228475 12.0314941,1 C12.0314941,0.487164161 12.4175343,0.0644928393 12.914873,0.00672773133 L13.0314941,-1.77635684e-15 L19,-1.77635684e-15 Z" id="Rectangle" transform="translate(12.000000, 12.000000) rotate(-270.000000) translate(-12.000000, -12.000000) "></path>
                <path d="M23,0 C23.5128358,0 23.9355072,0.38604019 23.9932723,0.883378875 L24,1 L24,7 C24,7.55228475 23.5522847,8 23,8 C22.4871642,8 22.0644928,7.61395981 22.0067277,7.11662113 L22,7 L22,2 L17,2 C16.4871642,2 16.0644928,1.61395981 16.0067277,1.11662113 L16,1 C16,0.487164161 16.3860402,0.0644928393 16.8833789,0.00672773133 L17,0 L23,0 Z" id="Path-2"></path>
                <path d="M22.2928932,0.292893219 C22.6834175,-0.0976310729 23.3165825,-0.0976310729 23.7071068,0.292893219 C24.0675907,0.65337718 24.0953203,1.22060824 23.7902954,1.61289944 L23.7071068,1.70710678 L14.2660057,11.1482079 C13.8754814,11.5387321 13.2423164,11.5387321 12.8517921,11.1482079 C12.4913082,10.7877239 12.4635786,10.2204928 12.7686035,9.82820163 L12.8517921,9.73399429 L22.2928932,0.292893219 Z" id="Path-3"></path>
            </g>
        </g>
    </g>
</svg>