<?xml version="1.0" encoding="UTF-8"?>
<svg width="78px" height="78px" viewBox="0 0 78 78" version="1.1" xmlns="http://www.w3.org/2000/svg" xmlns:xlink="http://www.w3.org/1999/xlink">
    <title>637D1344-74E0-4436-8B6C-424611143073</title>
    <g id="Services" stroke="none" stroke-width="1" fill="none" fill-rule="evenodd">
        <g id="Services/paversVsConcrete" transform="translate(-137.000000, -1186.000000)">
            <g id="icon-maintenance" transform="translate(137.000000, 1186.000000)">
                <rect id="Rectangle-Copy-2" fill="#213951" x="0" y="0" width="78" height="78" rx="3"></rect>
                <g id="parquet" transform="translate(19.500000, 19.500000)" fill="#FFFFFF" fill-rule="nonzero" stroke="#213951">
                    <path d="M37.4765625,0 C36.4221152,0 2.41982812,0 1.5234375,0 C0.682042969,0 0,0.682042969 0,1.5234375 L0,37.4765625 C0,38.317957 0.682042969,39 1.5234375,39 L37.4765625,39 C38.317957,39 39,38.317957 39,37.4765625 C39,36.4221152 39,2.41982812 39,1.5234375 C39,0.682042969 38.317957,0 37.4765625,0 Z M3.046875,3.046875 L8.98828125,3.046875 L8.98828125,17.9765625 L3.046875,17.9765625 L3.046875,3.046875 Z M17.9765625,35.953125 L3.046875,35.953125 L3.046875,30.0117188 L17.9765625,30.0117188 L17.9765625,35.953125 Z M17.9765625,26.9648438 L3.046875,26.9648438 L3.046875,21.0234375 L17.9765625,21.0234375 L17.9765625,26.9648438 Z M17.9765625,17.9765625 L12.0351562,17.9765625 L12.0351562,3.046875 L17.9765625,3.046875 L17.9765625,17.9765625 Z M26.9648438,35.953125 L21.0234375,35.953125 C21.0234375,35.1236895 21.0234375,21.852873 21.0234375,21.0234375 L26.9648438,21.0234375 L26.9648438,35.953125 Z M35.953125,35.953125 L30.0117188,35.953125 L30.0117188,21.0234375 L35.953125,21.0234375 L35.953125,35.953125 Z M35.953125,17.9765625 C35.1236895,17.9765625 21.852873,17.9765625 21.0234375,17.9765625 L21.0234375,12.0351562 L35.953125,12.0351562 L35.953125,17.9765625 Z M35.953125,8.98828125 L21.0234375,8.98828125 L21.0234375,3.046875 L35.953125,3.046875 L35.953125,8.98828125 Z" id="Shape"></path>
                </g>
            </g>
        </g>
    </g>
</svg>