<?xml version="1.0" encoding="UTF-8"?>
<svg width="39px" height="35px" viewBox="0 0 39 35" version="1.1" xmlns="http://www.w3.org/2000/svg" xmlns:xlink="http://www.w3.org/1999/xlink">
    <title>E68953B6-B853-477E-96AA-7AC7ED34A5FA</title>
    <g id="Partners" stroke="none" stroke-width="1" fill="none" fill-rule="evenodd">
        <g transform="translate(-155.000000, -2337.000000)" id="icon/onboarding">
            <g transform="translate(156.000000, 2338.000000)" id="onboarding">
                <path d="M26.5932723,5.22562044 L28.4513556,5.22399092 C30.1082092,5.22253788 31.4525324,6.56450519 31.4539854,8.2213588 C31.4539869,8.22311367 31.4539869,8.22486853 31.4539854,8.2266234 L31.4385783,25.7770143 C31.4371256,27.4318124 30.0960085,28.7729283 28.4412104,28.7743796 L26.5831272,28.7760091 C24.9262736,28.7774621 23.5819504,27.4354948 23.5804974,25.7786412 C23.5804958,25.7768863 23.5804958,25.7751315 23.5804974,25.7733766 L23.5959044,8.22298565 C23.5973572,6.56818762 24.9384743,5.22707167 26.5932723,5.22562044 Z" id="Rectangle" fill="#DBEEED" transform="translate(27.517241, 17.000000) rotate(30.000000) translate(-27.517241, -17.000000) "></path>
                <rect id="Rectangle" fill="#DBEEED" x="7.86206897" y="6.03550296" width="21.1671088" height="27.1597633" rx="1"></rect>
                <path d="M24.2010839,3.62376795e-14 C25.2171609,3.62376795e-14 26.043806,0.824971775 26.043806,1.83899192 L26.043806,1.83899192 L26.043806,8.50533762 C26.043806,8.84389604 25.7687491,9.11833493 25.4295653,9.11833493 C25.0903816,9.11833493 24.8153246,8.84389604 24.8153246,8.50533762 L24.8153246,8.50533762 L24.8153246,1.83899192 C24.8153246,1.5009852 24.5397762,1.22599461 24.2010839,1.22599461 L24.2010839,1.22599461 L1.84272213,1.22599461 C1.5040298,1.22599461 1.22848142,1.5009852 1.22848142,1.83899192 L1.22848142,1.83899192 L1.22848142,29.5464702 C1.22848142,29.8844769 1.5040298,30.1594675 1.84272213,30.1594675 L1.84272213,30.1594675 L24.2010839,30.1594675 C24.5397762,30.1594675 24.8153246,29.8844769 24.8153246,29.5464702 L24.8153246,29.5464702 L24.8153246,25.0303964 C24.8153246,24.691838 25.0903816,24.4173991 25.4295653,24.4173991 C25.7687491,24.4173991 26.043806,24.691838 26.043806,25.0303964 L26.043806,25.0303964 L26.043806,29.5464702 C26.043806,30.5604903 25.2171609,31.3854621 24.2010839,31.3854621 L24.2010839,31.3854621 L1.84272213,31.3854621 C0.826645146,31.3854621 -2.793168e-15,30.5604903 -2.793168e-15,29.5464702 L-2.793168e-15,29.5464702 L-2.793168e-15,1.83899192 C-2.793168e-15,0.824971775 0.826645146,3.62376795e-14 1.84272213,3.62376795e-14 L1.84272213,3.62376795e-14 Z M16.3388028,26.849282 C16.6779866,26.849282 16.9530436,27.1237209 16.9530436,27.4622793 C16.9530436,27.8008377 16.6779866,28.0752766 16.3388028,28.0752766 L16.3388028,28.0752766 L13.021903,28.0752766 C12.6827193,28.0752766 12.4076623,27.8008377 12.4076623,27.4622793 C12.4076623,27.1237209 12.6827193,26.849282 13.021903,26.849282 L13.021903,26.849282 Z M28.2012651,7.73136723 C28.8669792,7.55341411 29.5621768,7.64475071 30.1589117,7.9885809 C31.3908328,8.69843178 31.8144132,10.2761642 31.1031225,11.5055916 L31.1031225,11.5055916 L23.373456,24.8666648 C23.3311348,24.939918 23.2740104,25.0036084 23.2057683,25.0537516 L23.2057683,25.0537516 L19.2571833,27.9559261 C19.1493841,28.0351866 19.0213763,28.0753379 18.8928771,28.0753379 C18.7871663,28.0753379 18.6812098,28.0481208 18.5858182,27.9931963 C18.3745194,27.8713937 18.2554796,27.6363093 18.2825061,27.3942979 L18.2825061,27.3942979 L18.8266006,22.5305321 C18.8359984,22.4464902 18.8627793,22.365268 18.9051005,22.2920148 L18.9051005,22.2920148 L26.6348285,8.93094165 C26.9792946,8.33541477 27.5356739,7.90938164 28.2012651,7.73136723 Z M19.9432902,23.5980669 L19.6591424,26.1378373 L21.7210256,24.6223854 L19.9432902,23.5980669 Z M16.3388028,23.4164971 C16.6779866,23.4164971 16.9530436,23.690936 16.9530436,24.0294944 C16.9530436,24.3680528 16.6779866,24.6424917 16.3388028,24.6424917 L16.3388028,24.6424917 L7.61658479,24.6424917 C7.27740107,24.6424917 7.00234408,24.3680528 7.00234408,24.0294944 C7.00234408,23.690936 7.27740107,23.4164971 7.61658479,23.4164971 L7.61658479,23.4164971 Z M4.99254848,23.4164971 C5.15470803,23.4164971 5.31256789,23.4820878 5.42736948,23.5961053 C5.54167967,23.7101228 5.60740343,23.8682761 5.60740343,24.0294944 C5.60740343,24.1907127 5.54161825,24.348866 5.42736948,24.4628835 C5.31318213,24.576901 5.15470803,24.6424917 4.99254848,24.6424917 C4.83094175,24.6424917 4.67246765,24.576901 4.5582803,24.4628835 C4.4439701,24.348866 4.37830777,24.1907127 4.37830777,24.0294944 C4.37830777,23.8682761 4.44403153,23.7101228 4.5582803,23.5961053 C4.67314331,23.4820878 4.83094175,23.4164971 4.99254848,23.4164971 Z M26.479057,11.6522206 L20.2761472,22.3741565 L22.6167114,23.7227506 L28.8196212,13.0008147 L26.479057,11.6522206 Z M16.3388028,19.9837122 C16.6779866,19.9837122 16.9530436,20.2581511 16.9530436,20.5967095 C16.9530436,20.9352679 16.6779866,21.2097068 16.3388028,21.2097068 L16.3388028,21.2097068 L7.61658479,21.2097068 C7.27740107,21.2097068 7.00234408,20.9352679 7.00234408,20.5967095 C7.00234408,20.2581511 7.27740107,19.9837122 7.61658479,19.9837122 L7.61658479,19.9837122 Z M4.99254848,19.9837122 C5.15470803,19.9837122 5.31256789,20.0493029 5.42736948,20.1633204 C5.54167967,20.2773379 5.60740343,20.4354912 5.60740343,20.5967095 C5.60740343,20.7579278 5.54161825,20.9160811 5.42736948,21.0300986 C5.31256789,21.1441161 5.15470803,21.2097068 4.99254848,21.2097068 C4.83094175,21.2097068 4.67314331,21.1441161 4.5582803,21.0300986 C4.4439701,20.9160811 4.37830777,20.7579278 4.37830777,20.5967095 C4.37830777,20.4354912 4.44403153,20.2773379 4.5582803,20.1633204 C4.67314331,20.0493029 4.83094175,19.9837122 4.99254848,19.9837122 Z M4.99254848,16.5509273 C5.15470803,16.5509273 5.31318213,16.616518 5.42736948,16.7305355 C5.54167967,16.844553 5.60740343,17.0027063 5.60740343,17.1639246 C5.60740343,17.3251429 5.54161825,17.4832962 5.42736948,17.5973137 C5.31256789,17.7113312 5.15470803,17.7769219 4.99254848,17.7769219 C4.83094175,17.7769219 4.67314331,17.7113312 4.5582803,17.5973137 C4.4439701,17.4832962 4.37830777,17.3251429 4.37830777,17.1639246 C4.37830777,17.0027063 4.44403153,16.844553 4.5582803,16.7305355 C4.67246765,16.616518 4.83094175,16.5509273 4.99254848,16.5509273 Z M16.3388028,16.5509273 C16.6779866,16.5509273 16.9530436,16.8253662 16.9530436,17.1639246 C16.9530436,17.502483 16.6779866,17.7769219 16.3388028,17.7769219 L16.3388028,17.7769219 L7.61658479,17.7769219 C7.27740107,17.7769219 7.00234408,17.502483 7.00234408,17.1639246 C7.00234408,16.8253662 7.27740107,16.5509273 7.61658479,16.5509273 L7.61658479,16.5509273 Z M13.021903,3.31018545 C16.1378847,3.31018545 18.6729175,5.84008664 18.6729175,8.94976067 C18.6729175,10.5629857 17.9904961,12.0199577 16.8987447,13.0488124 C16.8782905,13.0705738 16.8565463,13.0912931 16.8327752,13.1101121 C15.8272018,14.0282595 14.4889555,14.5892746 13.0218416,14.5892746 C11.5547277,14.5892746 10.2164814,14.0283208 9.21090797,13.1101121 C9.18713685,13.0912931 9.16539273,13.0706351 9.14493852,13.0488124 C8.05330993,12.0199577 7.3708885,10.5629857 7.3708885,8.94976067 C7.3708885,5.84008664 9.90592133,3.31018545 13.021903,3.31018545 Z M13.021903,10.9113521 C11.8977811,10.9113521 10.8903649,11.5088405 10.3505088,12.4641968 C11.0932486,13.0279092 12.0189094,13.3633413 13.021903,13.3633413 C14.0248967,13.3633413 14.950496,13.0279092 15.6932973,12.4641968 C15.1534411,11.5088405 14.1460249,10.9113521 13.021903,10.9113521 Z M29.5446095,9.05035353 C29.2320839,8.87025492 28.867962,8.82231853 28.5191961,8.91561672 C28.1705531,9.00885361 27.8791573,9.23198463 27.6986934,9.54393896 L27.6986934,9.54393896 L27.0932363,10.5905093 L29.4338005,11.9391033 L30.0392576,10.892533 C30.2197215,10.5805787 30.2676323,10.2171326 30.1742063,9.86919533 C30.0807802,9.52125806 29.8571966,9.23045214 29.5446095,9.05035353 Z M13.021903,4.53618007 C10.583306,4.53618007 8.59936992,6.51610007 8.59936992,8.94976067 C8.59936992,9.92853347 8.92067923,10.8335014 9.46299236,11.5662171 C9.91599488,10.8957206 10.5438103,10.3742438 11.2727298,10.0522976 C10.9834224,9.67916617 10.8106365,9.21175572 10.8106365,8.70456175 L10.8106365,8.70456175 L10.8106365,8.3061135 C10.8106365,7.08925255 11.8025738,6.0993232 13.021903,6.0993232 C14.2412323,6.0993232 15.2331696,7.08925255 15.2331696,8.3061135 L15.2331696,8.3061135 L15.2331696,8.70456175 C15.2331696,9.21175572 15.0603837,9.67916617 14.7710763,10.0522976 C15.4999957,10.3742438 16.1278112,10.8957206 16.5808137,11.5662171 C17.1231268,10.8335014 17.4444361,9.92853347 17.4444361,8.94976067 C17.4444361,6.51610007 15.4605001,4.53618007 13.021903,4.53618007 Z M13.021903,7.32531781 C12.4800199,7.32531781 12.0391179,7.76532728 12.0391179,8.3061135 L12.0391179,8.3061135 L12.0391179,8.70456175 C12.0391179,9.24534797 12.4800199,9.68535744 13.021903,9.68535744 C13.5637862,9.68535744 14.0046882,9.24534797 14.0046882,8.70456175 L14.0046882,8.70456175 L14.0046882,8.3061135 C14.0046882,7.76532728 13.5637862,7.32531781 13.021903,7.32531781 Z" id="Combined-Shape" stroke="#07A39D" stroke-width="0.6" fill="#07A39D" fill-rule="nonzero"></path>
            </g>
        </g>
    </g>
</svg>