<?xml version="1.0" encoding="UTF-8"?>
<svg width="39px" height="39px" viewBox="0 0 39 39" version="1.1" xmlns="http://www.w3.org/2000/svg" xmlns:xlink="http://www.w3.org/1999/xlink">
    <title>654F2960-42AD-4F1B-962B-1A60059344E7</title>
    <g id="Home" stroke="none" stroke-width="1" fill="none" fill-rule="evenodd">
        <g transform="translate(-155.000000, -5410.000000)" id="icon/plan">
            <g transform="translate(156.000000, 5411.000000)" id="plan">
                <path d="M7.30769231,11.6923077 L38,11.6923077 L38,37 C38,37.5522847 37.5522847,38 37,38 L11.6740611,38 L11.6740611,38 C8.76314857,38 7.30769231,36.4843715 7.30769231,33.4531145 C7.30769231,30.4219548 7.30769231,23.1683526 7.30769231,11.6923077 Z" id="Path-2" fill="#DBEEED"></path>
                <path d="M28.2955673,0.0561778846 C28.7148462,0.0561778846 29.1091875,0.219436298 29.4056286,0.515877404 L29.4056286,0.515877404 L31.0056022,2.11585096 C31.3020433,2.41242909 31.4653017,2.80663341 31.4653017,3.22591226 C31.4653017,3.64519111 31.3020433,4.03953245 31.0056022,4.33597356 L31.0056022,4.33597356 L29.621982,5.71959375 L29.621982,5.71959375 L29.6213654,5.72027885 L28.1854038,7.15624038 L32.1412175,7.15624038 C32.4255325,7.15624038 32.6560673,7.38670673 32.6560673,7.67109014 L32.6560673,7.67109014 L32.6560673,18.1551851 L34.1980132,16.6132392 C34.3453089,16.466012 34.566732,16.4219603 34.759107,16.5017055 C34.9514135,16.5813822 35.0769231,16.7691671 35.0769231,16.9773678 L35.0769231,16.9773678 L35.0769231,34.5057584 C35.0769231,34.7901418 34.8463882,35.0206082 34.5620733,35.0206082 L34.5620733,35.0206082 L17.0335457,35.0206082 C16.825345,35.0206082 16.6375601,34.8951671 16.5578834,34.7027921 C16.4782067,34.5103486 16.5222584,34.288994 16.6694856,34.1416983 L16.6694856,34.1416983 L19.6324579,31.178726 L3.90004687,31.178726 C2.8770613,31.178726 1.91045913,30.7854123 1.17822837,30.071268 C0.493200721,29.4030252 0.0833076923,28.5227452 0.0121947115,27.5753257 C0.00438461538,27.5397007 0,27.5027055 0,27.4646827 L0,27.4646827 L0,5.5973726 C0,3.36450721 1.81653245,1.54811178 4.04926082,1.54797476 C4.33357572,1.54797476 4.56411058,1.77844111 4.56411058,2.06282452 L4.56411058,2.06282452 L4.56411058,7.15617188 L20.5452115,7.15617188 L24.12847,3.57291346 L25.8012007,1.90018269 L27.185506,0.515877404 C27.4820156,0.219436298 27.8762885,0.0561778846 28.2955673,0.0561778846 Z M3.53434255,2.62158894 C2.11379567,2.86671635 1.0295625,4.10790505 1.0295625,5.5973726 L1.0295625,5.5973726 L1.0295625,24.7691719 C1.09135817,24.7001142 1.15479808,24.6321526 1.22173197,24.5667945 C1.85804928,23.9454123 2.66502404,23.5576478 3.53441106,23.4476899 L3.53441106,23.4476899 L3.53441106,20.1971142 C3.53441106,19.9127308 3.76494591,19.6822644 4.04926082,19.6822644 C4.33357572,19.6822644 4.56411058,19.9127308 4.56411058,20.1971142 L4.56411058,20.1971142 L4.56411058,23.9301346 C4.56411058,24.214518 4.33357572,24.4449844 4.04926082,24.4449844 C3.99822115,24.4449844 3.94738702,24.4462861 3.89696394,24.4488209 C3.88476923,24.4494375 3.87257452,24.4507392 3.86037981,24.4514928 C3.8218774,24.4538906 3.783375,24.4564255 3.74521514,24.460262 L3.74521514,24.460262 L3.71191947,24.4643041 C3.67238942,24.4687572 3.63285937,24.4734159 3.59374038,24.4793762 C3.58640986,24.4804724 3.57921635,24.4819111 3.57202284,24.4830757 C3.52872476,24.4899952 3.48570072,24.4974627 3.44308774,24.5061635 L3.44308774,24.5061635 C2.50580769,24.7006623 1.73130649,25.321976 1.32860697,26.1553269 C1.32778486,26.1570397 1.32703125,26.1587524 1.32620913,26.1604651 C1.30688942,26.2006118 1.28859736,26.241238 1.27099038,26.2823438 C1.26694832,26.2918666 1.26311178,26.3015264 1.25920673,26.3110493 C1.24550481,26.3441394 1.23221394,26.3775036 1.21967668,26.4112103 C1.21296274,26.4289543 1.20679687,26.4468353 1.2005625,26.4647163 C1.19158774,26.4902704 1.18275,26.5158245 1.17446034,26.5416526 L1.17446034,26.5416526 L1.15082452,26.6197536 C1.14554928,26.6377716 1.14041106,26.6556526 1.13547837,26.6737392 C1.1264351,26.7071034 1.11800841,26.7406046 1.11019832,26.7743113 C1.10759495,26.7853413 1.10499159,26.7964399 1.10252524,26.8075385 C1.0936875,26.8474111 1.08560337,26.8874207 1.07840986,26.9276358 C1.07751923,26.932774 1.0765601,26.9379123 1.07566947,26.9430505 C1.06779087,26.9881298 1.06087139,27.0334832 1.05511659,27.0790421 C1.05504808,27.0795901 1.05497957,27.0801382 1.05491106,27.0806863 C1.04271635,27.1765998 1.03511178,27.2736094 1.03216587,27.3714411 C1.08162981,28.9301034 2.33864423,30.1491635 3.90011538,30.1491635 L3.90011538,30.1491635 L20.6621575,30.1491635 L22.7486863,28.0626346 C22.9267428,27.8846466 23.2025625,27.8644363 23.4030216,28.0017296 C23.4289868,28.0195421 23.4537873,28.0395469 23.476875,28.0626346 C23.6779507,28.2637103 23.6779507,28.5896106 23.476875,28.7907548 L23.476875,28.7907548 L18.2764471,33.9911142 L34.0473606,33.9911142 L34.0473606,31.5355925 L33.0974748,31.5355925 C32.8130913,31.5355925 32.582625,31.3051262 32.582625,31.0207428 C32.582625,30.7364279 32.8130913,30.505893 33.0974748,30.505893 L33.0974748,30.505893 L34.0473606,30.505893 L34.0473606,28.9544243 L33.0974748,28.9544243 C32.8130913,28.9544243 32.582625,28.7239579 32.582625,28.4395745 C32.582625,28.1551911 32.8130913,27.9247248 33.0974748,27.9247248 L33.0974748,27.9247248 L34.0473606,27.9247248 L34.0473606,26.3733245 L33.0974748,26.3733245 C32.8130913,26.3733245 32.582625,26.1428582 32.582625,25.8584748 C32.582625,25.5740913 32.8130913,25.343625 33.0974748,25.343625 L33.0974748,25.343625 L34.0473606,25.343625 L34.0473606,23.7921563 L33.0974748,23.7921563 C32.8130913,23.7921563 32.582625,23.5616899 32.582625,23.2773065 C32.582625,22.9929231 32.8130913,22.7624567 33.0974748,22.7624567 L33.0974748,22.7624567 L34.0473606,22.7624567 L34.0473606,18.2201322 L24.9901154,27.2774459 L24.9901154,27.2774459 C24.9773726,27.2901887 24.9642873,27.3020409 24.9507909,27.3130024 C24.8564531,27.3899387 24.7410829,27.4284411 24.6258498,27.4284411 C24.5106166,27.4284411 24.3953149,27.3899387 24.3009087,27.3130024 C24.2874123,27.3019724 24.2743269,27.2901887 24.2617897,27.2776514 C24.0607139,27.0765757 24.0607139,26.7506755 24.2617897,26.5495313 L24.2617897,26.5495313 L31.6262993,19.1849531 L31.6262993,8.18600841 L27.1557043,8.18600841 L16.5611034,18.7805409 C16.5478125,18.7938317 16.533768,18.806232 16.5194495,18.8177416 C16.5165721,18.8200709 16.5134892,18.8220577 16.5105433,18.8243185 C16.4986911,18.8334988 16.4866334,18.8421995 16.4742332,18.8501466 L16.4684698,18.8535978 C16.4507344,18.8642596 16.4386082,18.8710421 16.4262764,18.8772079 L16.4262764,18.8772079 L16.412232,18.8837163 C16.4003798,18.8891286 16.3883906,18.8941983 16.3761959,18.89872 C16.3735925,18.8996791 16.3711262,18.9009808 16.3685228,18.9019399 L16.3685228,18.9019399 L13.2287272,20.0102885 L23.4581034,20.0102885 C23.7424868,20.0102885 23.9729531,20.2407548 23.9729531,20.5251382 C23.9729531,20.8095216 23.7424868,21.039988 23.4581034,21.039988 L23.4581034,21.039988 L9.20029327,21.039988 C8.91597837,21.039988 8.68544351,20.8095216 8.68544351,20.5251382 C8.68544351,20.2407548 8.91597837,20.0102885 9.20029327,20.0102885 L9.20029327,20.0102885 L10.9124856,20.0102885 C10.9173498,19.9839123 10.9238582,19.9577416 10.9329014,19.931982 L10.9329014,19.931982 L11.6167644,17.9945986 L12.6198137,15.1531623 C12.6211154,15.1495313 12.6228966,15.1461058 12.6242668,15.1424748 C12.6281719,15.1321983 12.6324195,15.1219219 12.6370096,15.111851 C12.640024,15.105137 12.64297,15.0986286 12.6462584,15.0921887 L12.6462584,15.0921887 L12.6624267,15.0629351 C12.6659892,15.0568377 12.6694147,15.0508089 12.6731827,15.0449171 L12.6834677,15.0299734 L12.6834677,15.0299734 L12.6942151,15.0153894 C12.6977776,15.0105252 12.7011346,15.005524 12.7049026,15.0008654 C12.7162067,14.9868894 12.7282644,14.973256 12.7411442,14.9603762 L12.7411442,14.9603762 L15.151518,12.5500709 C15.3525252,12.3490637 15.678494,12.3490637 15.8795697,12.5500709 C16.0806454,12.7511466 16.0806454,13.0770469 15.8795697,13.2781911 L15.8795697,13.2781911 L13.8333245,15.3244363 L16.1971803,17.6882921 L26.5783053,7.30703005 L26.5783053,7.30703005 L26.8563173,7.02908654 L24.49253,4.66516226 L21.1228846,8.03480769 L21.1228846,8.03480769 L17.3974687,11.7602236 C17.1964615,11.9612308 16.8704928,11.9612308 16.6694171,11.7602236 C16.4683413,11.5591478 16.4683413,11.2332476 16.6694171,11.0321034 L16.6694171,11.0321034 L19.5155805,8.1859399 L4.56404207,8.1859399 L4.56404207,18.1377837 L4.5557462,18.2303895 C4.51214815,18.4705509 4.30191667,18.6527019 4.04919231,18.6527019 C3.7648774,18.6527019 3.53434255,18.4221671 3.53434255,18.1378522 L3.53434255,18.1378522 Z M30.4760913,24.8655649 C30.623387,24.7183377 30.8448101,24.6742861 31.0371851,24.7540313 C31.2295601,24.8337079 31.3550012,25.0214243 31.3550697,25.229625 L31.3550697,25.229625 L31.3550697,30.8560457 C31.3550697,31.1404291 31.1246034,31.3708954 30.84022,31.3708954 L30.84022,31.3708954 L25.2137993,31.3708954 C25.0055986,31.3708954 24.8177452,31.2455228 24.738137,31.0530793 C24.6583918,30.8607043 24.7024435,30.6392813 24.8496707,30.4919856 L24.8496707,30.4919856 Z M30.3252332,26.472595 L26.4565637,30.3412644 L30.3252332,30.3412644 L30.3252332,26.472595 Z M13.3188173,16.2660325 L12.7982127,17.7407704 L13.7807776,18.7233353 L15.2555156,18.2027308 L13.3188173,16.2660325 Z M26.1653293,2.99243149 L25.2207873,3.93711058 L27.5845745,6.30096635 L28.5292536,5.35628726 L26.1653293,2.99243149 Z M28.6775769,1.24406611 C28.4671154,1.03346755 28.1242248,1.03346755 27.9137632,1.24406611 L27.9137632,1.24406611 L26.8934495,2.2643113 L29.2574423,4.62823558 L30.277619,3.60799038 C30.4882175,3.39739183 30.4882175,3.05463822 30.277619,2.84410817 L30.277619,2.84410817 Z" id="Combined-Shape" stroke="#07A39D" stroke-width="0.8" fill="#07A39D" fill-rule="nonzero"></path>
            </g>
        </g>
    </g>
</svg>