<?xml version="1.0" encoding="UTF-8"?>
<svg width="39px" height="38px" viewBox="0 0 39 38" version="1.1" xmlns="http://www.w3.org/2000/svg" xmlns:xlink="http://www.w3.org/1999/xlink">
    <title>14C50DCF-128B-454C-A0D6-18B39AD7AF9E</title>
    <g id="Partners" stroke="none" stroke-width="1" fill="none" fill-rule="evenodd">
        <g transform="translate(-551.000000, -2338.000000)" id="icon/platform-">
            <g transform="translate(552.000000, 2339.000000)" id="monitor">
                <rect id="Rectangle" fill="#DBEEED" x="11" y="2" width="27" height="28" rx="4"></rect>
                <rect id="Rectangle" fill="#DBEEED" x="15" y="32" width="19" height="5" rx="2.5"></rect>
                <path d="M32.7563952,0.0365362903 C34.0468185,0.0365362903 35.0967056,1.08656048 35.0967056,2.37691532 L35.0967056,2.37691532 L35.0967742,24.6036613 C35.0967742,25.8940847 34.0468185,26.9440403 32.7563952,26.9440403 L32.7563952,26.9440403 L21.0745002,26.9452354 C21.2102832,29.2742211 22.1868198,30.4537863 23.9828185,30.4537863 L23.9828185,30.4537863 L25.1526653,30.4537863 C26.1201573,30.4537863 26.9075726,31.2411331 26.9075726,32.208625 C26.9075726,33.1761169 26.1202258,33.9634637 25.1527339,33.9634637 L25.1527339,33.9634637 L9.94410887,33.9634637 C8.97661694,33.9634637 8.18927016,33.1761169 8.18927016,32.208625 C8.18927016,31.2411331 8.97661694,30.4537863 9.94410887,30.4537863 L9.94410887,30.4537863 L11.1140242,30.4537863 C12.9100229,30.4537863 13.8865595,29.2742211 14.0223425,26.9452354 L2.34037903,26.9440403 C1.04995565,26.9440403 -5.54223334e-13,25.8940847 -5.54223334e-13,24.6036613 L-5.54223334e-13,24.6036613 L-4.72510919e-13,2.37691532 C-4.72510919e-13,1.08656048 1.04995565,0.0365362903 2.34037903,0.0365362903 L2.34037903,0.0365362903 Z M25.1527339,31.6237016 L9.94410887,31.6237016 C9.62124597,31.6237016 9.35918548,31.8863105 9.35918548,32.208625 C9.35918548,32.5309395 9.62124597,32.7935484 9.94410887,32.7935484 L9.94410887,32.7935484 L25.1526653,32.7935484 C25.4755968,32.7935484 25.7376573,32.5309395 25.7376573,32.208625 C25.7376573,31.8863105 25.4755968,31.6237016 25.1527339,31.6237016 L25.1527339,31.6237016 Z M19.9045323,26.9441089 L15.1927903,26.9441089 C15.107379,28.467871 14.6833387,29.6559516 13.9632379,30.4537863 L13.9632379,30.4537863 L21.1340847,30.4537863 C20.4134355,29.6559516 19.9893266,28.467871 19.9045323,26.9441089 L19.9045323,26.9441089 Z M33.9269274,22.2645161 L1.16991532,22.2645161 L1.16991532,24.6037298 C1.16991532,25.2495242 1.69520161,25.7741935 2.34037903,25.7741935 L2.34037903,25.7741935 L32.7563952,25.7741935 C33.4015726,25.7741935 33.9269274,25.2495242 33.9269274,24.6037298 L33.9269274,24.6037298 L33.9269274,22.2645161 Z M19.3032258,23.4344315 C19.6260887,23.4344315 19.8881492,23.6964919 19.8881492,24.0193548 C19.8881492,24.3422177 19.6260887,24.6042782 19.3032258,24.6042782 L19.3032258,24.6042782 L15.7935484,24.6042782 C15.4706855,24.6042782 15.208625,24.3422177 15.208625,24.0193548 C15.208625,23.6964919 15.4706855,23.4344315 15.7935484,23.4344315 L15.7935484,23.4344315 Z M32.7563952,1.20645161 L2.34037903,1.20645161 C1.69520161,1.20645161 1.16991532,1.73112097 1.16991532,2.37691532 L1.16991532,2.37691532 L1.16991532,21.0946008 L2.339,21.0945363 L2.33983065,2.96129032 C2.33983065,2.67071371 2.55209964,2.42938706 2.82992049,2.38402749 L2.92475403,2.37636694 L32.1720202,2.37636694 C32.4949516,2.37636694 32.7570121,2.63842742 32.7570121,2.96129032 L32.7570121,2.96129032 L32.757,21.0945363 L33.9268589,21.0946008 L33.9268589,2.37691532 C33.9268589,1.73112097 33.4015726,1.20645161 32.7563952,1.20645161 L32.7563952,1.20645161 Z M31.5870968,3.54621371 L3.50967742,3.54621371 L3.50967742,21.0946008 L31.5870968,21.0946008 L31.5870968,3.54621371 Z M24.5677419,4.71612903 C24.8906048,4.71612903 25.1527339,4.97818952 25.1527339,5.30105242 L25.1527339,5.30105242 L25.152,13.5215363 L27.0794919,14.0998548 C27.2437796,14.1495524 27.3763636,14.2675128 27.4451119,14.4208898 L27.4784435,14.5169032 C27.5287581,14.716379 27.4702863,14.928125 27.324621,15.0737903 L27.324621,15.0737903 L26.5390565,15.8593548 L27.9510847,17.2713831 C28.1797621,17.500129 28.1797621,17.8698105 27.9510161,18.0984879 L27.9510161,18.0984879 L26.2968065,19.7533145 C26.1874032,19.8632661 26.0382419,19.9246855 25.883254,19.9246855 C25.7282661,19.9246855 25.5791048,19.8632661 25.4697016,19.7533145 L25.4697016,19.7533145 L24.0576734,18.3406694 L23.2305685,19.1683911 C23.0849032,19.3139879 22.8725403,19.3713629 22.6736815,19.3222137 C22.4742056,19.2718992 22.3157218,19.1204073 22.2566331,18.9227137 L22.2566331,18.9227137 L21.679,16.9995363 L8.18927016,16.9999315 C7.89869355,16.9999315 7.6573669,16.7876625 7.61200733,16.5098416 L7.60434677,16.4150081 L7.60434677,5.30105242 C7.60434677,4.97818952 7.86640726,4.71612903 8.18927016,4.71612903 L8.18927016,4.71612903 Z M21.9343871,13.7774718 L23.0954597,17.6480565 L23.5177863,17.2257298 C23.6663306,17.0777339 23.8616935,17.002879 24.0576734,17.002879 C24.2530363,17.002879 24.4483992,17.0771855 24.5975605,17.2263468 L24.5975605,17.2263468 L25.883254,18.5126573 L26.7103589,17.6849355 L25.3533065,16.3278831 C25.2281371,16.203879 25.1591089,16.036621 25.1591089,15.8593548 C25.1591089,15.6827056 25.2275202,15.5165444 25.3521411,15.391375 L25.3521411,15.391375 L25.8049032,14.9386129 L21.9343871,13.7774718 Z M23.982,8.81053629 L8.774,8.81053629 L8.77419355,15.8301532 L21.3282823,15.8301532 L20.5011774,13.0738911 C20.4392097,12.8673548 20.4953508,12.644504 20.6480081,12.4918468 C20.7566573,12.3831976 20.9013993,12.3231968 21.050483,12.3203879 C21.1107335,12.3192643 21.1710616,12.3272915 21.2300524,12.3450161 L21.2300524,12.3450161 L23.9828185,13.1709556 L23.982,8.81053629 Z M15.208625,11.1505605 C15.5314879,11.1505605 15.7935484,11.412621 15.7935484,11.7354839 L15.7935484,11.7354839 L15.7935484,14.075246 C15.7935484,14.3981089 15.5314879,14.6601694 15.208625,14.6601694 L15.208625,14.6601694 L10.5290323,14.6601694 C10.2061694,14.6601694 9.94410887,14.3981089 9.94410887,14.075246 L9.94410887,14.075246 L9.94410887,11.7354839 C9.94410887,11.412621 10.2061694,11.1505605 10.5290323,11.1505605 L10.5290323,11.1505605 Z M14.6236331,12.3204073 L11.1139556,12.3204073 L11.1139556,13.4903226 L14.6236331,13.4903226 L14.6236331,12.3204073 Z M23.9828185,5.88604435 L8.77419355,5.88604435 L8.77419355,7.64088306 L23.9828185,7.64088306 L23.9828185,5.88604435 Z" id="Combined-Shape" stroke="#07A39D" stroke-width="0.4" fill="#07A39D" fill-rule="nonzero"></path>
            </g>
        </g>
    </g>
</svg>