<?xml version="1.0" encoding="UTF-8"?>
<svg width="39px" height="33px" viewBox="0 0 39 33" version="1.1" xmlns="http://www.w3.org/2000/svg" xmlns:xlink="http://www.w3.org/1999/xlink">
    <title>DB5DD0C3-4E8B-4795-9602-6AFEA86FBCEE</title>
    <g id="Home" stroke="none" stroke-width="1" fill="none" fill-rule="evenodd">
        <g transform="translate(-946.000000, -5412.000000)" id="icon/platform2">
            <g transform="translate(947.000000, 5413.000000)" id="component">
                <circle id="Oval" fill="#DBEEED" cx="35" cy="11" r="3"></circle>
                <circle id="Oval" fill="#DBEEED" cx="35" cy="18" r="3"></circle>
                <rect id="Rectangle" fill="#DBEEED" x="12" y="5" width="24" height="27" rx="2"></rect>
                <path d="M26.5388906,11.6305156 L30.4946719,11.6305156 C30.8073516,12.8338438 31.9028203,13.7248437 33.2025469,13.7248437 C34.7450625,13.7248437 36,12.4699063 36,10.9273906 C36,9.384875 34.7450625,8.13000781 33.2025469,8.13000781 C31.9028203,8.13000781 30.8073516,9.02100781 30.4946719,10.2242656 L26.5388906,10.2242656 L26.5388906,7.86767188 C26.5388906,6.15239844 25.1434687,4.75704688 23.4282656,4.75704688 L8.12685938,4.75704688 C8.15864063,4.08296094 8.715375,3.543875 9.39726563,3.543875 L30.4946719,3.543875 C30.8073516,4.74713281 31.9028203,5.63813281 33.2025469,5.63813281 C34.7450625,5.63813281 36,4.38319531 36,2.84075 C36,1.29823437 34.7450625,0.043296875 33.2025469,0.043296875 C31.9028203,0.043296875 30.8073516,0.934367187 30.4946719,2.137625 L9.39726562,2.137625 C7.93989844,2.137625 6.75140625,3.30727344 6.7190625,4.75704688 L3.110625,4.75704688 C1.39542187,4.75704688 -1.88737914e-15,6.15246875 -1.88737914e-15,7.86767188 L-1.88737914e-15,22.8227187 C-1.88737914e-15,24.5379219 1.39542187,25.9332734 3.110625,25.9332734 L10.5416016,25.9332734 L10.2883359,28.2170938 L8.57179687,28.2170938 C8.18346094,28.2170938 7.86867187,28.5319531 7.86867187,28.9202188 C7.86867187,29.3084844 8.18346094,29.6233438 8.57179687,29.6233438 L17.9560547,29.6233438 C18.3443906,29.6233438 18.6591797,29.3084844 18.6591797,28.9202188 C18.6591797,28.5319531 18.3443906,28.2170938 17.9560547,28.2170938 L16.2394453,28.2170938 L15.9861797,25.9332734 L23.4282656,25.9332734 C25.1434687,25.9332734 26.5388906,24.5378516 26.5388906,22.8227187 C26.5388906,21.6200234 26.5388906,19.2727813 26.5388906,18.1567109 L30.4946719,18.1567109 C30.8073516,19.3600391 31.9028203,20.2510391 33.2025469,20.2510391 C34.7450625,20.2510391 36,18.9961016 36,17.4535859 C36,15.9110703 34.7450625,14.6561328 33.2025469,14.6561328 C31.9028203,14.6561328 30.8073516,15.5472031 30.4946719,16.7504609 L26.5388906,16.7504609 L26.5388906,11.6305156 Z M33.2025469,9.53625781 C33.9696563,9.53625781 34.59375,10.1603516 34.59375,10.9273906 C34.59375,11.6945 33.9696563,12.3185937 33.2025469,12.3185937 C32.4354375,12.3185937 31.8113437,11.6945 31.8113437,10.9273906 C31.8113437,10.1603516 32.4354375,9.53625781 33.2025469,9.53625781 Z M33.2025469,1.44954688 C33.9696563,1.44954688 34.59375,2.07364063 34.59375,2.84075 C34.59375,3.60778906 33.9696563,4.23188281 33.2025469,4.23188281 C32.4354375,4.23188281 31.8113437,3.60778906 31.8113437,2.84075 C31.8113437,2.07364063 32.4354375,1.44954688 33.2025469,1.44954688 Z M33.2025469,16.0623828 C33.9696563,16.0623828 34.59375,16.6864766 34.59375,17.4535859 C34.59375,18.2206953 33.9696563,18.8447891 33.2025469,18.8447891 C32.4354375,18.8447891 31.8113437,18.2206953 31.8113437,17.4535859 C31.8113437,16.6864766 32.4354375,16.0623828 33.2025469,16.0623828 Z M14.8245469,28.2172344 L11.7032344,28.2172344 L11.9565,25.9334141 L14.5713516,25.9334141 L14.8245469,28.2172344 Z M25.1327109,20.771 L22.8046641,20.771 C22.4163281,20.771 22.1015391,21.0858594 22.1015391,21.474125 C22.1015391,21.8623906 22.4163281,22.17725 22.8046641,22.17725 L25.1327109,22.17725 L25.1327109,22.8227891 C25.1327109,23.7625156 24.3680625,24.5270938 23.4282656,24.5270938 C22.7240859,24.5270938 4.10245313,24.5270938 3.110625,24.5270938 C2.17082813,24.5270938 1.40625,23.7625156 1.40625,22.8227891 L1.40625,22.17725 L17.1796641,22.17725 C17.568,22.17725 17.8827891,21.8623906 17.8827891,21.474125 C17.8827891,21.0858594 17.568,20.771 17.1796641,20.771 L1.40625,20.771 L1.40625,7.86774219 C1.40625,6.92794531 2.17082813,6.16329688 3.110625,6.16329688 L6.71751562,6.16329688 L6.71751562,8.62261719 L4.56117188,8.62261719 C3.52926563,8.62261719 2.68966406,9.46214844 2.68966406,10.4940547 L2.68966406,17.7640156 C2.68966406,18.7959922 3.52919531,19.6355234 4.56117188,19.6355234 L10.2801797,19.6355234 C11.3120859,19.6355234 12.1516172,18.7959922 12.1516172,17.7640156 L12.1516172,10.4939844 C12.1516172,9.46207813 11.3120859,8.62254688 10.2801797,8.62254688 L8.12383594,8.62254688 L8.12383594,6.16329688 L23.4283359,6.16329688 C24.3681328,6.16329688 25.1327109,6.927875 25.1327109,7.86767188 L25.1327109,10.2242656 L23.8491563,10.2242656 C23.8472578,9.34071875 23.1279609,8.62254688 22.2439922,8.62254688 L14.6628281,8.62254688 C13.7776641,8.62254688 13.0575234,9.34261719 13.0575234,10.2277813 L13.0575234,11.6270703 C13.0575234,12.5122344 13.7776641,13.2323047 14.6628281,13.2323047 L22.2439922,13.2323047 C23.1280313,13.2323047 23.8473281,12.5140625 23.8491563,11.6305156 L25.1327109,11.6305156 L25.1327109,16.7504609 L23.8438125,16.7504609 C23.7789844,15.9242891 23.0865469,15.2717891 22.2439922,15.2717891 L14.6628281,15.2717891 C13.7776641,15.2717891 13.0575234,15.9918594 13.0575234,16.8770234 L13.0575234,18.0301484 C13.0575234,18.9153125 13.7776641,19.6354531 14.6628281,19.6354531 L22.2439922,19.6354531 C23.0865469,19.6354531 23.7789844,18.9828828 23.8438125,18.1567109 L25.1327109,18.1567109 L25.1327109,20.771 L25.1327109,20.771 Z M10.2801797,10.0287969 C10.5366797,10.0287969 10.7453672,10.2374844 10.7453672,10.4939844 L10.7453672,17.7640156 C10.7453672,18.0205156 10.5366797,18.2292734 10.2801797,18.2292734 L4.56117188,18.2292734 C4.30467187,18.2292734 4.09591406,18.0205156 4.09591406,17.7640156 L4.09591406,10.4939844 C4.09591406,10.2374844 4.30460156,10.0287969 4.56117188,10.0287969 L10.2801797,10.0287969 Z M22.4429766,10.2277813 L22.4429766,11.6270703 C22.4429766,11.7368281 22.3536797,11.8260547 22.2439219,11.8260547 L14.6628281,11.8260547 C14.5530703,11.8260547 14.4637734,11.7367578 14.4637734,11.6270703 L14.4637734,10.2277813 C14.4637734,10.1180234 14.5530703,10.0287969 14.6628281,10.0287969 L22.2439922,10.0287969 C22.3536797,10.0287969 22.4429766,10.1180938 22.4429766,10.2277813 Z M22.4429766,16.8770234 L22.4429766,18.0301484 C22.4429766,18.1399766 22.3536797,18.2292031 22.2439219,18.2292031 L14.6628281,18.2292031 C14.5530703,18.2292031 14.4637734,18.1399063 14.4637734,18.0301484 L14.4637734,16.8770234 C14.4637734,16.7672656 14.5530703,16.6780391 14.6628281,16.6780391 L22.2439922,16.6780391 C22.3536797,16.6780391 22.4429766,16.7673359 22.4429766,16.8770234 Z" id="Shape" stroke="#07A39D" stroke-width="0.4" fill="#07A39D" fill-rule="nonzero"></path>
                <path d="M13.4398281,21.426375 L11.6247461,21.426375 C11.2579844,21.426375 10.9606836,21.7237422 10.9606836,22.0904375 C10.9606836,22.4571328 11.2579844,22.7545 11.6247461,22.7545 L13.4398281,22.7545 C13.8065898,22.7545 14.1038906,22.4571328 14.1038906,22.0904375 C14.1038906,21.7237422 13.8065898,21.426375 13.4398281,21.426375 Z" id="Path" fill="#07A39D" fill-rule="nonzero"></path>
            </g>
        </g>
    </g>
</svg>