<?xml version="1.0" encoding="UTF-8"?>
<svg width="38px" height="37px" viewBox="0 0 38 37" version="1.1" xmlns="http://www.w3.org/2000/svg" xmlns:xlink="http://www.w3.org/1999/xlink">
    <title>quality</title>
    <g id="Locals-Template" stroke="none" stroke-width="1" fill="none" fill-rule="evenodd">
        <g id="LocalsTemplate/Tolland" transform="translate(-1097.000000, -2663.000000)">
            <g id="quality" transform="translate(1097.000000, 2663.000000)">
                <path d="M16.2378491,35.4912094 L8.89675575,14.461573 C8.71473417,13.9401455 8.989877,13.3698874 9.51130445,13.1878658 C9.61725114,13.1508816 9.72866722,13.1319937 9.84088367,13.1319937 L31.7123182,13.1319937 C32.0260302,13.1319937 32.3215602,13.2792104 32.5105322,13.5296197 L37.0723376,19.5745288 C37.4005656,20.0094681 37.3201659,20.6271266 36.8915313,20.9635463 L17.7993846,35.9482736 C17.3649335,36.2892584 16.7363184,36.213489 16.3953336,35.7790378 C16.3273502,35.6924198 16.2741394,35.5951683 16.2378491,35.4912094 Z" id="Path-3" fill="#DBEEED"></path>
                <path d="M26.2766021,8.394375 C26.7175985,8.394375 26.9969807,8.61582 27.1960012,8.96949375 L27.1960012,8.96949375 L31.3065781,17.2944938 C31.4980625,17.7059569 31.4300324,18.1167956 31.1620228,18.4433438 L31.1620228,18.4433438 L16.7750036,35.1627188 C16.5797512,35.389575 16.2974915,35.52 16.0001598,35.52 C15.7028281,35.52 15.4205685,35.389575 15.2253161,35.1627188 L15.2253161,35.1627188 L0.838296826,18.4433438 C0.56857447,18.1151306 0.503421826,17.7038063 0.693741537,17.2944938 L0.693741537,17.2944938 L4.80431846,8.96949375 C5.00669586,8.61027 5.29402519,8.394375 5.7237175,8.394375 L5.7237175,8.394375 Z M9.15536413,18.800625 L3.87190259,18.800625 L14.2216502,30.8288625 L9.15536413,18.800625 Z M28.128417,18.800625 L22.8449555,18.800625 L17.7786694,30.8288625 L28.128417,18.800625 Z M20.6101718,18.800625 L11.3901478,18.800625 L16.0001598,29.7459187 L20.6101718,18.800625 Z M16.0001598,11.169375 L11.8895829,16.719375 L20.1107367,16.719375 L16.0001598,11.169375 Z M5.7237175,11.7618375 L3.27586894,16.719375 L8.17156606,16.719375 L5.7237175,11.7618375 Z M26.2766021,11.7618375 L23.8287536,16.719375 L28.7244507,16.719375 L26.2766021,11.7618375 Z M24.6138737,10.475625 L18.0554483,10.475625 L21.9906406,15.7883625 L24.6138737,10.475625 Z M13.9448713,10.475625 L7.38644586,10.475625 L10.009679,15.7883625 L13.9448713,10.475625 Z M8.73361894,3.11729625 C9.13494827,2.7108975 9.78565259,2.7108975 10.1869134,3.11729625 L10.1869134,3.11729625 L11.6402079,4.58894813 C12.0415372,4.99534688 12.0415372,5.65420125 11.6402079,6.0606 C11.2389471,6.46706813 10.5881742,6.46699875 10.1869134,6.0606 L10.1869134,6.0606 L8.73361894,4.58894813 C8.33228961,4.18254938 8.33228961,3.523695 8.73361894,3.11729625 Z M21.8133377,3.11729625 C22.214667,2.7108975 22.8653713,2.7108975 23.2666322,3.11729625 C23.6679615,3.523695 23.6679615,4.18254937 23.2666322,4.58894812 L23.2666322,4.58894812 L21.8133377,6.0606 C21.4120769,6.46706812 20.761304,6.46699875 20.3600432,6.0606 C19.9587139,5.65420125 19.9587139,4.99534687 20.3600432,4.58894812 L20.3600432,4.58894812 Z M16.0001598,0 C16.5676935,0 17.027804,0.4659225 17.027804,1.040625 L17.027804,1.040625 L17.027804,3.19125 C17.027804,3.7659525 16.5676935,4.231875 16.0001598,4.231875 C15.4326262,4.231875 14.9725156,3.7659525 14.9725156,3.19125 L14.9725156,3.19125 L14.9725156,1.040625 C14.9725156,0.4659225 15.4326262,0 16.0001598,0 Z" id="Combined-Shape" fill="#07A39D" fill-rule="nonzero"></path>
            </g>
        </g>
    </g>
</svg>