<?xml version="1.0" encoding="UTF-8"?>
<svg width="93px" height="80px" viewBox="0 0 93 80" version="1.1" xmlns="http://www.w3.org/2000/svg" xmlns:xlink="http://www.w3.org/1999/xlink">
    <title>36EA0008-560B-4AF1-AC88-1174A9DA2D64</title>
    <g id="Locals" stroke="none" stroke-width="1" fill="none" fill-rule="evenodd">
        <g id="Local-Landingpage" transform="translate(-516.000000, -795.000000)">
            <g id="icon/save" transform="translate(516.000000, 796.000000)">
                <ellipse id="Oval" fill="#DBEEED" cx="66.0789474" cy="49.96875" rx="24.4736842" ry="28.03125"></ellipse>
                <ellipse id="Oval" fill="#DBEEED" cx="61.1842105" cy="19.5" rx="14.6842105" ry="14.625"></ellipse>
                <g id="savings" transform="translate(22.026316, 0.000000)" fill="#07A39D" fill-rule="nonzero" stroke="#07A39D" stroke-width="0.8">
                    <path d="M26.0032895,-5.61328761e-14 C34.4375329,-5.61328761e-14 41.2993421,6.83414062 41.2993421,15.234375 C41.2993421,18.7379766 40.0677039,22.1437734 37.870426,24.842543 C38.6624556,25.3340039 39.4385773,25.8728437 40.1928257,26.4587578 C42.3842911,25.0919297 44.8590395,24.375 47.4177632,24.375 L47.4177632,24.375 L50.4769737,24.375 C51.3217747,24.375 52.0065789,25.057043 52.0065789,25.8984375 L52.0065789,25.8984375 L52.0065789,28.9453125 C52.0065789,32.0554102 50.9360082,35.0491172 48.972148,37.484332 C50.960023,41.6236641 52.0065789,46.0239609 52.0065789,50.2734375 C52.0065789,53.4735703 51.4201283,56.6994492 50.3105526,59.602207 C50.0099852,60.3887578 49.1261793,60.7833281 48.336903,60.4839727 C47.5473207,60.1846172 47.151,59.3046797 47.4515674,58.5182813 C48.4302089,55.9579922 48.9473684,53.1070313 48.9473684,50.2734375 C48.9473684,46.1894063 47.8555362,41.929418 45.7901102,37.9543125 C45.4922961,37.3811953 45.589426,36.6833086 46.0323997,36.2124141 C47.9121316,34.2145781 48.9473684,31.6337227 48.9473684,28.9453125 L48.9473684,28.9453125 L48.9473684,27.421875 L47.4177632,27.421875 C45.1297796,27.421875 42.9213355,28.1674453 41.0310493,29.5779961 C40.4595888,30.0044062 39.6680181,29.9803359 39.1237845,29.5201055 C38.0117615,28.5795352 36.8425312,27.7568789 35.6385789,27.0617344 C32.9200115,29.2640156 29.5411135,30.46875 26.0032895,30.46875 C22.4656184,30.46875 19.0870263,29.264168 16.368,27.0617344 C15.1640477,27.7570312 13.9948174,28.5796875 12.8827944,29.5201055 C12.3385609,29.9804883 11.5469901,30.0044062 10.9755296,29.5779961 C9.08524342,28.1674453 6.87679934,27.421875 4.58881579,27.421875 L4.58881579,27.421875 L3.05921053,27.421875 L3.05921053,28.9453125 C3.05921053,31.6337227 4.09444737,34.2145781 5.97417928,36.2124141 C6.41715296,36.6833086 6.51428289,37.3811953 6.21646875,37.9543125 C4.15104276,41.929418 3.05921053,46.1894063 3.05921053,50.2734375 C3.05921053,55.4749102 4.84058882,60.6727266 7.70844572,63.8384297 C10.1599441,66.5439023 11.8383799,70.7786016 12.1747401,74.953125 L12.1747401,74.953125 L18.3552632,74.953125 L18.3552632,72.8370703 C18.3552632,71.881875 19.2298914,71.1597656 20.1756464,71.3413594 C22.1194687,71.716125 24.0802697,71.90625 26.0032895,71.90625 C27.9263092,71.90625 29.8871102,71.716125 31.8309326,71.3413594 C32.774699,71.1596133 33.6513158,71.8803516 33.6513158,72.8370703 L33.6513158,72.8370703 L33.6513158,74.953125 L39.8333684,74.953125 C39.9523717,73.5025078 40.2367253,72.008625 40.6729687,70.5610547 C40.9158701,69.7553086 41.768472,69.298125 42.5777862,69.5397422 C43.3869474,69.7816641 43.8459819,70.6309805 43.6032336,71.4368789 C43.0966283,73.1178398 42.8289474,74.8605 42.8289474,76.4765625 C42.8289474,77.317957 42.1441431,78 41.2993421,78 L41.2993421,78 L32.1217105,78 C31.2769095,78 30.5921053,77.317957 30.5921053,76.4765625 L30.5921053,76.4765625 L30.5921053,74.6338125 C29.0574523,74.8460273 27.520352,74.953125 26.0032895,74.953125 C24.486227,74.953125 22.9491266,74.8460273 21.4144737,74.6338125 L21.4144737,74.6338125 L21.4144737,76.4765625 C21.4144737,77.317957 20.7296694,78 19.8848684,78 L19.8848684,78 L10.7072368,78 C9.86243586,78 9.17763158,77.317957 9.17763158,76.4765625 C9.17763158,72.6073359 7.67448849,68.3485664 5.43713487,65.8795313 C2.03253947,62.1212109 8.18993995e-15,56.287207 8.18993995e-15,50.2734375 C8.18993995e-15,46.0239609 1.04655592,41.6236641 3.03443092,37.484332 C1.07057072,35.0491172 8.18993995e-15,32.0554102 8.18993995e-15,28.9453125 L8.18993995e-15,28.9453125 L8.18993995e-15,25.8984375 C8.18993995e-15,25.057043 0.684804276,24.375 1.52960526,24.375 L1.52960526,24.375 L4.58881579,24.375 C7.14753947,24.375 9.62228783,25.0919297 11.8137533,26.4587578 C12.5680016,25.8728437 13.3441234,25.3340039 14.136153,24.842543 C11.938875,22.1437734 10.7072368,18.7379766 10.7072368,15.234375 C10.7072368,6.83414062 17.5690461,-5.61328761e-14 26.0032895,-5.61328761e-14 Z M45.2763158,63.375 C46.1210934,63.375 46.8059211,64.0570662 46.8059211,64.8984375 C46.8059211,65.7398088 46.1210934,66.421875 45.2763158,66.421875 C44.4315381,66.421875 43.7467105,65.7398088 43.7467105,64.8984375 C43.7467105,64.0570662 44.4315381,63.375 45.2763158,63.375 Z M26.0032895,45.703125 C32.0072961,45.703125 36.7105263,49.0488984 36.7105263,53.3203125 C36.7105263,57.5917266 32.0072961,60.9375 26.0032895,60.9375 C19.9992829,60.9375 15.2960526,57.5917266 15.2960526,53.3203125 C15.2960526,49.0488984 19.9992829,45.703125 26.0032895,45.703125 Z M26.0032895,48.75 C21.8576003,48.75 18.3552632,50.8428984 18.3552632,53.3203125 C18.3552632,55.7977266 21.8576003,57.890625 26.0032895,57.890625 C30.1489786,57.890625 33.6513158,55.7977266 33.6513158,53.3203125 C33.6513158,50.8428984 30.1489786,48.75 26.0032895,48.75 Z M32.1217105,38.0859375 C32.9664882,38.0859375 33.6513158,38.7680037 33.6513158,39.609375 C33.6513158,40.4507463 32.9664882,41.1328125 32.1217105,41.1328125 C31.2769329,41.1328125 30.5921053,40.4507463 30.5921053,39.609375 C30.5921053,38.7680037 31.2769329,38.0859375 32.1217105,38.0859375 Z M19.8848684,38.0859375 C20.7296461,38.0859375 21.4144737,38.7680037 21.4144737,39.609375 C21.4144737,40.4507463 20.7296461,41.1328125 19.8848684,41.1328125 C19.0400908,41.1328125 18.3552632,40.4507463 18.3552632,39.609375 C18.3552632,38.7680037 19.0400908,38.0859375 19.8848684,38.0859375 Z M26.0032895,3.046875 C19.2558947,3.046875 13.7664474,8.5141875 13.7664474,15.234375 C13.7664474,22.1518477 19.4322582,27.421875 26.0032895,27.421875 C32.6914885,27.421875 38.2401316,22.0470352 38.2401316,15.234375 C38.2401316,8.5141875 32.7506842,3.046875 26.0032895,3.046875 Z M26.0032895,5.33203125 C26.8480905,5.33203125 27.5328947,6.01407422 27.5328947,6.85546875 L27.5328947,6.85546875 L27.5328947,7.88211328 C28.3752484,8.18040234 29.1268964,8.71939453 29.6737303,9.44455078 C30.1809474,10.1173008 30.0446595,11.0721914 29.3691859,11.5775156 C28.6937122,12.0828398 27.7349556,11.9469492 27.2275855,11.2741992 C26.935125,10.8864844 26.4889391,10.6640625 26.0032895,10.6640625 C25.1598651,10.6640625 24.4736842,11.3474766 24.4736842,12.1875 C24.4736842,13.5819295 25.7514158,13.7097417 26.2162264,13.7139634 L26.3176661,13.7130127 C26.3577911,13.7118871 26.3809927,13.7103499 26.3826316,13.7109375 C28.1407599,13.7109375 30.5921053,15.5137734 30.5921053,18.28125 C30.5921053,20.2673555 29.3132023,21.9606562 27.5328947,22.5895312 L27.5328947,22.5895312 L27.5328947,23.6132812 C27.5328947,24.4546758 26.8480905,25.1367187 26.0032895,25.1367187 C25.1584885,25.1367187 24.4736842,24.4546758 24.4736842,23.6132812 L24.4736842,23.6132812 L24.4736842,22.5866367 C23.6313306,22.2883477 22.8796826,21.7493555 22.3328487,21.0241992 C21.8256316,20.3514492 21.9619194,19.3965586 22.6373931,18.8912344 C23.3130197,18.3860625 24.2717763,18.5218008 24.7789934,19.1945508 C25.0714539,19.5822656 25.5176398,19.8046875 26.0032895,19.8046875 C26.8467138,19.8046875 27.5328947,19.1212734 27.5328947,18.28125 C27.5328947,16.7133281 25.8549178,16.7640586 25.8396217,16.7578125 C23.6308717,16.7578125 21.4144737,14.805832 21.4144737,12.1875 C21.4144737,10.2013945 22.6933766,8.50809375 24.4736842,7.87921875 L24.4736842,7.87921875 L24.4736842,6.85546875 C24.4736842,6.01407422 25.1584885,5.33203125 26.0032895,5.33203125 Z" id="Combined-Shape"></path>
                </g>
            </g>
        </g>
    </g>
</svg>