<?xml version="1.0" encoding="UTF-8"?>
<svg width="39px" height="38px" viewBox="0 0 39 38" version="1.1" xmlns="http://www.w3.org/2000/svg" xmlns:xlink="http://www.w3.org/1999/xlink">
    <title>savings</title>
    <g id="Locals-Template" stroke="none" stroke-width="1" fill="none" fill-rule="evenodd">
        <g id="LocalsTemplate/Tolland" transform="translate(-306.000000, -2662.000000)" fill-rule="nonzero">
            <g id="savings" transform="translate(306.500000, 2662.000000)">
                <g id="icon/affordable/light" transform="translate(5.000000, 12.000000)" fill="#DBEEED">
                    <path d="M30.8981888,16.5304061 C30.3892985,17.9720667 29.5515077,19.3163455 28.4752066,20.4179576 C27.3660077,21.5532909 26.755102,23.0242606 26.755102,24.5599152 L26.755102,26 L23.1964286,26 C23.1964286,24.7119758 23.1964286,23.7605333 23.1964286,22.4545455 C23.1964286,21.8018667 22.6653163,21.2727273 22.0102041,21.2727273 C21.3550918,21.2727273 20.8239796,21.8018667 20.8239796,22.4545455 L20.8239796,23.6363636 L13.5484694,23.6363636 L13.5484694,22.4545455 C13.5484694,21.8018667 13.0173571,21.2727273 12.3622449,21.2727273 C11.7071327,21.2727273 11.1760204,21.8018667 11.1760204,22.4545455 C11.1760204,24.5436848 11.1760204,24.6691939 11.1760204,26 L7.61734694,26 L7.61734694,23.5615152 C7.61734694,22.5557879 7.17535969,21.601903 6.37291837,20.8757939 C5.26174235,19.8702242 4.35831378,18.6178909 3.76029847,17.2541515 C3.673625,17.0565515 3.53436224,16.8863697 3.35753571,16.7619636 L1.00193112,15.1046606 C0.687660714,14.8834242 0.5,14.5225758 0.5,14.1391939 L0.5,10.6363636 C0.5,9.98470909 1.03214031,9.45454545 1.68622449,9.45454545 C2.63583673,9.45454545 2.92298214,9.4867697 3.19810714,9.33258182 C3.37090051,9.26372121 3.62775765,9.04610909 3.75911224,8.74844848 C3.75950765,8.74758182 3.75990306,8.74679394 3.76021939,8.74592727 L3.76148469,8.74301212 C4.33893878,7.42725455 5.16542092,6.25788485 6.21807653,5.26704848 L6.23088776,5.25499394 C6.24251276,5.24404242 6.25397959,5.23285455 6.26520918,5.2214303 C6.56303061,4.91888485 6.66907908,4.48815152 6.56484949,4.0930303 L5.56739286,0 L7.61734694,0 C8.63307143,0 9.59905357,0.43309697 10.2676888,1.1882 C10.9291276,1.93510909 11.8879133,2.36355758 12.8981811,2.36355758 L20.8239796,2.34787879 C26.7107372,2.34787879 31.5,7.13510909 31.5,13 C31.5,14.2112061 31.2974719,15.3990121 30.8981888,16.5304061 Z" id="Combined-Shape"></path>
                </g>
                <path d="M8.90625,9.0546875 C10.4980938,9.0546875 12.0132695,9.73735156 13.0633164,10.9275234 C13.2615547,11.1522578 13.5528633,11.2960195 13.8624297,11.2960195 L13.8624297,11.2960195 L21.3007812,11.28125 C26.8784687,11.28125 31.5967773,15.029668 33.0698711,20.1396289 C33.8729922,20.3042461 34.4722344,20.0216953 34.7845469,19.81225 C35.4037539,19.3969961 35.7734375,18.7049805 35.7734375,17.9609375 L35.7734375,17.9609375 L35.7734375,16.8476562 C35.7734375,16.2328281 36.2718906,15.734375 36.8867188,15.734375 C37.5015469,15.734375 38,16.2328281 38,16.8476562 L38,16.8476562 L38,17.9609375 C38,19.4487266 37.2615234,20.8320898 36.0245937,21.6616328 C35.2788437,22.1616445 34.427332,22.4153984 33.5528125,22.4153984 C33.5338125,22.4153984 33.5147383,22.4142109 33.4957383,22.4139883 C33.5289883,22.7808516 33.546875,23.1520195 33.546875,23.527418 C33.546875,24.9205781 33.3144219,26.2880586 32.8558984,27.5917109 C32.2718711,29.2525039 31.3109609,30.8004102 30.0770742,32.0681406 C29.4429492,32.7195586 29.09375,33.5537031 29.09375,34.4168672 L29.09375,34.4168672 L29.09375,36.1014844 C29.09375,37.1483398 28.2420156,38 27.1952344,38 L27.1952344,38 L23.1992969,38 C22.1525156,38 21.3007812,37.1483398 21.3007812,36.1014844 L21.3007812,36.1014844 L21.3007812,35.7734375 L14.4726562,35.7734375 L14.4726562,36.1014844 C14.4726562,37.1483398 13.6209961,38 12.5741406,38 L12.5741406,38 L8.57820312,38 C7.53134766,38 6.6796875,37.1483398 6.6796875,36.1014844 L6.6796875,36.1014844 L6.6796875,33.4763672 C6.6796875,33.0555469 6.40500391,32.7432344 6.24127734,32.5945 C5.02824609,31.4927227 4.06570312,30.1889219 3.37673047,28.7152344 L3.37673047,28.7152344 L1.41327344,27.3286797 C0.528289063,26.7037578 0,25.683918 0,24.6005469 L0,24.6005469 L0,21.3008555 C0,19.4592656 1.49825391,17.9610117 3.33984375,17.9610117 L3.33984375,17.9610117 L3.56168359,17.9610117 C4.10140234,16.9027266 4.78807422,15.9356562 5.61190234,15.0738281 L5.61190234,15.0738281 L4.48451953,10.4307031 C4.40399219,10.0987969 4.48014063,9.74833594 4.69121875,9.47988672 C4.90229687,9.2114375 5.22492578,9.0546875 5.56640625,9.0546875 L5.56640625,9.0546875 Z M8.90625,11.28125 L6.98235156,11.28125 L7.91847266,15.1369141 C8.01629297,15.5091211 7.91676562,15.914875 7.63725781,16.199875 L7.63725781,16.199875 L7.60504687,16.2314922 L7.59302344,16.2428477 C6.60509766,17.1762227 5.8294375,18.2777773 5.28749219,19.5172305 L5.28749219,19.5172305 L5.28581299,19.5211641 C5.16198828,19.80275 4.92092578,20.0077422 4.75875781,20.0726094 C4.50055078,20.2178555 4.2310625,20.1875 3.33984375,20.1875 C2.72598047,20.1875 2.2265625,20.686918 2.2265625,21.3007812 L2.2265625,21.3007812 L2.2265625,24.6004727 C2.2265625,24.9616211 2.40268359,25.301543 2.69762891,25.5099492 L2.69762891,25.5099492 L4.90838281,27.0711406 C5.07433594,27.188332 5.20503516,27.3486445 5.28637891,27.5347852 C5.84762109,28.8194375 6.69549609,29.9991445 7.73834375,30.9463984 C8.49144141,31.6303984 8.90625,32.5289648 8.90625,33.4763672 L8.90625,33.4763672 L8.90625,35.7734375 L12.2460938,35.7734375 L12.2460938,35.7734375 L12.2460938,32.4335938 C12.2460938,31.8187656 12.7445469,31.3203125 13.359375,31.3203125 C13.9742031,31.3203125 14.4726562,31.8187656 14.4726562,32.4335938 L14.4726562,32.4335938 L14.4726562,33.546875 L21.3007812,33.546875 L21.3007812,32.4335938 C21.3007812,31.8187656 21.7992344,31.3203125 22.4140625,31.3203125 C23.0288906,31.3203125 23.5273438,31.8187656 23.5273438,32.4335938 L23.5273438,32.4335938 L23.5273438,35.7734375 L26.8671875,35.7734375 L26.8671875,34.4168672 C26.8671875,32.9702695 27.4405273,31.5846055 28.4815195,30.5151133 C29.4916367,29.4773867 30.2779102,28.2110664 30.7555078,26.8530117 C31.1302383,25.7872305 31.3203125,24.6683086 31.3203125,23.5273438 C31.3203125,18.0025742 26.8255508,13.4929688 21.3007812,13.4929688 L21.3007812,13.4929688 L13.8623555,13.5077383 C12.9142109,13.5077383 12.0143828,13.1041367 11.3936172,12.400543 C10.7660977,11.6892305 9.85951563,11.28125 8.90625,11.28125 L8.90625,11.28125 Z M7.79296875,19.0742188 C8.40781701,19.0742188 8.90625,19.5726517 8.90625,20.1875 C8.90625,20.8023483 8.40781701,21.3007812 7.79296875,21.3007812 C7.17812049,21.3007812 6.6796875,20.8023483 6.6796875,20.1875 C6.6796875,19.5726517 7.17812049,19.0742188 7.79296875,19.0742188 Z M21.3007812,15.734375 C21.9156094,15.734375 22.4140625,16.2328281 22.4140625,16.8476562 C22.4140625,17.4624844 21.9156094,17.9609375 21.3007812,17.9609375 L21.3007812,17.9609375 L16.0892891,17.9609375 C15.4744609,17.9609375 14.9760078,17.4624844 14.9760078,16.8476562 C14.9760078,16.2328281 15.4744609,15.734375 16.0892891,15.734375 L16.0892891,15.734375 Z M20.1875,0 C22.6429531,0 24.640625,1.99767187 24.640625,4.453125 C24.640625,6.90857813 22.6429531,8.90625 20.1875,8.90625 C17.7320469,8.90625 15.734375,6.90857813 15.734375,4.453125 C15.734375,1.99767187 17.7320469,0 20.1875,0 Z M20.1875,2.2265625 C18.9597734,2.2265625 17.9609375,3.22539844 17.9609375,4.453125 C17.9609375,5.68085156 18.9597734,6.6796875 20.1875,6.6796875 C21.4152266,6.6796875 22.4140625,5.68085156 22.4140625,4.453125 C22.4140625,3.22539844 21.4152266,2.2265625 20.1875,2.2265625 Z" id="Combined-Shape" fill="#07A39D"></path>
            </g>
        </g>
    </g>
</svg>