<?xml version="1.0" encoding="UTF-8"?>
<svg width="32px" height="30px" viewBox="0 0 32 30" version="1.1" xmlns="http://www.w3.org/2000/svg" xmlns:xlink="http://www.w3.org/1999/xlink">
    <title>shopping-cart (2)</title>
    <g id="Marketplace-(Quick-order)" stroke="none" stroke-width="1" fill="none" fill-rule="evenodd">
        <g id="marketplace/cartContent/mobile" transform="translate(-259.000000, -488.000000)" fill="#FFFFFF" fill-rule="nonzero">
            <g id="Group-3" transform="translate(248.000000, 475.000000)">
                <g id="shopping-cart-(2)" transform="translate(11.000000, 13.000000)">
                    <path d="M30.6852504,5.36112942 L5.66514453,5.36112942 L5.29322979,1.21787528 C5.23240173,0.540318338 4.66454806,0.0211521425 3.98430017,0.0211521425 L1.31418637,0.0211521425 C0.588380011,0.0211521425 0,0.609532154 0,1.33533851 C0,2.06114487 0.588380011,2.64952488 1.31418637,2.64952488 L2.78282092,2.64952488 C3.58541331,11.5911238 1.51112658,-11.5195945 4.29432299,19.4891961 C4.40158563,20.7028785 5.05736463,22.019881 6.18706426,22.9147793 C4.15026313,25.515867 6.01127619,29.3504751 9.32446518,29.3504751 C12.0743689,29.3504751 14.0139202,26.6078308 13.0708976,24.0102475 L20.2636273,24.0102475 C19.3217938,26.604514 21.2571522,29.3504751 24.0100598,29.3504751 C26.2070039,29.3504751 27.99436,27.5631191 27.99436,25.366175 C27.99436,23.1692308 26.2070039,21.3818748 24.0100598,21.3818748 L9.33335159,21.3818748 C8.33507059,21.3818748 7.46514179,20.779602 7.08965997,19.9021009 L28.0921104,18.667767 C28.6654711,18.6340988 29.1505936,18.2318326 29.28996,17.6746176 L31.9602615,6.99403727 C32.1672772,6.16584954 31.5403477,5.36112942 30.6852504,5.36112942 Z M9.32446518,26.7221024 C8.57688088,26.7221024 7.96860033,26.1138218 7.96860033,25.366175 C7.96860033,24.6185281 8.57688088,24.0102475 9.32446518,24.0102475 C10.0721121,24.0102475 10.6803926,24.6185281 10.6803926,25.366175 C10.6803926,26.1138218 10.0721121,26.7221024 9.32446518,26.7221024 Z M24.0099972,26.7221024 C23.2623503,26.7221024 22.6540698,26.1138218 22.6540698,25.366175 C22.6540698,24.6185281 23.2623503,24.0102475 24.0099972,24.0102475 C24.7576441,24.0102475 25.3659246,24.6185281 25.3659246,25.366175 C25.3659246,26.1138218 24.7576441,26.7221024 24.0099972,26.7221024 Z M26.9741758,16.1005978 L6.73589352,17.2899365 L5.90107227,7.98943957 L29.0020906,7.98943957 L26.9741758,16.1005978 Z" id="Shape"></path>
                </g>
            </g>
        </g>
    </g>
</svg>