<?xml version="1.0" encoding="UTF-8"?>
<svg width="78px" height="78px" viewBox="0 0 78 78" version="1.1" xmlns="http://www.w3.org/2000/svg" xmlns:xlink="http://www.w3.org/1999/xlink">
    <title>015A9175-3836-4C30-A98A-E35B593C5260</title>
    <g id="Services" stroke="none" stroke-width="1" fill="none" fill-rule="evenodd">
        <g id="Services/paversVsConcrete" transform="translate(-137.000000, -1379.000000)">
            <g id="icon-warranty" transform="translate(137.000000, 1379.000000)">
                <rect id="Rectangle-Copy-3" fill="#213951" x="0" y="0" width="78" height="78" rx="3"></rect>
                <g id="warranty" transform="translate(19.500000, 19.500000)" fill="#FFFFFF" fill-rule="nonzero" stroke="#213951" stroke-width="0.5">
                    <path d="M36.9109102,13.2104121 C36.396293,11.6168965 36.615668,9.22487109 35.2780898,7.37793164 C33.93,5.51644336 31.5853535,4.98735352 30.2614102,4.01905664 C28.9514063,3.0609668 27.7326563,0.976066406 25.5290801,0.257003906 C23.3876602,-0.441796875 21.1978711,0.506466797 19.5,0.506466797 C17.8023574,0.506466797 15.6127207,-0.442025391 13.4709199,0.256927734 C11.2677246,0.975837891 10.0479844,3.06119531 8.73881836,4.01882813 C7.41632227,4.98598242 5.06992383,5.51651953 3.7220625,7.37770313 C2.38562695,9.22311914 2.60279297,11.6206289 2.08908984,13.2103359 C1.60021875,14.7233379 0,16.5391992 0,18.8907773 C0,21.2438027 1.59839063,23.0526563 2.08908984,24.5711426 C2.60370703,26.1646582 2.38433203,28.5566836 3.72191016,30.403623 C5.06992383,32.2651875 7.41449414,32.7942012 8.73858984,33.7625742 C10.0483652,34.7205117 11.2673437,36.8055645 13.4709199,37.5245508 C15.6108926,38.2228945 17.8041094,37.2750879 19.5,37.2750879 C21.1935293,37.2750879 23.3918496,38.2219043 25.5290801,37.524627 C27.7323516,36.8057168 28.9513301,34.7208164 30.2611816,33.7627266 C31.5836777,32.7955723 33.9300762,32.2650352 35.2779375,30.4038516 C36.6144492,28.5583594 36.3971309,26.1610781 36.9109102,24.5712188 C37.3997813,23.0581406 39,21.2422793 39,18.8907773 C39,16.5379043 37.4019902,14.729584 36.9109102,13.2104121 Z M34.0117324,23.6343047 C33.4118789,25.4909941 33.5690215,27.5688867 32.8103496,28.6165547 C32.0414707,29.6781621 30.0214688,30.1630723 28.4627637,31.3032129 C26.9211211,32.4306328 25.840623,34.2178535 24.5839395,34.6278867 C23.3950488,35.0159063 21.457541,34.2280605 19.5000762,34.2280605 C17.528291,34.2280605 15.6107402,35.017582 14.4161367,34.6278867 C13.1596055,34.2178535 12.0806309,32.4318516 10.5373125,31.3031367 C8.98782422,30.1699277 6.95632031,29.6750391 6.18965039,28.6164023 C5.43341602,27.5722383 5.58461719,25.4799492 4.98841992,23.6343809 C4.4040293,21.8261367 3.046875,20.2604238 3.046875,18.8907773 C3.046875,17.5197598 4.40281055,15.9594551 4.98826758,14.14725 C5.58812109,12.2906367 5.43097852,10.2125918 6.18965039,9.165 C6.95807227,8.10407813 8.97959766,7.61756836 10.5373125,6.4783418 C12.0838301,5.34726563 13.1575488,3.56431055 14.4159844,3.15366797 C15.6038848,2.76610547 17.5477148,3.55349414 19.4999238,3.55349414 C21.4752891,3.55349414 23.388041,2.76343945 24.5838633,3.15366797 C25.8402422,3.563625 26.9201309,5.3503125 28.4627637,6.47841797 C30.0120234,7.61162695 32.0436797,8.10651563 32.8103496,9.16507617 C33.5667363,10.2094688 33.4146973,12.299625 34.0115801,14.1470977 L34.0115801,14.1471738 C34.5959707,15.955418 35.953125,17.5211309 35.953125,18.8907773 C35.953125,20.2617949 34.5971895,21.8220996 34.0117324,23.6343047 Z M26.5187051,14.0009238 C27.1136836,14.5959023 27.1136836,15.5604668 26.5187051,16.1553691 L18.8934434,23.7806309 C18.2984648,24.3756094 17.3338242,24.3755332 16.7389219,23.7806309 L12.4813711,19.5230801 C11.8863926,18.9281016 11.8863164,17.9635371 12.4812949,17.3686348 C13.0762734,16.7737324 14.0409902,16.7736563 14.6357402,17.3686348 L17.8161445,20.5489629 L24.3641074,14.001 C24.9590859,13.4060215 25.9237266,13.4060215 26.5187051,14.0009238 L26.5187051,14.0009238 Z" id="Shape"></path>
                </g>
            </g>
        </g>
    </g>
</svg>