<?xml version="1.0" encoding="UTF-8"?>
<svg width="240px" height="288px" viewBox="0 0 240 288" version="1.1" xmlns="http://www.w3.org/2000/svg" xmlns:xlink="http://www.w3.org/1999/xlink">
    <title>50E979DA-F043-4E9D-BC73-1DEEAC4A9E86</title>
    <g id="Why-Choose-Us" stroke="none" stroke-width="1" fill="none" fill-rule="evenodd">
        <g transform="translate(-968.000000, -1703.000000)" fill="#07A39D" fill-rule="nonzero" id="affordable">
            <g transform="translate(968.000000, 1703.000000)">
                <path d="M196.8,-5.68434189e-14 C199.4508,-5.68434189e-14 201.6,2.1492 201.6,4.8 L201.6,4.8 L201.6,168 L235.2,168 C237.8508,168 240.0006,170.1486 240.0006,172.7994 C240.0006,174.108 239.4666,175.3602 238.5216,176.2656 L238.5216,176.2656 L123.3216,286.6656 C122.4282,287.5218 121.2378,288 120,288 C118.7622,288 117.5724,287.5218 116.6784,286.6656 L116.6784,286.6656 L1.4784,176.2656 C-0.4356,174.4314 -0.5004,171.393 1.3338,169.479 C2.2392,168.534 3.4914,168 4.8,168 L4.8,168 L38.4,168 L38.4,4.8 C38.4,2.1492 40.5492,-5.68434189e-14 43.2,-5.68434189e-14 L43.2,-5.68434189e-14 Z M192,9.6 L48,9.6 L48,172.8 C48,175.4508 45.8508,177.6 43.2,177.6 L43.2,177.6 L16.7424,177.6 L120,276.552 L223.2576,177.6 L196.8,177.6 C194.1492,177.6 192,175.4508 192,172.8 L192,172.8 L192,9.6 Z M124.8,52.8 L124.8,62.832 C138.6396,65.1834 148.7742,77.1618 148.8,91.2 L148.8,91.2 L139.2,91.2 C139.2,80.5962 130.6038,72 120,72 C109.3962,72 100.8,80.5962 100.8,91.2 C100.8,101.8038 109.3962,110.4 120,110.4 C133.9266,110.4804 145.8,120.5148 148.2018,134.2326 C150.945,149.9004 140.4672,164.8248 124.8,167.568 L124.8,167.568 L124.8,177.6 L115.2,177.6 L115.2,167.568 C101.3604,165.2166 91.2258,153.2382 91.2,139.2 L91.2,139.2 L100.8,139.2 C100.8,149.8038 109.3962,158.4 120,158.4 C130.6038,158.4 139.2,149.8038 139.2,139.2 C139.2,128.5962 130.6038,120 120,120 C106.0734,119.9196 94.2,109.8852 91.7982,96.1674 C89.055,80.4996 99.5328,65.5752 115.2,62.832 L115.2,62.832 L115.2,52.8 L124.8,52.8 Z M67.2,19.2 L67.2,28.8 L57.6,28.8 L57.6,19.2 L67.2,19.2 Z M86.4,19.2 L86.4,28.8 L76.8,28.8 L76.8,19.2 L86.4,19.2 Z M105.6,19.2 L105.6,28.8 L96,28.8 L96,19.2 L105.6,19.2 Z M124.8,19.2 L124.8,28.8 L115.2,28.8 L115.2,19.2 L124.8,19.2 Z M144,19.2 L144,28.8 L134.4,28.8 L134.4,19.2 L144,19.2 Z M163.2,19.2 L163.2,28.8 L153.6,28.8 L153.6,19.2 L163.2,19.2 Z M182.4,19.2 L182.4,28.8 L172.8,28.8 L172.8,19.2 L182.4,19.2 Z" id="Combined-Shape"></path>
            </g>
        </g>
    </g>
</svg>