<?xml version="1.0" encoding="UTF-8"?>
<svg width="324px" height="324px" viewBox="0 0 324 324" version="1.1" xmlns="http://www.w3.org/2000/svg" xmlns:xlink="http://www.w3.org/1999/xlink">
    <title>BB64676B-FBF0-4CD8-A51E-513C978F4067</title>
    <g id="Why-Choose-Us" stroke="none" stroke-width="1" fill="none" fill-rule="evenodd">
        <g transform="translate(-203.000000, -1088.000000)" fill="#07A39D" fill-rule="nonzero" id="local-network" stroke="#0A2540" stroke-width="3">
            <g transform="translate(205.000000, 1090.000000)">
                <path d="M248.376915,170.97145 L213.722262,126.856307 C226.027707,114.240539 233.458757,97.6679968 234.693372,80.087741 L288.354428,80.087741 L288.354428,85.9605061 C275.932863,88.5131568 267.012933,99.4398367 266.998919,112.121005 C267.002256,126.863647 278.956002,138.812722 293.698644,138.810053 C308.441287,138.807383 320.390362,126.85297 320.387692,112.110327 C320.385023,99.4271568 311.459087,88.4971402 299.032183,85.9605061 L299.032183,74.7488637 C299.032183,71.8004687 296.6417,69.4099864 293.693305,69.4099864 L234.693372,69.4099864 C233.649621,54.6179593 228.201297,40.476608 219.050461,28.8078242 L226.498195,21.3600903 L289.336782,21.3600903 C292.285177,29.7000841 301.43668,34.0706225 309.776006,31.1215602 C318.116,28.1731652 322.486538,19.021662 319.537476,10.6823356 C316.588414,2.34300924 307.438245,-2.02819659 299.098919,0.920198424 C294.537515,2.53253938 290.94979,6.12093231 289.337449,10.6816683 L224.288567,10.6816683 C222.87243,10.6816683 221.515021,11.2449198 220.513981,12.2459593 L211.891694,20.8682462 C182.222218,-7.70542528 135.006522,-6.81716956 106.432183,22.8523065 C94.2875716,35.4627348 86.9659687,51.9438492 85.7500393,69.409319 L40.9034697,69.409319 L23.4500123,30.1532213 C31.2521142,26.0469573 34.2485591,16.394267 30.1429624,8.59216516 C26.0373657,0.790063289 16.3840082,-2.20571426 8.58190629,1.89988242 C0.780471774,6.00547909 -2.21597313,15.6581693 1.88962354,23.4602712 C4.04719735,27.560529 7.88051127,30.5216038 12.3931973,31.5726953 L32.5474593,76.9211194 C33.4056838,78.8477868 35.3183366,80.0884084 37.4271932,80.0870737 L85.749372,80.0870737 C86.9786485,97.4651194 94.2662161,113.860812 106.341422,126.417851 L61.2706194,171.488654 C32.1276901,167.122119 4.96281481,187.206976 0.596280506,216.349905 C-3.7702538,245.492835 16.3146028,272.65771 45.4575321,277.024244 C46.3371121,277.156381 47.2200289,277.265828 48.1049479,277.353252 L48.1049479,304.319922 C48.1049479,307.268317 50.4954302,309.658799 53.4438252,309.658799 L102.476075,309.658799 C105.42447,317.998793 114.575973,322.369331 122.915299,319.420269 C131.254626,316.471207 135.625831,307.320371 132.676769,298.981045 C129.727707,290.641718 120.576871,286.270512 112.237545,289.219575 C107.676141,290.831916 104.088416,294.420309 102.476075,298.981045 L58.7827025,298.981045 L58.7827025,277.353252 C88.1051516,274.430217 109.506709,248.289739 106.583673,218.966623 C104.605619,199.124685 91.7282472,182.040945 73.1976714,174.675963 L114.307027,133.566608 C141.078827,154.64583 178.761958,154.797321 205.703268,133.934991 L235.32336,171.638142 C194.424222,177.3434 165.893929,215.123298 171.599187,256.021768 C177.304445,296.920905 215.084343,325.451198 255.982813,319.745941 C296.88195,314.040683 325.412243,276.260785 319.706985,235.362315 C314.696449,199.438344 284.624555,172.292155 248.376915,170.97145 Z M309.709937,112.121005 C309.709937,120.966857 302.539158,128.137637 293.693305,128.137637 C284.847453,128.137637 277.676673,120.966857 277.676673,112.121005 C277.676673,103.275153 284.847453,96.1043731 293.693305,96.1043731 C302.539158,96.1043731 309.709937,103.275153 309.709937,112.121005 Z M304.37106,10.6823356 C307.319455,10.6823356 309.709937,13.072818 309.709937,16.021213 C309.709937,18.969608 307.319455,21.3600903 304.37106,21.3600903 C301.422665,21.3600903 299.032183,18.969608 299.032183,16.021213 C299.032183,13.072818 301.422665,10.6823356 304.37106,10.6823356 Z M16.0716838,21.3600903 C13.1232888,21.3600903 10.7328065,18.969608 10.7328065,16.021213 C10.7328065,13.072818 13.1232888,10.6823356 16.0716838,10.6823356 C19.0200788,10.6823356 21.4105612,13.072818 21.4105612,16.021213 C21.4105612,18.969608 19.0200788,21.3600903 16.0716838,21.3600903 Z M117.510353,298.981712 C120.458748,298.981712 122.849231,301.372194 122.849231,304.320589 C122.849231,307.268984 120.458748,309.659467 117.510353,309.659467 C114.561958,309.659467 112.171476,307.268984 112.171476,304.320589 C112.171476,301.372194 114.561958,298.981712 117.510353,298.981712 Z M74.7993346,261.171783 C61.6049666,268.877117 45.2826838,268.877117 32.0883158,261.171783 L32.0883158,250.931816 C32.0883158,239.137568 41.6495778,229.576307 53.4438252,229.576307 C65.2380726,229.576307 74.7993346,239.137568 74.7993346,250.931816 L74.7993346,261.171783 Z M42.7660705,208.220797 C42.7660705,202.32334 47.5463678,197.543042 53.4438252,197.543042 C59.3412826,197.543042 64.1215799,202.32334 64.1215799,208.220797 C64.1215799,214.118255 59.3412826,218.898552 53.4438252,218.898552 C47.5463678,218.898552 42.7660705,214.117587 42.7660705,208.220797 Z M85.4770892,195.893329 C92.3789229,203.719456 96.1775341,213.801926 96.154945,224.237429 C96.1528418,234.612203 92.354898,244.627269 85.4770892,252.394668 L85.4770892,250.931816 C85.4704156,239.259695 79.1151495,228.514537 68.8891973,222.886693 C77.0329874,214.355167 76.7179936,200.83713 68.1864676,192.69334 C59.6549416,184.550217 46.1369042,184.864544 37.9931142,193.39607 C30.116268,201.647972 30.116268,214.634124 37.9931142,222.886026 C27.7691641,228.515205 21.4165674,239.259695 21.4105612,250.931149 L21.4105612,252.394668 C5.80835951,234.702296 7.50211834,207.712269 25.1931558,192.110067 C42.8848605,176.507866 69.8748876,178.201625 85.4770892,195.893329 Z M197.593513,126.664107 C175.305703,142.844909 145.137041,142.844909 122.849231,126.664107 L122.849231,113.722668 C122.849231,103.992564 130.737422,96.1043731 140.467526,96.1043731 L152.319834,96.1043731 L144.573123,115.47382 C143.779632,117.45788 144.246116,119.724901 145.758353,121.234469 L156.436108,131.912223 C158.52094,133.996388 161.900449,133.996388 163.985281,131.912223 L174.663035,121.234469 C176.175272,119.724234 176.641757,117.45788 175.848266,115.47382 L168.106894,96.1043731 L179.975218,96.1043731 C189.705322,96.1043731 197.593513,103.992564 197.593513,113.722668 L197.593513,126.664107 L197.593513,126.664107 Z M160.985499,39.9660778 C160.785291,40.2997577 160.622455,40.6534583 160.499661,41.0225082 C157.798189,49.1215851 143.213043,52.1914396 133.821958,53.0830321 C135.254112,35.1911194 143.673522,26.6983003 160.222039,26.6983003 C175.373773,26.6983003 183.7131,33.8630737 186.099578,48.8119302 L168.310439,38.1341756 C165.781145,36.6179344 162.50174,37.4381194 160.985499,39.9660778 Z M167.583684,50.1579947 L186.664831,61.6098866 C184.523942,74.6794583 168.416549,85.4266184 160.221372,85.4266184 C148.313673,83.3985124 138.408054,75.1412712 134.269089,63.7934874 C143.409247,63.0407057 159.911717,60.2698284 167.583684,50.1579947 Z M164.631285,116.173213 L160.221372,120.588465 L155.811459,116.173213 L160.221372,105.137754 L164.631285,116.173213 Z M183.514894,85.6722067 C191.843542,79.1180674 196.968197,69.3118845 197.593513,58.7322317 C197.593513,23.4315747 177.268407,16.021213 160.221372,16.021213 C143.174337,16.021213 122.849231,23.4315747 122.849231,58.7322317 C123.469875,69.3178907 128.595197,79.1307473 136.92785,85.6882234 C122.775821,87.4320342 112.150788,99.4631943 112.171476,113.722668 L112.171476,116.968706 C88.7678398,90.4318159 91.3078107,49.9464417 117.845368,26.5428055 C144.382925,3.13916932 184.867632,5.67914021 208.271268,32.21603 C229.626777,56.4311756 229.626777,92.7528928 208.271268,116.968706 L208.271268,113.722001 C208.299964,99.457188 197.672929,87.4160176 183.514894,85.6722067 Z M283.015551,297.508182 C260.72774,313.688984 230.559079,313.688984 208.271268,297.508182 L208.271268,284.566743 C208.271268,274.836639 216.159459,266.948448 225.889563,266.948448 L237.741871,266.948448 L229.99516,286.317895 C229.201669,288.301955 229.668154,290.568309 231.180391,292.078544 L241.858145,302.756298 C243.942977,304.840462 247.322486,304.840462 249.407318,302.756298 L260.085073,292.078544 C261.59731,290.568309 262.063794,288.301955 261.270303,286.317895 L253.528931,266.948448 L265.397256,266.948448 C275.12736,266.948448 283.015551,274.836639 283.015551,284.566743 L283.015551,297.508182 L283.015551,297.508182 Z M253.005721,221.00207 L253.005721,220.996731 L272.086869,232.448623 C269.945979,245.523533 253.838586,256.270693 245.643409,256.270693 C233.735711,254.242587 223.830091,245.985346 219.691127,234.637562 C228.831285,233.884781 245.333755,231.113236 253.005721,221.00207 Z M219.242661,223.927774 L219.242661,223.927774 C220.67348,206.037196 229.09289,197.543042 245.643409,197.543042 C260.795143,197.543042 269.13447,204.707816 271.520948,219.656672 L253.731809,208.978918 C251.203183,207.462009 247.923777,208.282194 246.406869,210.81082 C246.206661,211.1445 246.043825,211.498201 245.921031,211.86725 C243.219559,219.966327 228.633746,223.036182 219.242661,223.927774 Z M250.053322,287.017288 L245.643409,291.432539 L241.233497,287.017288 L245.643409,275.981828 L250.053322,287.017288 Z M293.693305,287.82813 L293.693305,284.566076 C293.722002,270.300596 283.094967,258.260092 268.936931,256.515614 C277.26558,249.961475 282.390235,240.155292 283.015551,229.575639 C283.015551,194.274982 262.690445,186.86462 245.643409,186.86462 C228.596374,186.86462 208.271268,194.274982 208.271268,229.575639 C208.891913,240.161298 214.017235,249.974155 222.349888,256.531631 C208.197858,258.275442 197.572825,270.306602 197.593513,284.566076 L197.593513,287.812113 C174.244601,261.254535 176.845969,220.796523 203.403547,197.44761 C229.961125,174.098697 270.419137,176.700065 293.76805,203.257643 C304.056066,214.959128 309.723952,230.010758 309.709963,245.591604 C309.706601,261.154431 304.010019,276.177365 293.693305,287.82813 Z" id="Shape"></path>
            </g>
        </g>
    </g>
</svg>