<?xml version="1.0" encoding="UTF-8"?>
<svg width="326px" height="334px" viewBox="0 0 326 334" version="1.1" xmlns="http://www.w3.org/2000/svg" xmlns:xlink="http://www.w3.org/1999/xlink">
    <title>5525F37C-7F28-4AB5-9DBF-E2C959D0F799</title>
    <g id="Why-Choose-Us" stroke="none" stroke-width="1" fill="none" fill-rule="evenodd">
        <g transform="translate(-925.000000, -402.000000)" fill="#07A39D" fill-rule="nonzero" id="quality" stroke="#FFFFFF" stroke-width="3">
            <g transform="translate(927.000000, 404.000000)">
                <path d="M77.7755586,217.000016 C101.42833,196.494233 137.118759,196.494233 160.783813,217.012299 C163.876755,219.235581 166.964783,224.021165 173.556015,224.021165 L173.556015,224.021165 L204.170975,224.021165 C213.363815,224.021165 221.613296,229.018021 225.998443,236.520677 L225.998443,236.520677 L260.6669,213.592621 C280.605194,200.65828 307.004517,205.544587 320.810974,224.686921 C322.835266,227.494889 322.211274,231.410813 319.415588,233.449845 L319.415588,233.449845 L189.005981,328.468736 C187.637619,329.466141 185.930237,329.866578 184.269531,329.588975 L184.269531,329.588975 L71.5823056,310.807771 L6.2890625,310.807771 C2.81533782,310.807771 -2.55795385e-13,307.992432 -2.55795385e-13,304.518708 L-2.55795385e-13,304.518708 L-2.27373675e-13,298.229 L72.1031192,298.229646 C72.3340456,298.229646 72.564972,298.242748 72.7944427,298.268224 L73.137375,298.315629 L183.733979,316.747987 L306.446853,227.335206 C296.01094,217.668229 280.013138,216.034547 267.557846,224.114518 L267.557846,224.114518 L229.319854,249.400971 C229.012771,262.853669 217.847229,273.704759 204.170975,273.704759 L204.170975,273.704759 L128.702225,273.704759 C125.230957,273.704759 122.413162,270.886964 122.413162,267.415696 C122.413162,263.941972 125.230957,261.126634 128.702225,261.126634 L128.702225,261.126634 L204.170975,261.126634 C211.10614,261.126634 216.7491,255.61142 216.7491,248.831025 C216.7491,242.003953 210.998047,236.59929 204.170975,236.59929 L204.170975,236.59929 L173.556015,236.59929 C161.363586,236.59929 155.185074,228.295762 152.544159,226.517137 C133.576248,210.069764 104.968384,210.069764 86.0029297,226.51468 C78.3307646,232.634232 77.244919,235.341477 73.4297177,235.341477 L73.4297177,235.341477 L-2.27373675e-13,235.341 L-2.55795385e-13,229.052415 C-2.55795385e-13,225.655884 2.69160199,222.888804 6.05847991,222.7675 L6.2890625,222.763352 L71.0909726,222.763352 Z M257.777609,47.8227967 C260.321703,47.8227967 261.93345,49.08437 263.081592,51.0992511 L263.081592,51.0992511 L286.795376,98.5268181 C287.900043,100.870926 287.50758,103.211476 285.961441,105.071822 L285.961441,105.071822 L202.963199,200.322186 C201.836794,201.614587 200.208448,202.357619 198.493151,202.357619 C196.777854,202.357619 195.149507,201.614587 194.023102,200.322186 L194.023102,200.322186 L111.02486,105.071822 C109.468841,103.201991 109.092977,100.858673 110.190926,98.5268181 L110.190926,98.5268181 L133.904709,51.0992511 C135.072218,49.0527516 136.729811,47.8227967 139.208692,47.8227967 L139.208692,47.8227967 Z M159.005749,107.107255 L128.525633,107.107255 L188.232987,175.632185 L159.005749,107.107255 Z M268.460669,107.107255 L237.980552,107.107255 L208.753314,175.632185 L268.460669,107.107255 Z M225.088159,107.107255 L171.898143,107.107255 L198.493151,169.462649 L225.088159,107.107255 Z M198.493151,63.6319857 L174.779367,95.2503637 L222.206934,95.2503637 L198.493151,63.6319857 Z M139.208692,67.0072475 L125.087134,95.2503637 L153.33025,95.2503637 L139.208692,67.0072475 Z M257.777609,67.0072475 L243.656051,95.2503637 L271.899167,95.2503637 L257.777609,67.0072475 Z M248.185384,59.6796884 L210.350042,59.6796884 L233.052038,89.9463808 L248.185384,59.6796884 Z M186.636259,59.6796884 L148.800917,59.6796884 L163.934264,89.9463808 L186.636259,59.6796884 Z M156.572715,17.7592525 C158.88797,15.4439967 162.641862,15.4439967 164.956723,17.7592525 L164.956723,17.7592525 L173.340731,26.1432606 C175.655987,28.4585163 175.655987,32.212013 173.340731,34.5272688 C171.02587,36.8429197 167.271583,36.8425245 164.956723,34.5272688 L164.956723,34.5272688 L156.572715,26.1432606 C154.257459,23.8280049 154.257459,20.0745082 156.572715,17.7592525 Z M232.029183,17.7592525 C234.344439,15.4439967 238.098331,15.4439967 240.413191,17.7592525 C242.728447,20.0745082 242.728447,23.8280049 240.413191,26.1432606 L240.413191,26.1432606 L232.029183,34.5272688 C229.714323,36.8429197 225.960036,36.8425245 223.645175,34.5272688 C221.329919,32.212013 221.329919,28.4585163 223.645175,26.1432606 L223.645175,26.1432606 Z M198.493151,8.66862138e-13 C201.767234,8.66862138e-13 204.421597,2.65436283 204.421597,5.92844587 L204.421597,5.92844587 L204.421597,18.1805673 C204.421597,21.4546504 201.767234,24.1090132 198.493151,24.1090132 C195.219068,24.1090132 192.564705,21.4546504 192.564705,18.1805673 L192.564705,18.1805673 L192.564705,5.92844587 C192.564705,2.65436283 195.219068,8.66862138e-13 198.493151,8.66862138e-13 Z" id="Combined-Shape"></path>
            </g>
        </g>
    </g>
</svg>